<?xml version="1.0" standalone="no"?>
<svg xmlns:xlink="http://www.w3.org/1999/xlink" id="wave" style="transform:rotate(180deg); transition: 0.3s" viewBox="0 0 1440 130" version="1.1" xmlns="http://www.w3.org/2000/svg"><defs><linearGradient id="sw-gradient-0" x1="0" x2="0" y1="1" y2="0"><stop stop-color="rgba(255, 249, 234, 1)" offset="0%"/><stop stop-color="rgba(255, 249, 234, 1)" offset="100%"/></linearGradient></defs><path style="transform:translate(0, 0px); opacity:1" fill="url(#sw-gradient-0)" d="M0,78L48,82.3C96,87,192,95,288,95.3C384,95,480,87,576,78C672,69,768,61,864,52C960,43,1056,35,1152,43.3C1248,52,1344,78,1440,82.3C1536,87,1632,69,1728,71.5C1824,74,1920,95,2016,101.8C2112,108,2208,100,2304,95.3C2400,91,2496,91,2592,91C2688,91,2784,91,2880,84.5C2976,78,3072,65,3168,54.2C3264,43,3360,35,3456,43.3C3552,52,3648,78,3744,82.3C3840,87,3936,69,4032,56.3C4128,43,4224,35,4320,45.5C4416,56,4512,87,4608,95.3C4704,104,4800,91,4896,80.2C4992,69,5088,61,5184,67.2C5280,74,5376,95,5472,86.7C5568,78,5664,39,5760,39C5856,39,5952,78,6048,91C6144,104,6240,91,6336,71.5C6432,52,6528,26,6624,13C6720,0,6816,0,6864,0L6912,0L6912,130L6864,130C6816,130,6720,130,6624,130C6528,130,6432,130,6336,130C6240,130,6144,130,6048,130C5952,130,5856,130,5760,130C5664,130,5568,130,5472,130C5376,130,5280,130,5184,130C5088,130,4992,130,4896,130C4800,130,4704,130,4608,130C4512,130,4416,130,4320,130C4224,130,4128,130,4032,130C3936,130,3840,130,3744,130C3648,130,3552,130,3456,130C3360,130,3264,130,3168,130C3072,130,2976,130,2880,130C2784,130,2688,130,2592,130C2496,130,2400,130,2304,130C2208,130,2112,130,2016,130C1920,130,1824,130,1728,130C1632,130,1536,130,1440,130C1344,130,1248,130,1152,130C1056,130,960,130,864,130C768,130,672,130,576,130C480,130,384,130,288,130C192,130,96,130,48,130L0,130Z"/></svg>