<?xml version="1.0" standalone="no"?>
<!DOCTYPE svg PUBLIC "-//W3C//DTD SVG 20010904//EN"
 "http://www.w3.org/TR/2001/REC-SVG-20010904/DTD/svg10.dtd">
<svg version="1.0" xmlns="http://www.w3.org/2000/svg"
 width="564.000000pt" height="849.000000pt" viewBox="0 0 564.000000 849.000000"
 preserveAspectRatio="xMidYMid meet">

<g transform="translate(0.000000,849.000000) scale(0.100000,-0.100000)"
fill="#000000" stroke="none">
<path d="M2761 7288 c-6 -10 -11 -27 -11 -38 0 -34 -22 -110 -30 -105 -11 7
-20 -34 -14 -65 7 -31 77 -73 191 -114 l73 -26 15 24 c19 29 50 39 65 21 8
-10 3 -27 -20 -69 -18 -31 -35 -56 -39 -56 -4 0 -24 -15 -44 -34 -41 -37 -49
-77 -21 -107 14 -15 14 -23 4 -56 -15 -46 -109 -235 -157 -318 -86 -146 -202
-316 -304 -447 -49 -62 -89 -117 -89 -122 0 -4 18 -6 39 -4 22 2 37 0 35 -4
-13 -20 29 -4 111 43 157 89 305 213 422 353 69 82 81 92 124 102 50 12 68 25
88 62 6 12 19 22 28 22 8 0 67 23 131 51 l116 50 55 -24 c77 -34 98 -40 106
-27 9 15 31 12 49 -6 12 -12 16 -37 16 -104 0 -83 -1 -89 -25 -104 -24 -16
-25 -21 -25 -121 0 -58 -4 -107 -10 -110 -5 -3 -10 -46 -10 -95 l0 -88 30 -14
c24 -10 30 -19 30 -43 -1 -85 -61 -248 -95 -262 -8 -3 -15 -9 -15 -14 0 -6 -8
-18 -18 -29 -10 -11 -33 -49 -51 -85 l-33 -67 8 -421 c4 -232 8 -449 8 -481
l1 -59 -120 -49 c-66 -27 -178 -74 -250 -103 -71 -30 -224 -93 -340 -140 -115
-47 -223 -92 -240 -100 -48 -22 -278 -113 -295 -117 -8 -2 -17 -5 -20 -8 -7
-8 -62 -31 -65 -28 -7 8 22 127 34 142 10 12 32 16 95 16 72 0 158 9 253 25
18 3 39 13 48 21 14 14 13 17 -7 34 -13 10 -25 15 -28 11 -3 -5 -50 -11 -105
-14 -98 -6 -99 -6 -40 7 51 10 111 33 95 36 -3 1 -45 8 -95 16 -49 8 -101 17
-115 20 -83 19 -197 23 -270 8 l-35 -7 30 -7 c17 -4 -8 -5 -55 -2 -99 5 -188
-13 -264 -57 -49 -27 -80 -63 -40 -46 24 10 126 45 131 45 15 0 -12 -19 -34
-24 -42 -11 -113 -46 -113 -57 0 -6 -4 -8 -9 -5 -5 3 -11 -1 -14 -8 -3 -8 -25
-23 -49 -34 -57 -25 -178 -144 -218 -215 -37 -66 -39 -67 -115 -97 -33 -13
-78 -31 -100 -40 -22 -10 -71 -30 -110 -45 -38 -15 -74 -31 -79 -36 -16 -15
-26 -10 -27 14 0 12 -2 18 -5 12 -2 -5 2 -39 10 -75 13 -66 10 -79 -23 -80
-11 0 -11 4 2 18 26 28 22 43 -7 32 -24 -9 -25 -7 -31 38 -9 64 -13 74 -14 32
-1 -26 -4 -31 -11 -20 -5 8 -7 27 -5 43 3 15 1 27 -5 27 -11 0 -14 -18 -11
-72 2 -21 -4 -46 -11 -57 -13 -19 -15 -17 -27 22 -7 23 -28 74 -47 112 -37 76
-36 69 7 -47 16 -43 26 -78 24 -78 -3 0 -23 35 -43 78 -54 110 -55 112 -62 82
-4 -14 -1 -37 7 -54 15 -29 27 -176 15 -176 -4 0 -20 49 -36 108 -19 72 -34
109 -43 109 -10 0 -12 -9 -8 -31 5 -30 5 -30 -6 -6 -11 24 -11 24 -19 5 -5
-12 -9 -14 -9 -6 -1 8 -4 11 -8 8 -9 -9 28 -88 38 -81 5 3 6 -1 3 -9 -7 -19
32 -107 48 -108 7 0 4 -4 -7 -8 -16 -6 -22 -3 -31 18 -6 14 -19 33 -29 41 -18
14 -18 14 -2 -10 9 -13 17 -40 16 -60 l-1 -35 -10 33 c-12 37 -28 42 -28 10
-1 -40 -16 0 -39 104 -19 83 -25 96 -36 84 -8 -7 -15 -31 -17 -52 l-3 -39 -17
37 c-12 27 -22 36 -37 35 -27 -2 -27 -2 10 -82 34 -75 33 -101 -2 -33 -50 98
-82 114 -74 36 l5 -53 -18 49 c-11 30 -21 45 -26 38 -4 -6 -1 -24 7 -39 22
-43 57 -159 57 -188 0 -18 -7 -28 -27 -36 -14 -5 -31 -17 -38 -25 -9 -13 -11
-13 -11 5 0 11 4 18 7 15 4 -2 10 0 14 6 3 5 15 10 27 10 15 0 18 4 13 18 -4
9 -23 59 -43 110 -19 51 -37 91 -39 88 -3 -3 9 -44 26 -91 34 -94 36 -105 20
-105 -5 0 -8 4 -5 8 2 4 -11 32 -30 62 -19 32 -34 68 -34 87 0 33 -20 58 -20
26 -1 -17 -1 -17 -14 0 -16 21 -40 23 -32 2 3 -9 0 -15 -9 -15 -9 0 -12 -6 -9
-15 4 -8 2 -15 -4 -15 -5 0 -12 10 -16 22 -4 17 -8 20 -17 11 -8 -8 -8 -16 0
-31 6 -11 11 -38 10 -59 0 -30 -2 -34 -9 -18 -7 16 -9 17 -9 3 -1 -9 4 -20 9
-23 6 -3 10 -25 10 -48 0 -23 4 -48 9 -56 5 -8 7 -21 3 -29 -4 -13 -7 -12 -13
4 -4 10 -8 31 -8 46 -1 16 -6 27 -12 25 -6 -1 -16 16 -23 38 -7 22 -18 56 -25
75 l-11 35 5 -45 c2 -25 7 -61 9 -80 5 -28 2 -25 -10 13 -24 75 -28 48 -5 -35
29 -104 26 -106 -13 -10 -19 46 -37 86 -41 90 -8 9 5 -47 16 -70 15 -29 9 -44
-7 -18 l-15 25 4 -25 c3 -14 11 -39 18 -57 11 -28 11 -34 -4 -51 -19 -21 -24
-126 -7 -137 6 -3 10 -1 10 6 0 7 3 10 6 6 3 -3 8 -29 10 -56 3 -45 1 -51 -16
-51 -17 0 -20 -7 -20 -44 0 -33 5 -46 18 -51 16 -6 16 -7 0 -16 -16 -9 -17
-73 -18 -928 0 -828 2 -919 16 -925 31 -12 46 -7 39 14 -7 24 10 27 19 4 10
-27 7 -33 -35 -79 -57 -62 -41 -69 19 -8 59 60 96 133 98 194 1 26 5 57 8 70
21 78 32 105 46 116 11 9 11 12 2 13 -14 0 35 50 50 50 5 0 7 4 4 9 -3 5 9 19
27 30 17 12 47 32 66 46 19 14 36 23 39 21 2 -3 17 7 33 22 16 14 39 27 51 29
11 2 26 9 32 17 6 7 27 23 46 36 19 13 46 34 59 47 22 22 23 24 7 48 -17 26
-22 75 -7 75 5 0 11 -5 13 -12 3 -8 15 -2 33 16 28 28 28 31 26 127 -1 57 2
99 7 99 12 0 22 -50 22 -113 l0 -50 24 22 c24 23 25 23 50 5 14 -11 26 -24 26
-31 0 -6 17 -17 38 -23 20 -7 51 -21 67 -30 22 -14 35 -16 48 -9 10 6 17 6 17
1 0 -5 9 -12 21 -15 16 -4 18 -3 8 9 -9 11 -7 15 7 21 10 4 19 2 22 -5 2 -6 9
-9 15 -6 9 3 12 -20 12 -83 1 -147 15 -263 31 -263 11 0 14 30 14 165 0 147 6
186 23 158 3 -5 11 -77 18 -161 10 -117 16 -152 26 -152 12 0 14 28 11 155 -3
142 -2 155 15 155 36 0 15 22 -50 51 -38 17 -109 50 -160 74 l-91 43 -122 164
c-66 89 -128 172 -137 183 -9 11 -18 29 -19 40 -1 11 -3 23 -3 28 -1 4 -6 7
-12 7 -8 0 -7 -6 2 -17 13 -16 12 -17 -4 -4 -9 8 -15 16 -13 19 3 2 -26 38
-64 79 -38 42 -93 109 -122 149 -29 41 -72 100 -95 132 -46 62 -42 75 12 42
26 -16 39 -19 49 -11 10 8 19 5 36 -14 25 -27 59 -32 78 -13 9 10 16 8 29 -5
16 -16 16 -17 1 -17 -26 0 -68 -22 -68 -35 0 -10 52 -55 64 -55 16 0 36 36 36
65 0 29 3 32 21 28 11 -3 31 0 45 8 22 11 25 18 21 57 -3 34 -9 47 -26 57 -21
11 -21 13 -6 19 16 6 44 -17 45 -36 0 -5 11 -8 25 -8 30 0 31 -4 5 -37 -25
-33 -25 -35 5 -71 28 -33 33 -51 10 -32 -13 11 -14 8 -8 -21 3 -19 13 -39 20
-44 12 -9 10 -14 -8 -30 -20 -17 -22 -18 -16 -3 4 13 -1 22 -19 31 -23 12 -24
15 -10 26 20 17 21 57 1 65 -8 3 -27 1 -41 -4 -14 -6 -30 -7 -36 -4 -7 5 -8 2
-3 -6 4 -7 2 -16 -5 -20 -10 -6 -8 -16 10 -45 27 -44 22 -53 -13 -24 -15 11
-27 16 -27 11 0 -5 17 -21 37 -35 21 -15 64 -51 97 -82 32 -31 60 -54 62 -53
5 6 -30 102 -41 111 -6 5 -4 7 5 4 8 -2 16 -13 18 -25 2 -12 7 -22 12 -22 5 0
12 -20 16 -45 3 -25 10 -45 15 -45 8 0 6 25 -6 84 -2 12 0 15 5 10 6 -6 14
-34 20 -64 21 -111 25 -50 5 75 -2 17 9 -11 26 -62 29 -88 31 -91 49 -76 10 9
17 19 15 23 -2 3 -13 39 -23 78 -24 88 -5 102 22 17 9 -30 19 -55 22 -55 8 0
-7 94 -17 105 -5 5 -9 18 -9 30 1 20 1 20 15 1 8 -11 18 -34 21 -53 3 -18 12
-33 18 -33 7 0 20 -16 30 -36 22 -47 31 -38 16 16 -6 23 -9 44 -6 47 3 3 10
-15 17 -41 13 -51 33 -76 24 -29 -5 27 -5 27 5 4 17 -40 20 -18 5 34 l-15 50
19 -25 c11 -14 22 -22 25 -19 3 3 -7 23 -24 45 -16 21 -30 47 -30 57 0 35 21
15 50 -45 16 -35 29 -57 29 -49 1 11 5 10 17 -5 14 -18 15 -16 9 21 l-6 40 20
-32 c23 -37 49 -47 31 -12 -6 11 -9 28 -7 37 3 12 6 9 12 -11 4 -15 12 -26 19
-24 12 5 12 11 0 41 -5 14 -4 17 4 12 7 -4 12 -1 12 8 0 28 18 17 25 -14 4
-16 10 -30 15 -30 5 0 2 23 -6 51 -8 28 -13 56 -11 62 2 7 12 -16 22 -50 10
-35 22 -63 27 -63 5 0 6 10 3 22 -6 17 -4 20 9 15 20 -8 21 12 2 58 -13 29
-13 33 0 28 8 -3 14 -1 14 4 0 5 41 15 91 22 92 13 92 13 146 67 30 30 59 52
63 49 5 -3 12 0 16 6 4 8 3 9 -4 5 -27 -16 -9 13 30 49 31 30 38 33 26 14 -15
-24 -15 -25 4 -24 23 2 42 30 34 51 -3 8 -1 14 4 14 21 0 19 -23 -6 -82 -15
-35 -35 -84 -45 -110 l-17 -48 56 -51 c57 -52 194 -147 245 -170 40 -18 33
-29 -20 -29 -48 0 -304 -25 -395 -38 -45 -7 -50 -11 -96 -77 -27 -38 -54 -69
-60 -68 -7 2 -12 -1 -12 -5 0 -5 -9 -18 -20 -30 -27 -29 -13 -28 19 1 20 17
22 18 9 2 -44 -54 -58 -95 -58 -168 0 -68 2 -75 30 -102 l30 -29 0 102 c0 56
4 102 9 102 5 0 13 -55 17 -122 l9 -123 -33 -53 c-18 -29 -31 -56 -28 -61 3
-4 1 -23 -4 -41 -9 -32 2 -216 14 -228 13 -12 21 12 26 73 5 61 6 63 25 49 13
-10 18 -24 17 -47 -2 -37 11 -63 27 -53 15 10 14 49 -1 66 -7 8 1 3 17 -11 17
-14 64 -50 105 -79 41 -30 85 -64 96 -77 12 -13 26 -23 33 -23 6 0 11 -4 11
-10 0 -5 7 -10 16 -10 8 0 13 -4 9 -10 -3 -5 7 -16 22 -24 16 -8 52 -39 80
-70 l53 -56 1 -83 c1 -45 5 -86 9 -92 4 -5 13 -27 20 -48 19 -59 104 -139 175
-166 80 -30 132 -39 305 -51 183 -12 235 -22 373 -70 62 -21 141 -46 177 -56
83 -22 243 -24 285 -3 57 27 72 149 21 169 -12 4 -54 11 -92 14 -75 6 -194 30
-264 53 -60 19 -160 81 -160 99 0 8 -7 14 -15 14 -10 0 -14 9 -13 27 2 18 22
46 60 83 54 52 58 59 58 101 0 98 -104 178 -285 219 -22 5 -117 16 -210 25
-177 16 -245 32 -307 72 -21 12 -40 23 -43 23 -3 0 -14 8 -25 18 -22 20 -25
56 -21 232 3 158 16 133 31 -62 10 -125 20 -173 34 -157 4 4 15 199 17 294 1
98 16 25 29 -143 5 -80 12 -148 15 -150 15 -15 25 20 25 87 0 114 12 236 21
219 4 -8 11 -68 15 -134 9 -153 8 -148 27 -152 15 -3 17 12 18 130 1 73 4 147
8 163 l7 30 7 -40 c3 -22 9 -90 13 -152 7 -115 14 -141 33 -129 7 5 11 54 11
141 0 74 4 136 9 139 13 8 19 -25 27 -152 3 -62 10 -115 14 -117 13 -8 31 22
29 47 -6 63 2 242 10 228 10 -17 33 -228 27 -239 -8 -12 11 -34 23 -27 7 5 11
45 12 104 0 86 13 204 19 177 1 -5 7 -68 13 -140 10 -104 15 -130 27 -130 12
0 16 21 18 115 4 182 23 166 38 -32 5 -74 8 -85 20 -73 9 9 16 48 19 116 5 96
9 119 20 108 2 -3 7 -48 11 -101 4 -53 10 -102 14 -108 17 -28 30 5 31 78 1
42 5 91 9 107 l7 30 6 -35 c3 -19 9 -66 12 -105 3 -38 8 -71 10 -73 14 -14 24
21 30 110 9 119 23 100 27 -38 3 -73 5 -81 20 -73 13 7 18 30 24 99 3 49 10
90 14 90 11 0 20 -54 20 -117 0 -46 3 -54 18 -51 13 3 18 17 22 71 3 37 10 67
15 67 6 0 12 -26 15 -57 4 -43 9 -59 21 -61 13 -2 17 8 21 53 3 30 7 58 11 61
14 14 27 -10 27 -50 0 -42 13 -66 36 -66 7 0 20 26 29 58 l16 58 82 -9 c45 -4
190 -9 322 -10 146 -1 243 -6 247 -12 5 -6 8 -5 8 2 0 7 7 10 15 7 9 -4 15 0
15 7 0 11 3 11 10 -1 9 -13 11 -13 20 0 7 11 10 0 11 -40 1 -53 1 -54 11 -22
6 17 17 32 24 32 8 0 14 7 14 15 0 8 5 15 10 15 6 0 10 -7 10 -16 0 -15 2 -15
26 1 32 21 60 5 44 -25 -13 -25 -13 -33 3 -24 6 4 3 -2 -7 -14 -23 -26 -34
-29 -15 -4 11 14 10 13 -9 -2 -23 -20 -30 -32 -12 -21 66 41 -280 -303 -380
-377 -134 -100 -229 -138 -304 -124 -46 9 -56 24 -60 88 -4 74 -16 92 -32 47
l-12 -34 -2 30 c-2 19 -4 23 -7 12 -3 -11 -11 -16 -21 -13 -13 4 -21 -7 -35
-47 -30 -83 -30 -90 -4 -129 14 -20 23 -39 19 -42 -3 -3 4 -6 16 -6 11 0 24
-5 27 -11 10 -15 56 -32 85 -31 22 2 23 1 5 -7 -18 -7 -16 -9 13 -16 40 -8 67
9 32 20 -18 6 -20 9 -9 16 9 6 4 7 -15 3 -19 -5 -27 -3 -23 3 4 6 33 14 64 18
32 3 81 13 108 22 99 30 113 31 135 16 12 -8 19 -21 16 -29 -3 -8 0 -14 6 -14
6 0 20 -8 31 -17 11 -10 17 -13 14 -7 -7 11 48 44 72 44 27 0 111 52 174 108
72 64 140 105 153 94 4 -4 4 -2 1 4 -4 7 0 15 9 18 24 9 31 7 14 -4 -9 -6 -10
-10 -3 -10 7 0 17 9 23 20 6 11 18 20 26 20 8 0 12 5 9 10 -3 6 -2 10 2 10 5
0 22 12 38 28 16 15 32 26 35 26 9 -3 90 59 90 68 0 5 4 7 9 3 6 -3 15 4 21
15 6 11 14 19 18 17 10 -3 72 58 72 71 0 5 6 12 14 15 21 8 -18 -59 -68 -116
-14 -16 -22 -35 -19 -43 3 -10 17 -1 47 30 24 24 55 51 69 61 15 9 27 25 27
33 0 13 -3 12 -15 -5 -8 -11 -32 -31 -52 -43 l-38 -22 21 23 c12 13 24 32 27
42 4 10 12 15 17 12 6 -4 9 -3 8 2 -4 13 48 73 56 65 4 -3 4 1 0 11 -4 11 0
19 10 23 9 3 16 14 16 24 0 11 5 22 10 25 6 3 10 2 10 -3 0 -16 -42 -137 -50
-146 -5 -5 -6 -15 -3 -23 3 -8 -7 -27 -22 -43 -15 -15 -28 -32 -28 -37 -1 -4
-7 -7 -14 -7 -7 1 -15 -7 -18 -17 -4 -11 -10 -17 -15 -14 -5 3 -19 -9 -31 -27
l-23 -33 25 23 c14 12 28 20 31 16 4 -3 9 3 12 13 3 10 15 19 27 20 17 2 18
-1 9 -12 -7 -8 -16 -13 -20 -10 -4 3 -10 -2 -14 -10 -3 -8 -13 -15 -21 -15
-10 0 -13 -5 -9 -12 4 -6 3 -8 -4 -4 -6 3 -28 -10 -48 -31 -25 -25 -36 -31
-31 -18 6 17 5 18 -5 4 -7 -9 -20 -18 -28 -22 -13 -5 -13 -6 0 -6 8 -1 -5 -13
-30 -27 -33 -20 -64 -28 -117 -32 -72 -5 -95 -16 -50 -24 19 -4 101 14 175 37
19 7 22 4 22 -23 0 -17 5 -34 10 -37 30 -19 -18 -76 -100 -121 -56 -30 -169
-26 -242 8 -32 15 -58 25 -58 22 0 -3 25 -16 55 -30 104 -48 213 -42 300 16
67 45 69 45 63 24 -4 -15 1 -19 23 -20 16 -1 26 3 23 7 -3 5 -12 9 -20 9 -8 0
-14 5 -14 10 0 14 11 12 31 -6 10 -9 15 -23 12 -32 -4 -10 -2 -13 6 -8 15 10
41 -11 35 -28 -6 -16 26 -56 47 -59 8 -2 41 -20 73 -41 40 -26 70 -39 99 -40
22 -1 43 -8 45 -14 2 -7 8 -10 12 -7 5 3 26 -2 47 -11 59 -26 62 -25 74 19 25
91 42 135 81 215 45 92 98 152 135 152 12 0 23 4 23 9 0 4 19 5 43 1 58 -11
189 -9 204 2 7 5 17 7 22 4 5 -4 12 -2 16 4 3 5 32 10 63 10 53 1 56 2 37 16
-21 16 -24 16 235 -6 94 -8 138 -2 90 11 -24 7 -24 7 -2 8 l22 1 0 1424 0
1425 -32 4 -33 4 33 1 c59 3 33 17 -41 21 -121 7 -142 9 -147 11 -3 1 -9 1
-15 0 -5 -1 -46 -1 -90 -1 -44 0 -104 -3 -132 -8 -30 -4 -53 -4 -53 1 0 4 -21
6 -47 3 -27 -3 -75 -8 -108 -11 -33 -3 -82 -11 -110 -19 -27 -7 -66 -16 -86
-19 -20 -4 -55 -20 -77 -36 -45 -32 -143 -157 -187 -238 l-29 -53 -13 32 c-15
35 -37 34 -40 -2 -1 -13 -4 -42 -7 -64 -2 -22 -7 -125 -11 -229 -5 -173 -4
-189 12 -203 17 -13 16 -14 -7 -8 -24 6 -24 5 -6 -9 11 -9 28 -16 38 -16 28 0
125 -39 150 -61 17 -15 10 -13 -32 8 -95 46 -227 44 -378 -7 -28 -10 -62 -16
-75 -13 -17 4 -19 3 -7 -6 8 -5 11 -13 7 -18 -5 -4 -12 -1 -16 6 -5 7 -14 10
-20 7 -6 -4 -11 -5 -11 -1 0 3 19 14 43 24 46 20 80 51 56 51 -8 0 -25 3 -38
7 -18 5 -22 3 -16 -7 6 -10 4 -12 -7 -7 -9 3 -19 3 -23 -1 -7 -7 -11 -8 -38
-11 -16 -1 -102 -56 -135 -85 -20 -18 -25 -18 -33 -6 -9 13 -10 12 -6 -1 3
-10 -5 -26 -21 -40 -17 -16 -21 -17 -12 -5 14 18 14 19 -8 7 -14 -7 -21 -18
-18 -27 3 -8 1 -14 -4 -14 -6 0 -11 6 -11 13 -1 6 -2 19 -3 27 0 8 -11 15 -23
15 -11 0 -25 3 -29 7 -4 5 -15 8 -25 8 -10 0 -24 7 -33 15 -8 9 -22 12 -32 8
-12 -5 -15 -3 -9 6 4 8 2 17 -6 22 -18 11 -42 11 -35 0 9 -14 -38 1 -49 16 -6
8 -23 15 -38 17 -15 1 -35 13 -43 24 -8 12 -25 22 -38 22 -15 0 -27 9 -34 25
-6 14 -18 25 -27 25 -11 0 -15 10 -15 35 0 26 -4 35 -16 35 -27 0 -13 101 18
132 29 29 80 64 106 72 20 7 67 86 52 86 -5 0 -27 15 -49 34 l-41 35 81 40
c45 23 83 41 85 41 6 0 2 -63 -5 -75 -20 -36 -11 -52 40 -74 78 -32 87 -29 83
22 -2 23 -5 73 -7 110 l-3 68 104 62 c58 34 123 79 147 99 25 22 42 31 42 23
0 -8 -4 -12 -9 -9 -12 8 -10 -10 4 -24 9 -10 9 -16 -4 -28 -23 -24 -44 -7 -22
17 9 10 13 19 7 19 -5 0 -20 -12 -34 -27 -13 -14 -18 -23 -11 -19 8 5 12 -2
12 -23 0 -16 -4 -32 -8 -35 -5 -3 -9 -88 -10 -189 -2 -164 0 -186 16 -200 24
-22 152 -88 260 -136 90 -40 129 -50 118 -32 -7 11 -25 141 -32 223 -2 35 -6
79 -9 98 -2 19 -7 71 -9 114 -3 44 -10 84 -16 90 -5 5 -10 19 -10 31 0 12 -4
25 -9 30 -7 9 -30 156 -37 250 -7 77 -5 151 5 225 13 94 13 90 2 90 -5 0 -12
-8 -14 -17 -3 -13 -5 -11 -6 6 -1 30 -45 107 -69 120 -24 14 -9 23 20 12 20
-7 25 -6 25 7 0 10 -4 23 -10 30 -6 8 -6 12 2 12 8 0 9 6 3 18 -5 9 -12 44
-16 77 -4 33 -9 76 -11 95 -19 153 -25 224 -30 350 -4 80 -11 149 -16 154 -5
6 -9 18 -9 29 0 27 -23 15 -31 -17 -4 -15 -8 -95 -8 -178 -1 -141 -4 -192 -17
-278 -3 -19 -7 -78 -9 -130 -2 -57 -8 -96 -14 -98 -6 -2 -8 -9 -4 -15 4 -7 8
-22 8 -35 1 -19 -16 -31 -104 -75 -58 -29 -111 -59 -118 -67 -8 -10 -12 -11
-13 -3 0 9 -10 11 -32 7 -31 -6 -32 -5 -14 8 18 14 18 15 -3 21 -20 5 -21 10
-15 44 4 21 10 45 15 54 6 11 4 21 -5 28 -10 8 -14 44 -16 129 -1 64 -3 133
-6 152 -4 36 -9 123 -19 295 -3 55 -8 111 -11 125 -4 19 5 38 36 79 22 29 40
62 40 73 0 10 7 32 15 47 27 54 41 107 43 166 6 156 19 175 115 175 76 0 93
-10 101 -61 7 -47 16 -44 31 9 9 33 15 37 65 48 40 10 70 11 109 4 30 -6 56
-10 58 -10 2 0 3 7 3 15 0 8 -5 15 -12 15 -9 0 -9 3 0 12 9 9 7 14 -6 24 -10
8 -12 13 -4 14 7 0 13 17 14 48 l1 47 7 -50 7 -50 1 53 c2 42 -2 57 -18 70
-13 11 -22 37 -27 77 l-8 60 -70 12 -70 12 63 -5 c69 -6 77 1 64 51 -7 25 -15
31 -48 36 -21 3 -30 7 -20 8 17 1 18 7 13 81 -4 44 -2 80 2 80 5 0 31 21 58
48 106 101 251 151 458 157 53 1 80 6 79 14 -1 6 -2 16 -2 21 -2 7 -40 9 -118
4 -71 -4 -118 -3 -122 3 -21 30 -480 333 -567 374 -110 51 -778 264 -801 255
-8 -3 -14 -14 -14 -23 0 -22 -27 -63 -41 -63 -5 0 -9 7 -9 16 0 10 -6 14 -15
10 -8 -3 -15 -1 -15 3 0 5 6 11 13 14 27 10 -12 26 -113 47 -58 12 -121 25
-141 29 -30 6 -38 4 -48 -11z m79 -18 c13 -9 13 -10 0 -10 -8 0 -22 5 -30 10
-13 9 -13 10 0 10 8 0 22 -5 30 -10z m1360 -516 c22 -15 37 -31 33 -37 -3 -6
-1 -7 5 -3 14 8 123 -70 119 -86 -1 -6 5 -13 13 -15 13 -4 13 -3 0 6 -17 12
-10 14 14 5 14 -5 14 -9 -5 -25 -12 -10 -31 -21 -43 -25 -11 -4 -45 -22 -75
-41 -29 -19 -55 -33 -56 -31 -2 2 -22 41 -44 87 -41 85 -50 135 -31 172 14 25
23 24 70 -7z m-129 -115 c17 -27 27 -54 23 -60 -4 -7 -3 -10 2 -7 5 4 9 -41 9
-104 1 -91 -1 -106 -12 -92 -7 10 -13 28 -13 40 0 12 -7 39 -17 60 -9 22 -22
62 -29 89 -7 28 -19 71 -28 97 l-15 47 25 -11 c13 -6 38 -33 55 -59z m-809
-30 c20 -11 20 -13 -18 -35 -50 -30 -54 -30 -54 5 0 39 31 52 72 30z m918
-564 c0 -36 -3 -45 -17 -44 -11 0 -13 3 -5 6 7 2 12 22 12 44 0 21 2 39 5 39
3 0 5 -20 5 -45z m47 -76 c1 -24 0 -26 -4 -9 -3 14 -10 31 -16 39 -10 11 -9
13 3 9 9 -3 16 -18 17 -39z m-50 -41 c-2 -13 -4 -5 -4 17 -1 22 1 32 4 23 2
-10 2 -28 0 -40z m6 -48 c3 -11 1 -20 -4 -20 -5 0 -9 9 -9 20 0 11 2 20 4 20
2 0 6 -9 9 -20z m-582 -937 c1 -426 1 -415 -11 -427 -7 -7 -11 6 -12 35 -2 65
-5 125 -11 204 -5 56 -9 362 -7 487 0 23 22 58 36 58 2 0 5 -161 5 -357z m9
-508 c0 -14 -4 -25 -8 -25 -7 0 -8 31 -3 48 4 11 11 -3 11 -23z m-9 -88 c-10
-9 -11 -8 -5 6 3 10 9 15 12 12 3 -3 0 -11 -7 -18z m1884 -387 c-3 -5 -12 -10
-18 -10 -7 0 -6 4 3 10 19 12 23 12 15 0z m-1018 -372 c-3 -8 -6 -5 -6 6 -1
11 2 17 5 13 3 -3 4 -12 1 -19z m-1087 -18 c0 -5 -4 -10 -10 -10 -5 0 -10 5
-10 10 0 6 5 10 10 10 6 0 10 -4 10 -10z m-1677 -175 c34 -52 49 -93 37 -100
-5 -3 -25 25 -46 62 -20 38 -46 82 -57 98 l-21 30 31 -25 c17 -14 42 -43 56
-65z m-1105 20 c-3 -3 -9 2 -12 12 -6 14 -5 15 5 6 7 -7 10 -15 7 -18z m136
-103 c-21 -5 -21 -4 -27 53 l-6 50 24 -50 c21 -43 22 -50 9 -53z m251 74 c18
-13 18 -14 -2 -25 -17 -8 -22 -8 -27 5 -14 36 -3 44 29 20z m-125 -22 c0 -8
-4 -14 -10 -14 -5 0 -10 9 -10 21 0 11 5 17 10 14 6 -3 10 -13 10 -21z m-440
-101 c0 -38 -17 -34 -23 5 -3 20 -9 48 -12 62 -5 20 -2 17 14 -10 11 -19 20
-45 21 -57z m700 -38 c21 -38 43 -82 49 -97 9 -25 8 -27 -33 -41 l-44 -15 -5
27 c-3 16 -4 39 -1 52 4 23 4 23 -5 3 -7 -16 -16 -20 -34 -17 -56 11 -87 -38
-50 -79 15 -17 14 -18 -29 -18 -25 0 -50 -6 -55 -12 -14 -18 -22 -68 -12 -68
5 0 9 -4 9 -10 0 -5 -10 -10 -22 -10 -13 0 -18 4 -13 8 14 10 19 46 6 37 -7
-4 -11 3 -11 17 0 13 -5 29 -11 35 -14 14 -3 34 15 27 8 -3 12 -15 10 -27 -4
-21 -4 -22 6 -2 6 12 21 25 33 30 18 8 22 18 20 52 -2 41 -1 41 34 40 42 -1
68 25 53 54 -6 10 -10 46 -10 80 l0 63 31 -30 c17 -16 48 -60 69 -99z m-616
65 l7 -25 -15 25 c-9 14 -15 32 -15 40 0 13 1 13 8 0 5 -8 12 -26 15 -40z
m487 40 c2 22 17 -30 18 -62 1 -22 -4 -28 -20 -28 -37 0 -59 -19 -59 -51 0
-25 -5 -30 -30 -35 -37 -8 -48 -20 -52 -64 -2 -29 -7 -35 -28 -36 -38 -2 -42
5 -20 33 25 32 12 61 -31 70 -24 5 -29 10 -29 35 0 17 4 27 10 23 6 -3 7 1 4
9 -3 9 -2 16 2 17 5 0 21 2 37 4 15 2 27 -1 27 -6 0 -5 -4 -9 -9 -9 -19 0 -21
-34 -3 -54 11 -12 17 -27 15 -33 -11 -30 23 -11 55 31 21 27 21 31 6 53 -8 14
-13 27 -10 31 3 3 6 1 6 -5 0 -7 14 -8 38 -3 57 10 63 17 57 58 -5 28 -4 33 4
22 10 -13 11 -13 12 0z m-191 -25 c0 -8 -52 -26 -58 -20 -3 2 6 9 19 14 28 11
39 13 39 6z m-544 -113 c6 -40 8 -70 4 -65 -8 9 -40 143 -40 164 1 35 25 -33
36 -99z m410 23 c-18 -18 -11 -44 13 -47 9 0 21 -2 26 -3 6 -2 14 -3 20 -4 5
0 4 -6 -3 -13 -27 -27 -7 -78 30 -78 20 0 21 -7 12 -62 -5 -28 -12 -38 -30
-42 -14 -4 -33 -15 -44 -26 -19 -19 -20 -19 -30 0 -15 27 -13 30 18 30 34 0
52 16 52 46 0 28 -34 54 -61 47 -24 -7 -25 14 -3 38 9 10 14 25 11 34 -9 22
-26 18 -20 -5 4 -16 2 -19 -11 -14 -23 9 -22 82 2 100 24 18 37 17 18 -1z
m-467 -98 c9 -12 8 -16 -5 -21 -23 -9 -37 3 -31 26 3 11 1 32 -4 46 -5 14 -7
33 -3 41 4 11 10 0 18 -31 7 -26 18 -53 25 -61z m326 84 c3 -5 1 -12 -5 -16
-5 -3 -10 1 -10 9 0 18 6 21 15 7z m88 -39 c3 -24 1 -40 -4 -36 -5 3 -9 24 -9
46 0 51 5 47 13 -10z m-320 -15 c-8 -12 -23 14 -22 38 0 18 1 17 13 -5 8 -14
12 -29 9 -33z m240 6 c3 -5 -16 -9 -42 -9 -32 -1 -40 1 -26 7 26 10 63 11 68
2z m36 -35 c0 -33 -2 -38 -9 -23 -12 28 -12 65 0 65 6 0 10 -19 9 -42z m1241
6 c0 -8 -4 -12 -10 -9 -5 3 -10 10 -10 16 0 5 5 9 10 9 6 0 10 -7 10 -16z
m-1433 -16 c-3 -8 -6 -5 -6 6 -1 11 2 17 5 13 3 -3 4 -12 1 -19z m173 -24 c0
-8 -8 -14 -18 -14 -43 0 -59 -63 -19 -76 12 -5 26 -7 31 -5 18 5 25 -24 9 -41
-12 -13 -13 -23 -5 -45 9 -28 9 -28 -29 -26 -22 1 -39 -2 -39 -7 0 -5 -9 -12
-20 -15 -13 -4 -23 -19 -27 -36 -3 -16 -15 -34 -27 -40 -19 -9 -19 -9 -3 4 20
16 23 67 5 85 -7 7 -25 12 -40 12 -31 0 -36 11 -13 30 12 10 13 16 3 28 -11
13 -11 14 0 8 10 -6 13 -3 10 10 -2 10 -14 21 -28 24 -20 5 -25 12 -25 37 0
17 -3 35 -7 39 -13 13 -9 24 7 18 8 -3 28 -1 45 4 34 12 41 -1 10 -18 -27 -14
-25 -46 3 -61 12 -7 24 -15 27 -20 6 -9 45 22 52 41 3 8 1 25 -3 38 -7 18 -5
22 14 23 12 1 27 1 33 0 6 -1 17 5 24 14 14 17 30 11 30 -11z m-350 -4 c0 -5
-5 -10 -11 -10 -5 0 -7 5 -4 10 3 6 8 10 11 10 2 0 4 -4 4 -10z m990 -11 c0
-5 -11 -9 -25 -9 -14 0 -28 -7 -31 -15 -4 -10 -20 -15 -44 -15 -22 0 -45 -7
-54 -16 -15 -14 -16 -14 -16 5 0 17 6 21 36 21 20 0 33 4 29 10 -3 5 0 7 8 4
8 -3 21 1 29 9 24 25 68 29 68 6z m-554 -16 c-3 -8 -6 -32 -6 -52 0 -35 -2
-38 -25 -33 -21 4 -24 8 -19 26 4 11 7 30 6 41 -1 10 4 25 9 31 14 17 42 6 35
-13z m-579 -8 c0 -8 -4 -12 -9 -9 -10 7 -10 24 0 24 5 0 9 -7 9 -15z m159 -4
c-15 -16 -15 -19 -1 -31 23 -19 18 -28 -15 -26 -30 1 -40 19 -19 32 8 4 7 9
-2 15 -10 6 -8 9 8 9 12 0 25 5 28 10 3 6 9 10 12 10 3 0 -1 -8 -11 -19z
m4455 -18 c13 -16 12 -17 -3 -4 -17 13 -22 21 -14 21 2 0 10 -8 17 -17z m-673
-42 c-29 -27 -55 -47 -58 -44 -5 5 91 92 103 93 4 0 -16 -22 -45 -49z m564 33
c79 -22 67 -28 -16 -9 -66 15 -150 11 -236 -11 -15 -4 -22 -3 -17 2 5 5 12 9
15 10 4 0 14 3 22 7 52 21 159 21 232 1z m-4525 -19 c-7 -14 -16 -25 -20 -25
-5 0 -6 3 -4 8 2 4 7 15 10 25 4 9 11 17 16 17 5 0 4 -11 -2 -25z m4033 16 c0
-5 -7 -12 -16 -15 -14 -5 -15 -4 -4 9 14 17 20 19 20 6z m-3985 -32 c4 -6 13
-8 21 -5 8 3 15 2 15 -2 1 -4 3 -16 4 -27 2 -11 8 -33 14 -48 l11 -29 19 24
c23 28 39 17 22 -16 -7 -12 -11 -34 -9 -47 2 -20 10 -25 41 -27 22 -2 37 1 37
8 0 6 4 9 9 6 15 -10 22 24 9 47 -7 12 -12 25 -11 28 1 3 -9 4 -23 1 -23 -4
-24 -2 -18 24 4 16 9 32 11 37 7 12 23 -3 23 -22 0 -11 12 -24 30 -31 26 -11
30 -17 28 -51 -1 -40 -19 -66 -38 -54 -5 3 -10 3 -10 -2 0 -4 -13 -14 -30 -21
-16 -8 -30 -21 -30 -30 0 -12 -4 -10 -13 7 -18 36 -41 47 -74 35 -21 -7 -29
-17 -31 -39 -4 -30 -16 -45 -40 -45 -10 0 -10 5 -2 20 6 11 8 36 4 55 -6 33
-5 35 23 35 32 0 73 25 73 44 0 7 -9 21 -21 31 -17 16 -25 17 -50 8 -26 -10
-29 -9 -29 8 0 11 4 18 9 14 5 -3 17 5 26 17 15 22 14 24 -6 41 -12 9 -16 17
-11 17 6 0 14 -5 17 -11z m3925 -24 c-13 -14 -28 -25 -33 -25 -6 0 2 11 17 25
15 14 30 25 33 25 4 0 -4 -11 -17 -25z m-3150 0 c0 -8 -4 -15 -10 -15 -5 0 -7
7 -4 15 4 8 8 15 10 15 2 0 4 -7 4 -15z m2917 -27 c-3 -8 -6 -5 -6 6 -1 11 2
17 5 13 3 -3 4 -12 1 -19z m-2543 -13 c-19 -15 -19 -15 1 -10 17 5 17 4 -2 -6
-12 -6 -30 -8 -40 -5 -16 7 -15 9 7 21 35 20 60 20 34 0z m2725 0 c-2 -2 -17
-20 -34 -40 -68 -83 -86 -100 -48 -45 49 71 65 90 77 90 5 0 7 -2 5 -5z
m-2789 -22 c0 -5 -16 -8 -35 -9 -22 0 -31 3 -23 8 16 10 58 10 58 1z m-560
-27 c0 -2 -7 -6 -15 -10 -8 -3 -15 -1 -15 4 0 6 7 10 15 10 8 0 15 -2 15 -4z
m660 -25 c0 -9 4 -21 9 -26 15 -17 40 -187 25 -172 -4 4 -15 -3 -25 -14 -19
-22 -44 -17 -35 6 2 7 -4 21 -15 31 -15 13 -19 26 -15 45 6 31 -24 65 -48 56
-9 -4 -18 -2 -21 3 -3 5 4 11 15 15 13 4 23 18 27 36 4 20 10 28 19 25 8 -3
14 -1 14 4 0 9 31 19 43 13 4 -2 7 -12 7 -22z m-330 -31 c0 -5 -10 -10 -23
-10 -12 0 -33 -7 -45 -16 -12 -8 -22 -12 -22 -7 0 11 51 41 73 42 9 1 17 -3
17 -9z m2845 0 c3 -5 2 -10 -4 -10 -5 0 -13 5 -16 10 -3 6 -2 10 4 10 5 0 13
-4 16 -10z m-2685 -28 c17 -20 25 -40 25 -67 0 -33 4 -40 25 -46 l25 -7 -25
-2 c-20 -1 -22 -3 -7 -8 16 -7 16 -9 -4 -31 -16 -17 -18 -26 -10 -34 6 -6 11
-20 10 -31 0 -15 -2 -17 -6 -6 -4 8 -13 20 -22 26 -13 10 -13 14 -2 28 16 19
21 58 9 67 -5 3 -12 25 -16 50 -10 58 -39 75 -88 51 -29 -14 -33 -21 -28 -42
11 -48 42 -63 84 -40 13 7 19 6 24 -5 7 -19 -1 -23 -47 -21 -27 1 -34 -2 -24
-8 12 -7 13 -15 4 -33 -13 -28 8 -57 35 -49 16 4 17 2 7 -10 -6 -8 -18 -14
-25 -14 -17 0 -44 51 -44 83 0 30 -23 51 -50 44 -23 -6 -22 9 3 35 20 21 22
41 6 69 -9 18 -8 19 10 7 16 -10 26 -9 53 4 45 23 50 22 78 -10z m-726 -11 c4
-5 -3 -7 -14 -4 -23 6 -26 13 -6 13 8 0 17 -4 20 -9z m4303 -13 c-3 -8 -6 -5
-6 6 -1 11 2 17 5 13 3 -3 4 -12 1 -19z m-3946 -25 c10 -11 10 -14 2 -9 -7 4
-13 3 -13 -3 0 -5 5 -13 11 -16 14 -9 59 -14 59 -6 0 3 13 12 29 19 26 11 32
11 50 -4 11 -10 18 -21 15 -25 -2 -4 4 -10 15 -14 16 -5 18 -10 8 -35 -8 -22
-8 -32 2 -44 15 -18 47 -21 56 -6 9 14 22 12 28 -4 4 -9 0 -12 -12 -9 -11 3
-21 -2 -24 -11 -4 -9 -13 -16 -22 -16 -8 0 -15 -9 -15 -21 0 -11 -4 -18 -10
-14 -5 3 -7 12 -4 19 8 20 -23 46 -54 46 l-27 0 21 18 c30 24 38 56 19 76 -41
41 -111 -7 -87 -59 7 -14 16 -25 22 -25 5 0 10 -11 10 -25 0 -32 -6 -31 -36 5
-16 19 -31 27 -42 24 -13 -5 -14 -4 -4 4 8 5 13 12 13 16 0 3 2 12 5 20 10 25
0 48 -27 68 -25 19 -28 19 -57 4 -36 -19 -46 -20 -36 -5 3 6 25 19 48 29 22
10 42 19 42 19 1 1 8 -7 15 -16z m-571 -57 c-7 -7 -14 -6 -21 1 -9 9 -7 12 9
10 14 -1 18 -5 12 -11z m350 -26 c0 -5 -8 -10 -18 -10 -10 0 -23 -5 -30 -12
-7 -7 -12 -8 -12 -4 0 12 32 35 48 36 6 0 12 -4 12 -10z m93 -37 c5 -3 -2 -10
-14 -17 -13 -6 -29 -22 -36 -36 l-12 -24 -7 30 c-3 16 -12 34 -19 39 -9 7 1
11 34 12 25 1 49 -1 54 -4z m-304 -112 l11 -26 -21 28 c-23 30 -54 35 -87 11
-12 -8 -22 -11 -22 -6 0 4 15 15 33 24 39 19 70 8 86 -31z m460 -8 c-7 -10
-14 -20 -16 -22 -1 -1 -7 0 -14 4 -8 6 -4 12 12 21 32 18 34 17 18 -3z m50
-27 c-3 -3 -11 5 -18 17 -13 21 -12 21 5 5 10 -10 16 -20 13 -22z m151 20 c0
-11 -19 -15 -25 -6 -3 5 1 10 9 10 9 0 16 -2 16 -4z m-637 -45 c4 -18 14 -31
29 -35 22 -7 22 -7 3 -16 -17 -7 -17 -9 -3 -9 15 -1 16 -5 6 -25 -6 -14 -8
-32 -5 -40 8 -20 46 -21 53 -1 4 8 11 15 17 15 6 0 0 -11 -13 -25 -13 -14 -29
-25 -37 -25 -18 0 -42 40 -47 77 -4 42 -13 53 -43 53 l-27 0 22 20 c12 12 22
25 22 30 0 22 18 8 23 -19z m-121 -8 c10 -11 18 -26 18 -32 0 -6 7 -8 16 -4
14 5 15 3 4 -16 -18 -34 -5 -71 25 -71 13 0 27 5 30 10 9 15 22 12 29 -6 5
-12 1 -14 -15 -9 -14 5 -19 3 -15 -3 10 -17 -12 -24 -35 -12 -20 11 -20 11 -4
-14 10 -14 13 -26 7 -26 -5 0 -13 -7 -16 -16 -5 -12 -2 -15 9 -10 10 4 14 2 9
-5 -4 -8 1 -9 16 -4 15 5 20 4 16 -4 -9 -14 -29 -14 -60 0 -23 11 -24 13 -9
35 21 32 2 56 -40 52 -35 -3 -48 17 -18 27 34 10 45 42 26 71 -19 29 -55 31
-79 5 -18 -20 -46 -18 -46 3 0 7 -11 19 -25 26 -35 19 -24 24 22 10 33 -10 45
-10 69 3 36 19 44 18 66 -10z m3462 18 c4 -5 -3 -7 -14 -4 -23 6 -26 13 -6 13
8 0 17 -4 20 -9z m-2466 -52 c-3 -8 -7 -3 -11 10 -4 17 -3 21 5 13 5 -5 8 -16
6 -23z m-78 -48 c0 -3 -9 7 -19 23 -11 17 -17 34 -14 39 5 8 33 -44 33 -62z
m49 29 c0 -10 -3 -8 -9 5 -12 27 -12 43 0 25 5 -8 9 -22 9 -30z m3947 16 c0
-13 -3 -23 -5 -20 -2 2 -10 -8 -18 -23 -7 -14 -11 -28 -8 -31 5 -5 -42 -52
-52 -52 -4 0 3 10 15 23 37 39 23 53 -16 17 -12 -12 -23 -16 -27 -10 -3 6 -11
10 -16 10 -6 0 -7 -5 -4 -11 4 -6 -2 -5 -13 2 l-21 13 22 15 c12 8 27 22 34
31 7 8 13 11 13 6 0 -5 10 -1 22 10 l22 19 -16 -25 c-9 -14 -22 -24 -29 -22
-10 2 -9 0 1 -13 17 -20 35 -5 50 41 7 19 15 32 20 29 5 -3 11 -1 15 5 10 16
13 12 11 -14z m-528 -38 c11 15 12 15 7 -5 -6 -22 -5 -22 22 -8 20 11 29 11
34 3 6 -9 11 -9 21 0 7 6 38 14 68 17 40 5 51 4 40 -4 -8 -6 -33 -11 -56 -11
-29 0 -47 -6 -62 -22 -12 -13 -33 -34 -46 -47 -18 -18 -27 -39 -31 -80 -9 -76
-13 -85 -15 -31 -2 42 -3 43 -11 15 -6 -25 -7 -21 -6 22 1 28 0 49 -2 47 -9
-9 -30 72 -24 91 6 17 8 16 14 -10 6 -27 7 -26 9 15 2 44 2 44 14 18 11 -25
13 -26 24 -10z m-4502 3 c-3 -5 1 -15 10 -22 15 -12 44 -61 44 -74 0 -4 -14 8
-31 25 -27 26 -37 30 -63 25 l-31 -7 30 30 c29 28 52 42 41 23z m4816 -18 c-6
-3 -9 -10 -5 -16 5 -9 3 -9 -8 -1 -14 11 -41 11 -106 -1 -17 -3 -34 -1 -38 5
-6 9 27 15 68 11 9 -1 17 2 17 6 0 5 19 7 43 4 23 -2 36 -6 29 -8z m-448 -60
c-10 -43 -17 -48 -26 -23 -6 17 -4 26 9 36 24 18 24 18 17 -13z m36 20 c-1
-13 -29 -59 -30 -48 0 21 13 55 21 55 5 0 9 -3 9 -7z m468 -32 c11 -7 10 -9
-3 -14 -9 -4 -14 -3 -10 2 3 5 -1 12 -7 14 -7 3 -8 6 -3 6 6 0 16 -3 23 -8z
m-564 -23 c-1 -13 -3 -27 -3 -32 -1 -6 -8 -1 -16 10 -12 17 -12 20 2 32 21 15
20 16 17 -10z m-4258 -20 c14 -28 15 -31 2 -20 -14 11 -31 52 -22 52 2 0 11
-15 20 -32z m3499 23 c3 -6 -3 -9 -14 -8 -11 0 -17 5 -15 9 7 11 22 10 29 -1z
m-3535 -26 c0 -10 -10 -15 -27 -15 l-28 0 25 14 c14 8 26 14 28 15 1 1 2 -6 2
-14z m265 -2 c5 -14 3 -15 -6 -6 -6 6 -18 9 -27 6 -10 -4 -13 -2 -8 5 11 18
33 14 41 -5z m-334 -47 c-7 -8 -10 -20 -6 -26 3 -5 2 -10 -4 -10 -6 0 -10 17
-8 40 2 34 4 37 16 25 12 -11 12 -17 2 -29z m157 30 c-7 -8 -15 -12 -17 -11
-5 6 10 25 20 25 5 0 4 -6 -3 -14z m327 -69 c13 -66 40 -79 31 -16 l-6 44 13
-34 c7 -19 22 -37 32 -41 17 -6 16 -7 -6 -13 -13 -4 -36 -7 -50 -7 -23 0 -27
5 -38 58 -7 31 -15 66 -18 77 -6 19 -5 19 13 0 11 -10 24 -41 29 -68z m-50
-16 c9 -29 14 -55 12 -57 -2 -3 -12 22 -22 53 -30 95 -28 90 -16 73 6 -8 18
-39 26 -69z m3901 72 c-10 -11 -36 -12 -36 -2 0 5 10 9 22 9 12 0 18 -3 14 -7z
m-4086 -13 c0 -5 -2 -10 -4 -10 -3 0 -8 5 -11 10 -3 6 -1 10 4 10 6 0 11 -4
11 -10z m134 -58 c14 -35 20 -62 14 -60 -11 4 -46 89 -47 117 -1 22 5 11 33
-57z m-364 20 c0 -15 -2 -15 -10 -2 -13 20 -13 33 0 25 6 -3 10 -14 10 -23z
m260 24 c0 -2 -7 -7 -16 -10 -8 -3 -12 -2 -9 4 6 10 25 14 25 6z m3397 -38
c-3 -8 -6 -5 -6 6 -1 11 2 17 5 13 3 -3 4 -12 1 -19z m-3555 -10 c-7 -7 -12
-8 -12 -2 0 14 12 26 19 19 2 -3 -1 -11 -7 -17z m187 -20 c14 -41 14 -48 -4
-48 -13 0 -18 11 -29 72 -6 29 22 9 33 -24z m-54 -5 c9 -20 14 -41 11 -47 -3
-11 -15 13 -30 62 -12 36 2 25 19 -15z m104 -33 c0 -8 -6 0 -14 19 -8 18 -15
38 -14 45 1 15 28 -46 28 -64z m-155 5 c4 -19 3 -25 -3 -15 -4 8 -11 29 -15
45 -4 19 -3 25 3 15 4 -8 11 -28 15 -45z m-34 -29 c0 -18 -38 -3 -44 17 -11
43 -6 48 19 19 14 -17 25 -33 25 -36z m4741 -19 c-10 -9 -11 -8 -5 6 3 10 9
15 12 12 3 -3 0 -11 -7 -18z m-3081 -73 c0 -8 -4 -12 -10 -9 -5 3 -10 10 -10
16 0 5 5 9 10 9 6 0 10 -7 10 -16z m-80 -24 c0 -16 -2 -30 -4 -30 -2 0 -6 14
-8 30 -3 17 -1 30 4 30 4 0 8 -13 8 -30z m-80 -32 c0 -28 -2 -49 -4 -47 -8 9
-13 99 -5 99 5 0 9 -23 9 -52z m-78 -20 c3 -35 2 -72 -2 -83 -5 -12 -9 11 -11
63 -5 96 6 112 13 20z m-78 -65 c4 -65 9 -140 12 -166 4 -37 2 -48 -8 -45 -9
3 -14 32 -15 99 -1 52 -4 124 -6 162 -2 37 -1 67 3 67 5 0 11 -53 14 -117z
m-81 25 c10 -120 8 -188 -3 -188 -5 0 -10 17 -10 38 0 20 -3 81 -7 135 -4 62
-2 97 4 97 6 0 13 -37 16 -82z m3272 53 c-3 -6 -11 -11 -17 -11 -6 0 -6 6 2
15 14 17 26 13 15 -4z m-115 -45 c-38 -57 -50 -64 -50 -32 0 14 5 27 10 27 6
1 16 2 23 3 6 0 12 7 12 14 0 10 21 31 33 32 2 0 -11 -20 -28 -44z m140 40 c0
-2 -8 -10 -17 -17 -16 -13 -17 -12 -4 4 13 16 21 21 21 13z m-52 -36 c-7 -10
-14 -18 -15 -16 -6 6 9 36 18 36 5 0 4 -9 -3 -20z m-1281 4 c-3 -3 -12 -4 -19
-1 -8 3 -5 6 6 6 11 1 17 -2 13 -5z m58 -14 c13 -5 14 -9 5 -9 -8 0 -24 4 -35
9 -13 5 -14 9 -5 9 8 0 24 -4 35 -9z m-2685 -39 c0 -83 -26 -98 -29 -16 -1 43
2 55 14 55 11 0 15 -11 15 -39z m3901 6 l-24 -22 19 27 c10 14 21 24 23 22 3
-3 -6 -15 -18 -27z m-4072 -69 c-1 -46 -4 -94 -8 -108 -6 -21 -8 -18 -14 24
-13 89 -9 166 8 166 12 0 15 -15 14 -82z m-85 18 c3 -30 1 -67 -5 -85 -8 -22
-8 -40 0 -63 9 -26 8 -35 -3 -46 -12 -13 -14 0 -15 94 -1 60 -3 119 -5 132 -3
14 0 22 8 22 9 0 16 -19 20 -54z m-85 -48 c-1 -51 -4 -81 -6 -65 -2 15 -9 27
-14 27 -5 0 -9 29 -9 65 0 51 3 65 15 65 12 0 15 -16 14 -92z m-92 0 c-2 -18
-4 -6 -4 27 0 33 2 48 4 33 2 -15 2 -42 0 -60z m-160 -10 c-2 -18 -4 -6 -4 27
0 33 2 48 4 33 2 -15 2 -42 0 -60z m50 15 c-2 -16 -4 -5 -4 22 0 28 2 40 4 28
2 -13 2 -35 0 -50z m4414 44 c-10 -9 -11 -8 -5 6 3 10 9 15 12 12 3 -3 0 -11
-7 -18z m-4524 -39 c-2 -13 -4 -5 -4 17 -1 22 1 32 4 23 2 -10 2 -28 0 -40z
m-48 15 c0 -25 -1 -26 -9 -8 -12 27 -12 35 0 35 6 0 10 -12 9 -27z m-62 -20
c-3 -10 -5 -4 -5 12 0 17 2 24 5 18 2 -7 2 -21 0 -30z m280 5 c-3 -7 -5 -2 -5
12 0 14 2 19 5 13 2 -7 2 -19 0 -25z m1322 -132 c1 -42 -1 -47 -14 -36 -11 9
-15 33 -15 85 0 39 3 75 8 79 8 9 20 -60 21 -128z m70 117 c0 -10 3 -65 7
-123 6 -97 5 -103 -10 -85 -21 28 -22 225 -1 225 2 0 4 -8 4 -17z m95 -189 c6
-68 5 -81 -8 -81 -8 0 -13 4 -10 8 2 4 0 10 -6 14 -11 7 -14 206 -3 245 8 26
12 0 27 -186z m2786 176 c-6 -11 -13 -20 -16 -20 -2 0 0 9 6 20 6 11 13 20 16
20 2 0 0 -9 -6 -20z m-2712 -128 c17 -197 18 -186 -18 -167 -16 9 -30 18 -30
21 0 3 5 2 10 -1 6 -4 10 45 10 139 0 80 4 146 8 146 5 0 14 -62 20 -138z
m2736 111 c-4 -16 -11 -36 -16 -47 -8 -15 -12 -16 -19 -5 -5 8 -9 19 -9 24 0
6 4 4 9 -4 6 -10 12 -4 21 23 14 42 23 48 14 9z m71 -64 c-2 -12 3 -31 12 -43
11 -15 14 -16 10 -4 -4 10 -2 20 3 23 6 4 10 11 10 16 0 6 -5 7 -12 3 -7 -4
-8 -3 -4 5 12 19 26 1 21 -27 -3 -15 -2 -21 1 -14 3 6 14 12 25 12 11 0 23 10
28 22 8 21 8 21 13 -5 3 -15 2 -27 -2 -27 -4 0 -10 -9 -13 -20 -3 -11 -10 -20
-16 -20 -6 0 -7 8 -4 17 6 15 5 16 -9 3 -25 -23 6 -36 38 -16 13 9 36 24 51
34 l28 17 -23 -30 c-13 -16 -29 -30 -35 -30 -7 0 -12 -10 -12 -22 0 -12 -8
-31 -17 -42 -9 -11 -14 -22 -11 -25 4 -3 -2 -6 -13 -6 -11 0 -29 -15 -42 -35
-12 -19 -27 -35 -33 -35 -5 0 -7 -5 -4 -10 3 -6 0 -13 -9 -16 -9 -3 -12 -12
-9 -22 4 -9 3 -14 -2 -10 -4 4 -14 0 -21 -10 -8 -9 -14 -12 -14 -5 0 6 5 15
10 18 6 3 10 11 10 17 0 6 -8 4 -19 -6 -10 -9 -25 -14 -34 -10 -10 4 -19 0
-23 -9 -3 -9 -23 -18 -45 -22 -21 -4 -43 -14 -49 -23 -8 -14 -11 -15 -19 -3
-7 11 -15 8 -37 -15 -24 -23 -30 -25 -32 -12 -3 17 16 51 50 92 10 12 48 57
85 101 38 44 81 97 97 118 16 20 31 37 35 37 3 0 15 -17 27 -38 22 -38 22 -62
1 -62 -7 0 -18 -9 -25 -21 -12 -18 -11 -19 5 -10 10 5 28 19 41 31 l22 21 -20
22 c-11 12 -18 27 -15 35 2 7 0 10 -5 7 -6 -3 -10 -3 -11 2 0 4 -2 17 -4 28
-2 10 1 25 7 32 15 18 17 16 13 -8z m-298 -44 c-21 -19 -40 -35 -42 -35 -2 0
0 12 4 28 4 15 16 28 27 30 10 2 23 8 28 13 5 5 12 6 15 3 3 -3 -12 -20 -32
-39z m-4002 -122 c-2 -7 -9 -13 -15 -13 -12 0 -13 56 -3 126 l7 49 8 -75 c4
-41 5 -81 3 -87z m71 48 c-15 -14 -16 -10 -16 40 0 72 13 84 23 23 6 -37 5
-51 -7 -63z m3837 94 c-3 -9 -8 -14 -10 -11 -3 3 -2 9 2 15 9 16 15 13 8 -4z
m1004 -32 c12 2 20 0 17 -4 -3 -5 1 -9 9 -9 19 0 97 -41 97 -51 0 -4 -26 -10
-57 -14 -32 -4 -69 -10 -83 -15 -23 -8 -93 -20 -145 -26 -11 -1 -49 -10 -85
-19 -51 -14 -73 -16 -105 -7 -24 6 -46 7 -55 2 -12 -8 -11 -9 7 -10 31 0 54
-11 47 -21 -3 -5 -9 -7 -14 -4 -4 3 -30 -4 -56 -15 -37 -16 -49 -18 -56 -8 -6
10 -8 9 -8 -4 0 -19 -26 -15 -33 5 -2 7 -2 2 0 -10 2 -13 -1 -23 -7 -23 -5 0
-10 14 -10 30 0 17 4 30 9 30 5 0 11 8 14 19 3 14 11 17 31 14 14 -3 23 -9 20
-14 -3 -5 9 -1 25 9 27 15 29 18 14 32 -12 11 -17 12 -20 3 -3 -7 -16 -13 -29
-13 -24 0 -24 1 -10 29 9 16 12 32 8 35 -3 4 1 4 11 0 10 -3 17 -1 17 5 0 6
-5 11 -12 11 -6 0 1 14 17 30 16 17 34 30 39 30 6 0 -2 -11 -19 -24 -23 -18
-27 -27 -19 -36 9 -9 19 -3 39 25 16 20 34 34 40 31 7 -2 18 1 25 7 10 9 11 9
6 0 -9 -16 16 -17 32 -1 8 8 15 8 27 -2 12 -10 15 -10 15 0 0 8 8 10 24 6 15
-4 26 -1 29 7 4 9 8 9 15 -2 6 -8 17 -11 25 -8 9 3 21 0 27 -8 6 -8 18 -11 26
-8 11 4 12 9 5 16 -23 23 -9 23 37 0 26 -13 57 -22 69 -20z m-1327 34 c0 -2
-12 -14 -27 -28 l-28 -24 24 28 c23 25 31 32 31 24z m351 -21 c6 3 8 -5 5 -19
-4 -21 -1 -25 15 -22 10 2 19 -1 19 -6 0 -6 5 -7 10 -4 6 4 8 11 5 16 -4 5 -1
9 4 9 6 0 11 -4 11 -9 0 -13 -26 -32 -33 -24 -8 7 -47 -26 -47 -40 0 -6 9 -2
20 8 42 38 18 7 -31 -40 -29 -28 -49 -44 -45 -37 4 6 2 12 -3 12 -6 0 -11 -4
-11 -8 0 -11 -122 -132 -132 -132 -5 0 -6 6 -2 13 6 8 3 8 -9 -1 -9 -8 -15
-19 -14 -25 1 -5 -16 -21 -38 -34 -22 -12 -38 -29 -37 -35 2 -7 1 -10 -3 -6
-4 4 -14 0 -22 -8 -8 -8 -18 -12 -23 -9 -4 3 -15 -7 -25 -21 -9 -14 -19 -23
-22 -21 -3 3 10 24 28 46 18 23 34 39 36 37 5 -4 44 36 78 80 11 14 25 31 30
38 6 6 15 19 20 28 39 62 156 219 151 203 -7 -25 -16 -138 -10 -133 2 3 8 28
14 57 5 29 17 59 25 67 8 9 15 21 16 27 0 8 2 8 6 -1 2 -6 9 -9 14 -6z m222 3
c-6 -6 -9 -17 -6 -25 2 -7 -5 -19 -16 -26 -12 -7 -21 -18 -21 -24 0 -6 -7 -17
-15 -24 -9 -7 -14 -19 -11 -26 3 -7 -4 -23 -14 -36 -11 -13 -19 -18 -20 -12 0
6 7 17 15 24 8 7 12 17 9 22 -10 15 5 60 18 52 7 -4 8 -3 4 5 -4 6 -2 19 5 27
9 10 14 12 19 4 4 -7 10 2 13 19 4 17 12 31 19 31 9 0 9 -3 1 -11z m-4318
-165 c6 -78 5 -92 -9 -97 -14 -6 -16 9 -15 131 1 148 11 134 24 -34z m46 -47
c-8 -8 -11 22 -10 99 l2 109 9 -99 c6 -68 6 -102 -1 -109z m58 66 c1 -18 -3
-33 -9 -33 -6 0 -9 35 -9 88 2 84 2 85 9 32 5 -30 8 -70 9 -87z m5096 127 c-3
-5 -12 -10 -18 -10 -7 0 -6 4 3 10 19 12 23 12 15 0z m75 -1 c0 -5 14 -15 31
-21 16 -6 28 -13 25 -15 -3 -3 -22 3 -43 14 -21 11 -43 18 -50 16 -6 -2 -13 0
-16 4 -3 4 8 9 24 10 16 1 29 -2 29 -8z m-5391 -211 c1 -66 -3 -108 -9 -108
-6 0 -9 60 -9 163 2 182 16 138 18 -55z m-51 -87 c-2 -26 -9 -46 -16 -49 -13
-4 -13 45 -1 298 1 25 6 -11 11 -80 4 -69 7 -145 6 -169z m4542 285 c0 -2 -8
-10 -17 -17 -16 -13 -17 -12 -4 4 13 16 21 21 21 13z m-4448 -266 c-13 -13
-14 -4 -8 79 3 52 7 115 8 140 1 25 4 -10 8 -79 6 -103 4 -128 -8 -140z m5307
234 c13 -12 -8 -10 -29 2 l-25 15 25 -7 c14 -3 27 -8 29 -10z m-723 -123 c-9
-10 -16 -22 -15 -27 4 -21 -2 -44 -10 -44 -10 0 -8 34 5 65 11 28 28 45 33 33
1 -5 -4 -17 -13 -27z m-313 -46 c-3 -9 -8 -14 -10 -11 -3 3 -2 9 2 15 9 16 15
13 8 -4z m407 -25 c0 -5 -5 -10 -11 -10 -5 0 -7 5 -4 10 3 6 8 10 11 10 2 0 4
-4 4 -10z m68 -2 c-7 -4 -21 -8 -30 -8 -20 0 -25 -20 -5 -21 10 0 10 -2 0 -6
-7 -2 -14 -17 -14 -31 -1 -19 -4 -16 -8 13 -9 54 -6 60 34 61 22 0 31 -3 23
-8z m-318 -49 c-14 -26 -18 -24 -12 6 2 14 8 22 13 19 5 -3 5 -14 -1 -25z
m250 11 c0 -10 -7 -21 -16 -24 -21 -8 -24 -8 -24 4 0 6 8 10 18 10 14 0 15 2
2 9 -8 6 -18 7 -24 4 -5 -3 -6 -2 -3 3 11 18 47 14 47 -6z m-920 -7 c-1 -5
-17 -26 -37 -48 -24 -27 -32 -32 -23 -15 12 23 49 70 57 70 2 0 3 -3 3 -7z
m1096 -35 c-10 -6 -22 -6 -26 -2 -5 5 3 10 18 11 22 1 24 0 8 -9z m-540 -34
c7 3 16 1 19 -5 4 -5 3 -8 -2 -7 -11 3 -73 -20 -73 -27 0 -4 10 -4 23 0 19 5
20 4 4 -5 -19 -12 -41 -4 -31 11 3 6 -4 7 -20 3 -21 -5 -25 -3 -20 10 4 12 16
15 40 13 19 -3 31 0 28 5 -3 5 -12 7 -20 4 -8 -3 -14 -3 -14 0 0 2 10 8 23 13
16 6 23 5 25 -6 2 -8 10 -12 18 -9z m-2399 -34 c-14 -16 -31 -46 -38 -67 -6
-21 -18 -47 -25 -58 -19 -27 -17 -69 4 -95 16 -20 19 -21 31 -6 14 17 41 22
41 8 0 -14 69 -7 155 16 44 11 107 23 141 27 76 8 209 -10 296 -40 36 -13 69
-21 72 -17 3 3 6 -7 6 -22 0 -24 -8 -31 -67 -57 -231 -104 -522 -82 -664 49
-46 43 -51 51 -56 104 -5 47 -2 62 17 93 19 31 92 95 107 95 3 0 -6 -13 -20
-30z m1753 10 c0 -5 -4 -10 -10 -10 -5 0 -10 5 -10 10 0 6 5 10 10 10 6 0 10
-4 10 -10z m-15 -20 c3 -5 -1 -10 -10 -10 -9 0 -13 -4 -10 -10 7 -11 -8 -14
-18 -3 -8 7 11 33 24 33 4 0 11 -4 14 -10z m562 -25 c-15 -14 -33 -25 -38 -25
-6 0 3 11 18 25 15 13 33 24 38 24 6 0 -3 -11 -18 -24z m-652 -62 c-27 -24
-62 -51 -77 -59 -25 -13 -28 -13 -28 1 0 8 7 15 16 15 8 0 13 4 9 10 -7 12 38
42 56 37 8 -2 10 -2 6 1 -5 2 4 17 19 33 20 21 31 26 38 18 8 -8 -3 -24 -39
-56z m515 -4 c0 -5 -7 -9 -15 -9 -15 0 -20 12 -9 23 8 8 24 -1 24 -14z m-12
-30 c-2 -6 -8 -10 -13 -10 -5 0 -11 4 -13 10 -2 6 4 11 13 11 9 0 15 -5 13
-11z m27 -48 c-9 -16 -25 -3 -18 15 4 10 9 12 15 6 6 -6 7 -15 3 -21z"/>
<path d="M170 3120 c0 -5 5 -10 11 -10 5 0 7 5 4 10 -3 6 -8 10 -11 10 -2 0
-4 -4 -4 -10z"/>
<path d="M415 2960 c-39 -44 32 -104 75 -65 25 23 25 47 2 68 -25 23 -55 21
-77 -3z"/>
<path d="M4587 1823 c-4 -3 -7 -11 -7 -17 0 -6 5 -5 12 2 6 6 9 14 7 17 -3 3
-9 2 -12 -2z"/>
<path d="M4635 1530 c-3 -5 -1 -10 4 -10 6 0 11 5 11 10 0 6 -2 10 -4 10 -3 0
-8 -4 -11 -10z"/>
<path d="M4600 1395 c-11 -13 -10 -14 4 -9 9 3 16 10 16 15 0 13 -6 11 -20 -6z"/>
<path d="M5090 1545 c0 -8 5 -15 10 -15 6 0 10 7 10 15 0 8 -4 15 -10 15 -5 0
-10 -7 -10 -15z"/>
<path d="M4923 1529 c-2 -24 9 -24 23 -1 9 14 8 18 -5 19 -10 1 -17 -6 -18
-18z"/>
<path d="M5280 1521 c0 -8 -6 -11 -17 -7 -16 5 -16 5 -2 -6 9 -7 18 -18 20
-25 2 -7 9 -9 15 -5 7 5 6 15 -3 32 -7 14 -13 19 -13 11z"/>
<path d="M5320 1509 c0 -5 5 -7 10 -4 6 3 10 8 10 11 0 2 -4 4 -10 4 -5 0 -10
-5 -10 -11z"/>
<path d="M4900 1479 c0 -5 5 -7 10 -4 6 3 10 8 10 11 0 2 -4 4 -10 4 -5 0 -10
-5 -10 -11z"/>
<path d="M4292 1443 c-7 -2 -17 -14 -23 -26 -11 -21 -10 -20 15 2 14 14 26 26
26 28 0 3 0 3 -18 -4z"/>
<path d="M3967 1183 c-4 -3 -7 -11 -7 -17 0 -6 5 -5 12 2 6 6 9 14 7 17 -3 3
-9 2 -12 -2z"/>
<path d="M2577 4040 c9 -11 19 -17 21 -15 6 6 -18 35 -29 35 -5 0 -1 -9 8 -20z"/>
<path d="M3972 3874 c-7 -8 -8 -14 -3 -14 10 0 25 19 20 25 -2 1 -10 -3 -17
-11z"/>
<path d="M3505 3631 c-3 -5 -1 -12 4 -15 5 -3 11 1 15 9 6 16 -9 21 -19 6z"/>
<path d="M775 3513 c29 -50 45 -72 45 -61 0 9 -62 108 -67 108 -3 0 7 -21 22
-47z"/>
<path d="M1 2850 c0 -33 1 -34 14 -16 17 22 20 40 6 32 -5 -4 -12 0 -14 6 -3
7 -6 -3 -6 -22z"/>
<path d="M390 2528 c-12 -8 -12 -9 3 -4 13 4 17 1 15 -11 -2 -9 2 -18 9 -20 7
-3 9 3 6 17 -7 26 -16 31 -33 18z"/>
<path d="M1007 2121 l-129 -16 65 -57 c36 -32 70 -58 76 -58 6 0 15 9 21 21 7
11 18 18 25 15 8 -3 12 0 9 7 -2 7 14 30 36 52 37 38 49 57 33 54 -5 -1 -66
-9 -136 -18z"/>
<path d="M1383 2075 c-3 -9 -3 -18 -1 -21 3 -3 8 4 11 16 6 23 -1 27 -10 5z"/>
<path d="M970 1893 c8 -2 23 -15 33 -29 l18 -24 -41 0 c-41 0 -49 7 -29 27 15
15 -5 26 -31 18 -16 -5 -58 -63 -48 -66 70 -19 98 -21 148 -9 33 8 50 17 50
27 0 9 -6 13 -15 9 -14 -5 -19 6 -18 42 1 8 -13 12 -41 11 -22 -1 -34 -3 -26
-6z"/>
<path d="M1255 1841 c3 -5 1 -12 -5 -16 -6 -4 -5 -13 3 -25 18 -29 27 -24 27
15 0 25 -4 35 -16 35 -8 0 -13 -4 -9 -9z"/>
<path d="M1004 1546 c-19 -15 -19 -6 -5 -206 4 -72 9 -95 20 -95 12 0 14 28
15 153 1 85 -2 156 -5 158 -3 2 -14 -3 -25 -10z"/>
<path d="M1208 1553 c7 -3 16 -2 19 1 4 3 -2 6 -13 5 -11 0 -14 -3 -6 -6z"/>
<path d="M1241 1470 c1 -80 13 -198 22 -207 12 -11 28 19 23 42 -3 11 -6 65
-7 120 -1 91 -3 101 -20 101 -16 0 -19 -8 -18 -56z"/>
<path d="M3810 1519 c0 -5 5 -7 10 -4 6 3 10 8 10 11 0 2 -4 4 -10 4 -5 0 -10
-5 -10 -11z"/>
<path d="M917 1498 c-14 -12 -15 -25 -6 -128 11 -127 14 -140 29 -140 6 0 10
50 10 140 0 77 -4 140 -8 140 -5 0 -16 -6 -25 -12z"/>
<path d="M828 1449 c-15 -8 -18 -25 -18 -114 0 -98 9 -131 30 -109 9 11 20
234 11 234 -3 0 -14 -5 -23 -11z"/>
<path d="M2850 1456 c0 -2 7 -7 16 -10 8 -3 12 -2 9 4 -6 10 -25 14 -25 6z"/>
<path d="M3359 1418 c-19 -23 -51 -59 -71 -80 -21 -20 -38 -41 -38 -45 0 -5
-9 -14 -20 -21 -12 -7 -18 -17 -15 -22 3 -6 -1 -10 -9 -10 -9 0 -16 -4 -16
-10 0 -15 22 -12 47 5 13 9 20 22 17 30 -7 18 12 20 20 3 3 -7 4 -4 1 7 -6 23
48 80 97 105 16 7 26 16 23 19 -3 2 -11 -1 -17 -7 -7 -7 -16 -12 -20 -12 -11
0 6 33 28 55 9 9 14 18 12 21 -3 2 -20 -15 -39 -38z"/>
<path d="M599 1387 c-164 -154 -241 -222 -258 -228 -10 -4 -29 -21 -44 -38
-14 -17 -29 -31 -34 -31 -4 0 -19 -12 -32 -26 -20 -21 -25 -38 -28 -87 -2 -59
-2 -60 8 -24 6 20 17 37 23 37 7 0 23 11 36 25 13 14 29 25 37 25 7 0 13 4 13
10 0 5 7 7 15 4 11 -5 13 -2 9 10 -4 11 -1 16 10 16 10 0 13 5 9 17 -4 11 -3
14 6 9 13 -9 54 22 46 34 -3 4 7 16 21 25 22 14 28 15 35 4 7 -11 9 -10 9 4 0
9 7 17 16 17 9 0 12 5 8 12 -4 7 -3 8 4 4 6 -4 21 -2 32 4 16 9 20 8 20 -5 0
-9 6 -15 13 -12 6 2 12 19 13 38 0 19 5 35 12 35 25 3 27 5 12 15 -12 8 -11 9
5 7 15 -2 21 -13 25 -43 3 -27 10 -40 20 -40 18 0 25 98 13 187 l-8 56 -66
-61z"/>
<path d="M2770 1429 c0 -5 5 -7 10 -4 6 3 10 8 10 11 0 2 -4 4 -10 4 -5 0 -10
-5 -10 -11z"/>
<path d="M2695 1420 c-3 -5 -1 -10 4 -10 6 0 11 5 11 10 0 6 -2 10 -4 10 -3 0
-8 -4 -11 -10z"/>
<path d="M747 1399 c-14 -8 -17 -25 -17 -99 0 -69 3 -90 14 -90 10 0 15 25 20
96 4 53 6 97 4 99 -2 2 -11 -1 -21 -6z"/>
<path d="M3365 1320 c-3 -6 1 -7 9 -4 18 7 21 14 7 14 -6 0 -13 -4 -16 -10z"/>
<path d="M4169 1223 c-13 -15 -12 -15 9 -4 23 12 28 21 13 21 -5 0 -15 -7 -22
-17z"/>
<path d="M4110 1129 c0 -5 5 -7 10 -4 6 3 10 8 10 11 0 2 -4 4 -10 4 -5 0 -10
-5 -10 -11z"/>
<path d="M290 1020 c0 -5 5 -10 10 -10 6 0 10 5 10 10 0 6 -4 10 -10 10 -5 0
-10 -4 -10 -10z"/>
<path d="M2860 948 c0 -9 -18 -38 -40 -63 -56 -65 -62 -77 -49 -114 13 -37 59
-69 59 -40 0 6 8 23 19 37 32 46 44 142 22 180 -10 16 -10 16 -11 0z"/>
<path d="M3725 930 c-3 -5 -1 -10 4 -10 6 0 11 5 11 10 0 6 -2 10 -4 10 -3 0
-8 -4 -11 -10z"/>
<path d="M186 883 c-11 -11 -6 -23 9 -23 8 0 15 4 15 9 0 13 -16 22 -24 14z"/>
<path d="M4953 871 c-54 -9 -72 -25 -68 -59 2 -15 4 -29 4 -32 1 -3 21 -5 46
-5 32 1 52 8 69 24 23 22 41 61 27 59 -22 -2 -41 4 -36 12 3 6 5 9 3 9 -2 -1
-22 -5 -45 -8z"/>
<path d="M153 806 c-18 -18 -33 -39 -33 -48 0 -10 -23 -27 -60 -45 l-60 -28 0
-83 c0 -79 1 -82 19 -70 11 7 22 21 26 33 5 20 5 20 17 0 6 -11 12 -21 13 -23
1 -1 14 3 29 9 37 17 63 66 65 119 0 25 8 72 16 103 8 32 15 60 15 62 0 12
-18 1 -47 -29z"/>
<path d="M4973 608 c-21 -27 -19 -43 6 -55 14 -7 33 -18 42 -24 30 -22 49 -4
49 46 l0 45 -44 0 c-24 0 -48 -6 -53 -12z"/>
<path d="M4285 461 c-6 -6 -91 -30 -190 -55 -99 -25 -199 -55 -223 -66 -23
-11 -61 -22 -85 -26 -59 -8 -107 -24 -107 -35 0 -11 -6 -11 66 2 32 6 70 17
84 24 14 8 50 21 80 29 251 68 346 90 417 96 89 9 114 17 92 31 -19 12 -123
11 -134 0z"/>
<path d="M2588 453 c7 -3 16 -2 19 1 4 3 -2 6 -13 5 -11 0 -14 -3 -6 -6z"/>
<path d="M4355 405 c-215 -71 -397 -123 -446 -129 -38 -5 -63 -14 -75 -27 -19
-21 -18 -21 21 -14 100 17 585 171 585 185 0 13 -2 12 -85 -15z"/>
<path d="M3548 253 c-33 -4 -68 -27 -56 -38 8 -9 121 16 142 31 19 13 18 14
-14 12 -19 -1 -52 -3 -72 -5z"/>
<path d="M4075 232 c-9 -9 -5 -23 5 -17 6 3 10 -1 10 -9 0 -9 -23 -27 -51 -42
-28 -14 -49 -28 -46 -31 3 -3 21 4 40 16 19 11 46 21 59 21 29 0 53 23 45 44
-5 14 -52 27 -62 18z"/>
<path d="M3715 219 c-28 -5 -55 -15 -62 -25 -7 -10 -12 -19 -10 -20 5 -5 132
27 140 35 14 14 -15 18 -68 10z"/>
<path d="M4295 200 c-3 -5 -1 -10 5 -10 8 0 10 -9 6 -25 -7 -29 13 -34 38 -9
22 21 20 29 -9 42 -31 14 -32 15 -40 2z"/>
<path d="M3345 185 c-267 -89 -504 -179 -479 -183 11 -2 113 31 225 72 112 41
222 77 244 81 75 13 116 26 110 35 -8 14 -52 11 -100 -5z"/>
<path d="M3512 150 c-35 -8 -60 -26 -50 -35 8 -8 128 21 141 34 13 13 -38 14
-91 1z"/>
<path d="M3920 100 c-30 -16 -52 -29 -49 -30 12 0 98 41 104 50 8 13 8 13 -55
-20z"/>
<path d="M3240 47 c-88 -30 -117 -43 -98 -45 28 -3 245 62 263 79 19 19 -43 6
-165 -34z"/>
<path d="M3790 30 c-9 -6 -10 -10 -3 -10 6 0 15 5 18 10 8 12 4 12 -15 0z"/>
</g>
</svg>
