<?xml version="1.0" standalone="no"?>
<!DOCTYPE svg PUBLIC "-//W3C//DTD SVG 20010904//EN"
 "http://www.w3.org/TR/2001/REC-SVG-20010904/DTD/svg10.dtd">
<svg version="1.0" xmlns="http://www.w3.org/2000/svg"
 width="564.000000pt" height="845.000000pt" viewBox="0 0 564.000000 845.000000"
 preserveAspectRatio="xMidYMid meet">

<g transform="translate(0.000000,845.000000) scale(0.100000,-0.100000)"
fill="#000000" stroke="none">
<path d="M4080 8373 c3 -43 2 -79 -2 -81 -10 -4 -11 -56 -2 -65 18 -18 75 99
89 183 l7 40 -49 0 -48 0 5 -77z"/>
<path d="M4080 8190 c0 -11 5 -20 10 -20 6 0 10 9 10 20 0 11 -4 20 -10 20 -5
0 -10 -9 -10 -20z"/>
<path d="M3238 7978 c-16 -5 -28 -16 -28 -24 0 -15 -39 -76 -52 -82 -16 -7 -8
-34 7 -28 24 9 55 -29 55 -68 0 -45 15 -85 45 -116 36 -38 63 -119 70 -211 l7
-84 -36 -33 c-20 -18 -36 -41 -36 -51 0 -18 -109 -121 -128 -121 -13 0 35 128
58 155 41 49 45 185 5 185 -8 0 -15 5 -15 10 0 14 -61 50 -86 50 -11 0 -28 -6
-39 -13 -16 -13 -14 -16 27 -36 l45 -21 -14 -52 c-7 -29 -13 -66 -13 -83 0
-16 -11 -71 -25 -120 -29 -106 -32 -150 -10 -141 20 7 19 -6 -4 -35 -33 -42
-68 -122 -85 -196 -24 -98 -19 -480 7 -529 24 -46 105 -165 134 -196 l26 -27
-18 -108 c-36 -223 -113 -354 -249 -421 l-42 -21 12 -123 c18 -174 24 -209 35
-202 5 3 16 0 24 -6 12 -10 20 -9 40 4 14 9 25 12 25 6 0 -5 5 -10 10 -10 6 0
10 22 10 48 0 67 17 153 41 207 20 44 34 62 22 28 -3 -10 7 -1 22 19 l28 38
23 -51 c13 -28 33 -64 44 -79 l21 -29 20 20 c34 34 39 65 39 227 l0 157 -45
-80 c-29 -53 -45 -92 -45 -117 0 -46 -8 -68 -25 -68 -29 0 -19 33 51 176 82
165 82 165 33 272 -11 24 -19 48 -17 54 4 12 48 -25 48 -40 0 -7 14 -38 31
-69 53 -97 62 -144 63 -298 0 -111 -5 -158 -22 -228 -29 -118 -30 -117 17
-117 22 0 43 5 46 10 3 6 21 10 40 10 18 0 36 6 39 13 3 6 4 1 3 -13 -2 -20 6
-27 46 -44 39 -16 52 -18 67 -8 29 18 60 15 150 -14 62 -20 84 -32 92 -50 6
-13 17 -24 25 -24 19 0 16 -27 -7 -58 -12 -15 -27 -49 -35 -75 -13 -43 -13
-47 3 -47 29 0 94 -70 88 -94 -3 -12 -6 -29 -6 -38 0 -25 -68 -98 -91 -98 -11
0 -19 -4 -19 -10 0 -5 -8 -10 -19 -10 -10 0 -24 -7 -31 -15 -29 -35 -94 -6
-105 46 -4 17 -20 42 -36 56 -16 14 -31 34 -34 44 -6 19 -38 42 -72 53 -18 6
-25 1 -37 -23 -9 -16 -25 -32 -36 -36 -36 -11 -40 -36 -30 -156 12 -136 27
-210 53 -263 15 -31 17 -44 8 -58 -6 -10 -11 -28 -11 -41 0 -12 -7 -33 -16
-45 -17 -25 -20 -52 -29 -287 -6 -173 -19 -338 -35 -450 -5 -38 -19 -133 -30
-210 -11 -77 -22 -201 -25 -275 -4 -125 -21 -240 -36 -240 -7 0 -25 57 -38
120 -6 31 -10 37 -11 20 l-2 -25 -8 25 c-5 17 -8 19 -9 8 -1 -10 -7 -18 -15
-18 -16 0 -26 30 -26 77 0 22 -7 37 -20 45 -15 9 -20 24 -20 53 0 28 -3 36 -9
26 -8 -12 -13 -11 -30 10 -22 26 -27 54 -11 64 6 4 9 3 8 -2 -4 -15 13 -53 24
-53 7 0 7 4 -1 14 -6 7 -13 42 -16 77 -4 35 -8 76 -10 92 -3 15 0 27 6 27 6 0
8 -4 4 -9 -3 -5 -1 -12 4 -15 5 -4 12 2 15 11 3 10 3 0 1 -22 -4 -39 14 -82
28 -68 12 11 8 23 -8 23 -12 0 -14 8 -9 41 5 29 3 43 -7 49 -11 7 -10 12 4 28
9 10 17 25 17 33 0 11 -2 11 -8 2 -6 -9 -14 1 -26 30 -9 23 -21 49 -27 57 -5
8 -12 22 -15 30 -34 85 -34 85 -32 60 0 -14 0 -52 -2 -85 -4 -69 -10 9 -29
380 -7 121 -13 231 -15 245 -6 48 12 274 29 345 8 39 14 73 13 77 -2 4 7 15
19 23 19 14 21 19 11 40 -10 21 -8 28 7 39 18 13 18 15 -9 57 -16 24 -36 48
-43 53 -12 6 -14 26 -11 88 2 68 0 82 -14 92 -13 8 -23 8 -35 0 -16 -10 -19
-33 -23 -170 -3 -87 -7 -145 -9 -129 -2 18 -7 1 -11 -41 -12 -110 -41 -237
-53 -225 -7 7 -6 19 1 38 17 45 35 134 28 140 -3 4 -6 -1 -6 -10 0 -9 -11 -49
-24 -89 -13 -40 -32 -107 -41 -148 -10 -41 -27 -95 -37 -119 -18 -42 -19 -43
-38 -26 -10 9 -31 40 -46 69 -15 28 -29 53 -33 56 -11 9 -32 52 -22 46 11 -7
-24 83 -76 197 l-36 77 -43 0 -42 0 2 -70 c3 -77 1 -80 -20 -23 l-14 38 4 -45
c2 -25 6 -52 9 -60 4 -8 18 -55 32 -103 13 -49 27 -92 29 -96 7 -11 33 -145
42 -216 4 -33 9 -69 11 -80 1 -11 4 -94 6 -185 2 -91 1 -153 -1 -137 -2 15 -7
27 -12 27 -5 0 -10 8 -13 18 -2 9 -8 -2 -14 -28 -6 -25 -11 -38 -12 -29 -1 22
-81 24 -81 1 0 -12 -12 -14 -76 -9 -62 5 -79 10 -91 26 -8 12 -19 19 -24 16
-5 -3 -7 0 -4 7 7 18 -10 42 -24 34 -15 -10 -14 -36 2 -37 6 0 2 -4 -11 -10
-20 -7 -23 -15 -20 -46 2 -22 -2 -38 -10 -41 -7 -2 -12 6 -12 21 0 13 -7 30
-15 37 -8 7 -15 20 -14 29 0 12 2 11 9 -4 9 -21 11 -17 15 30 5 78 26 256 36
305 23 126 29 171 35 290 6 108 5 127 -9 139 -14 11 -21 10 -45 -7 -23 -17
-27 -27 -24 -54 2 -18 -6 -60 -17 -92 -12 -33 -21 -69 -21 -81 0 -12 -11 -49
-25 -83 -14 -34 -25 -79 -25 -100 0 -41 -16 -69 -40 -73 -25 -4 -50 12 -50 32
0 41 -34 3 -42 -46 -4 -28 -32 -25 -36 3 -3 18 -8 22 -20 16 -57 -24 -140 -18
-101 7 8 5 29 19 47 31 30 18 33 24 27 52 -8 36 -17 105 -18 126 0 8 -3 17 -6
20 -14 12 -51 91 -51 109 0 11 -4 22 -9 25 -5 3 -7 24 -4 46 5 38 4 40 -21 40
-23 0 -26 -4 -26 -32 0 -22 -9 -41 -25 -57 -30 -28 -31 -45 -5 -105 10 -25 17
-46 15 -46 -2 0 3 -16 11 -35 7 -19 14 -53 14 -75 0 -22 9 -73 20 -113 11 -39
23 -87 26 -105 3 -18 12 -48 20 -67 20 -48 17 -104 -6 -143 -29 -47 -26 -62
13 -62 73 0 107 -12 123 -41 12 -24 13 -56 3 -220 -10 -193 -21 -239 -54 -239
-7 0 -11 -11 -9 -27 1 -15 -2 -33 -8 -41 -8 -9 -7 -20 3 -38 12 -22 11 -30 -4
-56 l-17 -30 29 7 c37 8 42 0 30 -57 -12 -54 -36 -69 -73 -45 -14 10 -28 12
-38 6 -9 -5 -28 -8 -41 -7 -24 2 -26 7 -33 64 -7 66 -2 84 22 84 30 0 52 19
47 40 -3 11 -12 20 -19 20 -8 0 -14 4 -14 8 0 5 -7 17 -16 28 -13 16 -15 16
-10 2 3 -10 1 -18 -5 -18 -11 0 -8 38 4 58 5 6 5 12 1 12 -4 0 1 9 12 21 12
13 15 23 7 27 -20 13 -25 54 -28 211 -2 86 -10 226 -19 311 -8 85 -16 196 -16
247 0 88 -1 94 -29 122 -31 32 -61 134 -61 208 0 21 -4 53 -9 71 -7 22 -6 32
2 32 8 0 8 3 -1 12 -7 7 -12 20 -12 31 0 10 -5 15 -10 12 -6 -4 -8 -11 -5 -16
7 -10 -1 -11 -52 -13 -23 -1 -33 4 -33 14 0 8 -3 10 -9 5 -5 -6 2 -97 19 -225
15 -118 31 -255 34 -305 l5 -90 -14 80 c-48 280 -73 504 -77 687 -2 69 -6 124
-10 121 -13 -7 -8 29 7 62 13 30 13 30 15 5 l1 -25 11 23 c10 19 8 25 -13 40
-13 9 -30 17 -36 17 -21 0 -15 20 7 23 23 4 25 17 7 50 -10 20 -21 24 -77 27
-55 3 -68 0 -84 -17 -19 -20 -26 -20 -83 3 -38 15 -57 4 -68 -42 -6 -26 -5
-27 47 -33 29 -4 75 -12 101 -19 l47 -12 -25 -52 c-29 -58 -60 -83 -99 -79
-14 2 -26 -1 -26 -6 0 -23 -113 92 -130 132 -11 28 -16 30 -62 30 -56 0 -56 2
1 -65 l26 -29 -37 27 c-20 15 -41 27 -46 27 -6 0 19 -44 55 -97 35 -54 71
-111 78 -128 8 -16 19 -37 25 -45 6 -8 19 -36 31 -62 11 -27 26 -48 34 -48 8
0 15 -4 15 -10 0 -5 -4 -10 -10 -10 -5 0 -10 -4 -10 -9 0 -10 35 -25 59 -26 8
0 16 -7 18 -15 4 -13 3 -13 -6 0 -9 13 -11 13 -11 -1 0 -9 10 -20 23 -24 22
-8 22 -8 -3 -12 -34 -6 -50 -23 -22 -23 15 0 20 -4 15 -15 -3 -10 0 -15 8 -13
9 2 15 -7 17 -23 2 -17 11 -29 23 -32 10 -3 19 -11 19 -19 0 -10 -3 -9 -10 2
-6 9 -10 10 -10 3 0 -19 20 -26 35 -13 17 14 19 7 5 -19 -5 -10 -23 -24 -40
-31 -34 -14 -35 -17 -15 -44 18 -24 19 -37 3 -33 -7 1 -12 -6 -12 -15 1 -10
-4 -14 -12 -11 -8 3 -14 1 -14 -4 0 -11 -69 -37 -77 -29 -4 3 -14 41 -24 83
-60 266 -103 439 -128 513 -36 104 -68 177 -82 186 -8 4 -8 0 0 -14 6 -11 11
-25 11 -30 0 -11 -91 -3 -104 9 -15 14 -26 11 -20 -5 3 -7 25 -16 48 -19 73
-10 93 -25 117 -84 12 -29 19 -57 15 -60 -3 -3 -6 0 -6 8 0 10 -2 11 -8 2 -5
-8 -28 -2 -82 21 -41 18 -115 48 -165 66 -49 18 -98 36 -107 41 -10 5 -26 9
-35 9 -10 0 -30 6 -45 14 -15 8 -36 12 -47 9 -28 -7 -91 16 -91 33 0 22 -43
17 -64 -7 -11 -13 -14 -24 -8 -28 5 -3 8 -21 7 -38 -1 -18 1 -33 6 -33 5 0 9
-7 9 -15 0 -8 -8 -15 -19 -15 -11 0 -21 -9 -24 -22 -2 -13 -8 -31 -12 -40 -5
-13 -3 -18 9 -18 9 0 16 -5 16 -11 0 -5 -5 -7 -11 -3 -7 4 -10 -7 -9 -32 4
-76 0 -115 -10 -109 -6 3 -10 16 -11 28 -1 20 -2 20 -8 -3 -4 -14 -4 -26 1
-28 4 -2 8 -13 8 -25 0 -18 2 -19 10 -7 7 11 10 7 10 -17 0 -18 -5 -33 -11
-33 -8 0 -10 -17 -7 -50 4 -36 0 -56 -13 -76 -9 -15 -20 -46 -24 -69 -5 -38
-9 -42 -28 -38 -17 4 -19 3 -7 -6 12 -8 8 -13 -22 -26 -21 -8 -53 -15 -73 -15
l-35 0 0 -1259 0 -1258 157 2 c87 2 178 6 203 9 25 3 158 8 295 11 635 14 939
26 946 36 3 6 9 95 11 197 5 173 4 189 -14 214 -17 24 -57 176 -231 873 -52
207 -68 287 -79 405 -2 25 6 29 12 5 31 -111 78 -256 84 -262 9 -9 7 11 -18
187 -19 132 -39 229 -59 282 -14 40 -27 59 -27 40 0 -6 -6 -9 -13 -6 -10 4
-12 -3 -9 -26 5 -34 -4 -39 -24 -13 -8 12 -9 22 -2 30 25 31 -32 83 -92 83
-23 0 -85 30 -115 57 -97 85 -97 271 0 317 37 18 95 21 95 6 0 -5 7 -6 17 -3
12 5 14 3 8 -7 -6 -10 -4 -12 8 -7 9 3 16 3 15 -1 -1 -4 17 -27 41 -51 29 -29
40 -48 36 -60 -4 -9 -9 -22 -12 -29 -4 -8 0 -10 11 -6 14 5 16 2 11 -17 -3
-13 -7 -37 -9 -54 -3 -27 -7 -40 -23 -85 -14 -37 -10 -40 18 -14 27 26 43 22
17 -4 -18 -18 12 -16 39 3 18 12 23 13 32 1 8 -9 8 -15 2 -18 -6 -1 9 -36 33
-76 59 -97 65 -128 176 -817 33 -203 66 -399 73 -435 13 -60 14 -62 22 -35 7
29 8 28 21 -25 7 -30 15 -91 19 -135 9 -124 26 -256 36 -297 25 -96 80 6 110
201 12 75 28 161 37 191 l15 55 12 -29 c7 -16 13 -67 14 -113 0 -47 3 -89 7
-94 3 -6 6 -33 6 -61 -1 -27 1 -48 3 -46 2 2 15 74 29 159 14 86 32 171 40
190 9 19 16 30 16 24 0 -5 5 -2 11 8 15 26 36 21 48 -13 8 -23 16 -30 36 -30
15 0 35 -5 46 -10 13 -7 19 -7 19 0 0 5 13 10 29 10 21 0 30 -6 36 -23 3 -12
9 -17 11 -10 6 13 64 -3 64 -18 0 -5 5 -9 10 -9 6 0 10 7 10 15 0 11 11 15 40
15 22 0 40 5 40 11 0 7 14 8 40 4 26 -4 40 -3 40 4 0 6 11 11 24 11 13 0 27 6
30 13 3 9 8 8 19 -5 10 -13 21 -15 50 -8 25 5 37 4 37 -3 0 -7 3 -8 10 -1 18
18 12 254 -10 439 -6 44 -10 90 -10 104 0 69 14 -16 50 -310 55 -448 59 -472
53 -319 -3 69 0 229 6 355 16 311 17 327 25 350 5 15 -3 30 -32 60 -49 49 -68
65 -80 65 -5 0 -14 6 -20 13 -9 12 -28 317 -19 317 3 0 10 -31 17 -69 9 -54
18 -75 41 -97 16 -15 29 -35 30 -43 0 -9 9 -29 20 -46 11 -16 22 -38 25 -47 7
-19 24 -25 24 -8 0 14 26 12 42 -2 7 -7 22 -15 33 -17 37 -6 52 -20 59 -53 12
-58 25 -504 31 -1028 3 -283 8 -562 12 -620 l7 -105 7 75 c4 41 12 197 18 345
6 149 13 320 16 380 2 61 7 197 11 303 7 193 23 335 20 180 -1 -47 4 -82 11
-89 7 -7 28 -9 63 -4 40 6 54 12 58 27 2 11 22 26 43 35 22 8 39 19 39 25 0 5
4 7 9 3 5 -3 16 1 24 9 12 12 15 4 25 -62 19 -121 31 -261 42 -482 6 -113 16
-263 22 -335 6 -71 12 -341 13 -600 1 -533 5 -586 42 -615 26 -20 78 -26 99
-12 16 10 26 60 14 67 -17 11 -11 38 16 66 l26 27 -23 23 -22 22 27 24 27 23
-21 36 c-21 32 -21 36 -6 53 20 22 20 35 1 51 -19 16 -19 54 0 70 19 16 19 36
0 44 -20 7 -19 35 2 58 14 16 15 23 4 53 -10 30 -10 39 5 65 17 28 17 30 -1
50 -18 20 -18 21 4 51 21 28 21 32 7 48 -22 24 -20 40 6 68 20 21 20 24 5 41
-24 26 -21 47 8 66 30 20 32 36 6 43 -34 9 -32 31 5 59 l35 27 -27 28 -27 28
37 21 c43 26 44 32 11 54 -32 21 -32 32 4 51 51 26 73 4 67 -67 -2 -23 2 -42
10 -49 19 -15 18 -45 -1 -53 -21 -8 -19 -23 5 -29 22 -6 27 -36 8 -55 -10 -9
-9 -16 4 -28 13 -13 14 -23 7 -42 -7 -18 -6 -35 2 -54 8 -20 9 -36 2 -51 -6
-13 -7 -31 -1 -46 4 -13 5 -46 2 -72 -4 -31 -2 -54 5 -63 9 -10 8 -16 -4 -26
-12 -10 -15 -23 -10 -51 4 -21 3 -43 0 -50 -12 -18 -12 -98 0 -103 6 -3 4 -9
-5 -15 -20 -13 -21 -61 -2 -83 12 -14 12 -20 2 -33 -8 -10 -11 -30 -7 -59 5
-34 3 -45 -9 -50 -11 -4 -12 -10 -5 -24 7 -13 7 -22 -1 -30 -8 -8 -5 -18 10
-37 17 -22 19 -31 10 -51 -9 -19 -8 -28 6 -43 17 -19 17 -21 -4 -51 -18 -25
-19 -31 -6 -36 39 -15 61 0 78 56 31 102 40 162 43 269 2 58 6 205 9 326 6
192 39 606 51 625 5 7 23 239 31 390 3 52 12 187 20 300 15 201 25 792 24
1409 0 167 2 302 6 299 3 -3 7 -169 9 -369 13 -1048 21 -1198 120 -2219 34
-349 65 -601 92 -743 6 -32 38 -52 106 -61 l47 -7 0 30 c0 24 -5 32 -24 37
-16 4 -27 17 -36 43 -17 53 -11 75 23 79 22 3 27 8 27 32 0 23 -5 31 -25 36
-33 8 -55 40 -55 81 0 31 2 33 34 33 36 0 37 3 27 62 0 4 -13 8 -28 10 -20 2
-33 13 -45 37 -23 47 -11 76 33 76 31 1 34 4 37 32 3 30 1 32 -40 40 -39 8
-44 12 -52 45 -13 53 -4 68 43 68 29 0 41 -5 45 -18 2 -9 2 1 0 23 -8 57 -11
65 -27 59 -28 -10 -65 14 -77 51 -18 54 -9 67 47 63 l48 -3 6 -45 6 -45 1 40
c2 48 -13 106 -30 117 -7 4 -25 8 -40 8 -35 0 -58 33 -58 83 0 32 3 38 16 33
9 -3 33 -6 55 -6 l39 0 0 -50 c0 -27 4 -50 8 -50 9 0 34 176 34 243 0 26 3 47
8 47 12 0 23 -152 20 -290 -1 -69 1 -123 3 -120 5 4 19 314 18 375 0 11 -4 49
-9 85 -5 36 -5 69 -1 75 6 5 9 4 9 -3 0 -7 5 -12 10 -12 6 0 10 35 11 83 0 45
4 100 8 122 8 36 9 32 10 -35 1 -41 8 -410 16 -818 7 -409 15 -746 18 -748 11
-12 32 428 48 1026 12 466 7 961 -17 1610 -9 228 -17 534 -17 680 -2 282 4
352 50 535 22 89 23 100 9 111 -9 6 -16 16 -16 23 0 6 -18 11 -44 11 -24 0
-57 3 -73 6 -29 6 -30 4 -37 -37 -4 -23 -13 -57 -20 -73 -8 -17 -21 -50 -29
-73 -16 -41 -16 -41 9 -58 14 -9 29 -26 35 -38 5 -12 32 -38 59 -57 62 -45 71
-85 10 -43 -101 67 -145 113 -109 113 8 0 8 5 -1 15 -17 20 -30 9 -30 -25 0
-28 -55 -120 -71 -120 -27 0 -189 312 -189 364 0 7 -8 17 -17 20 -12 5 -13 10
-5 18 6 6 8 17 5 24 -3 8 1 14 8 14 7 0 9 3 6 7 -4 3 1 15 10 25 12 13 19 41
21 88 4 64 7 71 46 114 24 25 47 46 52 46 11 0 38 29 54 59 12 24 10 52 -5 63
-5 4 -10 13 -10 20 0 14 -21 73 -36 101 -5 10 -7 23 -3 29 4 7 3 8 -4 4 -8 -4
-12 0 -12 12 0 28 -29 48 -80 56 -25 4 -54 9 -65 11 -11 2 -28 4 -37 4 -10 1
-18 8 -18 16 0 10 -7 15 -17 13 -26 -4 -18 23 29 106 81 144 148 354 148 469
0 26 6 39 25 51 13 9 27 16 30 16 2 0 18 -28 34 -62 47 -104 122 -192 105
-124 -3 15 -1 25 9 29 25 10 19 90 -14 184 -31 89 -52 165 -65 238 l-7 40 -9
-40 c-5 -22 -8 -84 -5 -137 2 -53 0 -103 -4 -110 -12 -20 -41 57 -49 132 -6
57 -9 59 -14 8 -1 -14 -79 -39 -92 -29 -5 3 -22 23 -37 44 -39 51 -92 85 -188
117 -44 15 -79 31 -79 36 1 5 30 69 66 142 35 73 68 152 74 175 19 74 18 73
48 44 16 -15 38 -27 51 -27 12 0 35 -7 51 -15 16 -8 46 -17 67 -20 21 -2 52
-7 69 -11 18 -3 41 -1 53 6 32 17 58 4 86 -44 22 -38 25 -55 26 -142 0 -54 4
-108 9 -119 9 -22 7 -26 34 67 28 96 70 147 156 190 65 33 84 38 143 38 143 0
224 -45 279 -157 31 -63 33 -75 33 -168 0 -92 -3 -106 -32 -168 -40 -84 -118
-164 -196 -201 -110 -51 -246 -32 -315 46 -49 54 -58 27 -25 -72 16 -47 23
-84 19 -104 -4 -17 -38 -80 -78 -141 -84 -130 -97 -158 -104 -230 -5 -61 0
-66 44 -38 46 30 59 46 100 121 36 66 41 72 55 58 22 -22 23 -21 19 24 -5 45
5 50 36 18 21 -23 41 -106 47 -202 4 -57 3 -55 78 -94 l57 -30 0 66 c0 85 20
159 65 245 19 37 35 73 35 80 0 15 115 128 155 152 48 28 102 105 100 142 -1
18 2 30 7 27 4 -3 8 0 8 5 0 6 5 10 12 9 7 -2 28 26 47 62 l36 65 0 135 c-1
103 -5 150 -19 198 -13 42 -22 59 -27 50 -6 -9 -9 -3 -9 17 0 40 -31 90 -94
150 -90 86 -92 122 -18 275 20 41 35 79 34 83 -1 5 2 6 7 3 5 -4 12 -2 16 3
13 23 126 -32 218 -106 65 -52 68 -53 62 -26 -10 43 -107 128 -177 155 -33 13
-63 29 -65 36 -3 8 17 37 46 66 28 28 51 61 51 72 0 27 -26 61 -60 79 -41 21
-51 19 -45 -8 4 -15 1 -28 -9 -36 -8 -7 -20 -29 -27 -48 -24 -74 -78 -139 -93
-114 -19 30 -277 -60 -457 -160 -120 -66 -306 -124 -363 -114 -17 4 -51 0 -76
-8 -25 -9 -63 -15 -86 -15 l-41 1 -9 66 -9 66 -11 -85 c-7 -47 -19 -110 -28
-140 -10 -30 -20 -68 -23 -85 -3 -16 -19 -45 -34 -63 -16 -18 -29 -40 -29 -49
0 -13 -3 -13 -15 -3 -13 11 -14 10 -9 -4 3 -9 1 -16 -5 -16 -6 0 -8 -7 -4 -17
4 -11 3 -14 -5 -9 -8 5 -12 0 -12 -13 0 -12 -4 -21 -10 -21 -5 0 -17 -14 -25
-30 -18 -35 -99 -90 -133 -90 -13 0 -21 -4 -18 -9 4 -5 -3 -7 -14 -4 -12 3
-29 -2 -39 -11 -10 -9 -35 -21 -54 -27 -20 -5 -58 -25 -85 -43 -41 -27 -52
-31 -66 -21 -9 7 -16 21 -16 31 0 27 -35 152 -54 197 -20 45 -122 215 -143
237 -13 13 -14 4 -7 -70 4 -47 15 -109 25 -139 19 -54 26 -143 11 -125 -5 5
-14 29 -21 54 -7 25 -22 65 -33 90 -44 97 -49 267 -12 389 30 98 51 143 100
211 19 26 34 57 34 69 0 11 5 21 10 21 6 0 10 6 10 13 0 7 17 31 38 54 39 43
104 72 172 76 21 1 36 6 33 11 -3 5 24 7 60 4 37 -2 61 0 54 4 -7 5 0 8 18 8
42 0 14 17 -43 26 -82 12 -120 66 -148 210 -19 98 -24 295 -10 386 l9 57 -34
20 c-37 23 -68 25 -111 9z m1730 -997 c12 -3 -6 -44 -48 -107 -27 -41 -50 -83
-50 -92 0 -22 -11 -37 -32 -45 -10 -3 -18 -13 -18 -22 0 -8 -9 -15 -20 -15
-12 0 -20 7 -20 16 0 11 5 14 18 9 13 -5 14 -4 5 6 -10 10 -25 10 -65 1 -29
-6 -73 -14 -98 -18 -51 -7 -76 -18 -107 -47 -14 -12 -23 -16 -23 -8 0 8 -7 10
-22 6 -29 -10 -22 6 48 102 127 174 216 227 369 218 33 -2 61 -4 63 -4z m-71
-330 c59 -37 132 -121 169 -197 32 -65 38 -87 42 -161 3 -48 -1 -109 -7 -139
-15 -66 -37 -86 -26 -25 12 71 7 202 -10 266 -21 82 -45 135 -62 135 -7 0 -13
5 -13 11 0 10 -34 41 -70 64 -64 40 -90 58 -90 61 0 11 38 2 67 -15z m144
-277 c7 7 14 -65 14 -149 0 -81 -34 -183 -67 -204 -19 -12 -20 -11 -13 6 40
95 55 223 40 341 -5 43 -5 45 8 24 7 -12 15 -20 18 -18z m-1875 -9 c4 -14 3
-29 0 -33 -9 -8 -26 18 -26 41 0 26 19 20 26 -8z m64 -91 c0 -8 -4 -12 -10 -9
-5 3 -10 13 -10 21 0 8 5 12 10 9 6 -3 10 -13 10 -21z m496 -152 c6 -12 27
-33 48 -47 54 -37 83 -72 119 -145 29 -60 32 -73 31 -160 0 -80 -4 -104 -26
-150 -70 -150 -203 -230 -362 -217 -82 7 -101 22 -111 90 -9 57 11 226 35 307
11 36 39 107 62 157 l43 93 69 35 c38 19 64 35 58 35 -6 0 -9 7 -5 15 7 20 25
14 39 -13z m214 -54 c0 -5 11 -20 25 -34 27 -27 55 -93 55 -131 0 -35 -27 -27
-35 10 -4 17 -20 57 -35 87 -38 75 -42 90 -24 83 7 -3 14 -9 14 -15z m96 -45
c-10 -10 -19 5 -10 18 6 11 8 11 12 0 2 -7 1 -15 -2 -18z m-86 -144 c0 -31
-17 -22 -24 12 -10 53 -7 66 9 35 8 -15 15 -37 15 -47z m1082 -24 c-7 -26 -27
-46 -44 -43 -7 2 -12 -2 -11 -7 1 -6 -7 -11 -18 -12 -10 -1 -60 -31 -111 -66
-117 -81 -218 -130 -235 -115 -9 7 -13 7 -13 -1 0 -6 -4 -11 -10 -11 -17 0
-11 14 20 47 17 18 30 36 30 40 1 11 66 52 96 59 13 3 27 10 30 15 2 5 23 13
44 19 25 7 40 17 40 26 0 10 6 14 15 10 8 -3 15 -1 15 4 0 6 5 10 10 10 12 0
71 39 81 54 4 5 11 6 17 2 6 -3 13 -2 17 4 10 16 33 -12 27 -35z m-1812 -44
c0 -12 -20 -25 -27 -18 -7 7 6 27 18 27 5 0 9 -4 9 -9z m-30 -69 c0 -5 -7 -17
-15 -28 -14 -18 -14 -17 -4 9 12 27 19 34 19 19z m-30 -56 c0 -3 -4 -8 -10
-11 -5 -3 -10 -1 -10 4 0 6 5 11 10 11 6 0 10 -2 10 -4z m755 -193 c-29 -49
-43 -65 -55 -61 -7 2 1 21 19 46 35 47 62 58 36 15z m-10 -163 c-3 -5 -10 -10
-16 -10 -5 0 -9 5 -9 10 0 6 7 10 16 10 8 0 12 -4 9 -10z m-370 -10 c3 -5 2
-10 -4 -10 -5 0 -13 5 -16 10 -3 6 -2 10 4 10 5 0 13 -4 16 -10z m559 -167 c4
-9 2 -41 -3 -72 -6 -31 -13 -73 -16 -93 -3 -21 -10 -38 -14 -38 -14 0 -21 41
-21 130 0 83 1 86 24 88 14 1 27 -5 30 -15z m-2784 -384 c0 -5 -4 -9 -10 -9
-5 0 -10 7 -10 16 0 8 5 12 10 9 6 -3 10 -10 10 -16z m-1000 -23 c0 -3 -4 -8
-10 -11 -5 -3 -10 -1 -10 4 0 6 5 11 10 11 6 0 10 -2 10 -4z m2694 -21 c3 -8
1 -15 -4 -15 -6 0 -10 7 -10 15 0 8 2 15 4 15 2 0 6 -7 10 -15z m-1686 -84
c29 -16 49 -32 43 -35 -13 -8 -103 35 -109 52 -6 18 7 15 66 -17z m-152 -83
l19 -21 -27 18 c-29 18 -34 25 -20 25 5 0 17 -10 28 -22z m3254 -19 c0 -11 -8
-39 -19 -62 -10 -23 -22 -57 -26 -74 -3 -18 -11 -33 -16 -33 -16 0 -10 43 16
114 14 38 25 71 25 72 0 2 5 4 10 4 6 0 10 -9 10 -21z m-1945 -77 c-9 -9 -22
10 -29 43 l-7 30 21 -34 c12 -18 19 -36 15 -39z m24 -79 c12 -36 21 -74 21
-84 0 -10 4 -20 9 -24 6 -3 10 -13 10 -23 0 -9 2 -51 4 -92 3 -41 3 -61 1 -45
-11 78 -38 206 -55 259 -19 60 -22 76 -15 76 2 0 14 -30 25 -67z m391 -29 c17
-42 29 -78 26 -81 -7 -7 -66 122 -66 143 0 27 8 14 40 -62z m-1540 46 c0 -5
-5 -10 -11 -10 -5 0 -7 5 -4 10 3 6 8 10 11 10 2 0 4 -4 4 -10z m3054 -66 l18
-26 -31 16 c-31 17 -42 36 -18 36 6 0 20 -12 31 -26z m-1560 -62 c-7 -4 -14
-16 -16 -27 -5 -19 -5 -19 -13 -1 -8 18 7 36 30 36 6 0 5 -4 -1 -8z m86 -82
c5 0 10 -5 10 -11 0 -6 -13 -1 -30 11 -18 13 -30 30 -30 43 0 19 3 18 20 -10
11 -18 24 -33 30 -33z m1314 -82 c13 -21 14 -29 5 -21 -8 6 -23 26 -33 45 -13
21 -14 29 -5 21 8 -6 23 -26 33 -45z m-1339 -58 c3 -5 2 -10 -4 -10 -5 0 -13
5 -16 10 -3 6 -2 10 4 10 5 0 13 -4 16 -10z m-348 -32 c-3 -7 -5 -2 -5 12 0
14 2 19 5 13 2 -7 2 -19 0 -25z m1478 -70 c8 -39 7 -154 -2 -183 l-6 -20 -8
20 c-11 28 -11 215 0 215 5 0 12 -15 16 -32z m-1351 -80 c29 -3 32 -8 14 -26
-9 -9 -8 -12 5 -12 20 0 24 -45 5 -54 -10 -5 -10 -7 0 -12 6 -3 12 -10 12 -15
0 -5 -13 -3 -30 6 -27 14 -30 14 -30 0 0 -9 5 -13 10 -10 6 3 10 0 10 -8 0
-10 7 -13 20 -10 11 3 20 0 20 -6 0 -6 -9 -11 -20 -11 -28 0 -25 -28 3 -32 14
-2 22 -10 22 -23 0 -13 -8 -21 -22 -23 -29 -4 -29 -13 -2 -31 19 -11 21 -11
16 3 -4 9 -2 16 3 16 6 0 10 -18 10 -40 0 -37 -2 -40 -27 -40 -24 -1 -26 -2
-10 -11 9 -5 21 -8 26 -4 5 3 12 1 16 -5 6 -10 -12 -14 -46 -12 -9 1 -16 -5
-16 -13 0 -17 23 -20 32 -5 10 16 28 11 21 -6 -3 -8 -2 -12 4 -9 6 3 10 2 10
-3 0 -11 -65 -23 -86 -15 -8 3 -14 20 -15 42 -1 20 -3 67 -5 105 -3 48 0 73 9
79 9 7 9 10 0 14 -15 6 -17 39 -3 48 6 4 4 14 -5 28 -8 12 -13 42 -12 69 1 41
3 45 19 37 9 -5 28 -10 42 -11z m76 10 c0 -4 -7 -8 -15 -8 -8 0 -15 4 -15 8 0
5 7 9 15 9 8 0 15 -4 15 -9z m-183 -18 c-1 -21 -10 -18 -13 5 -1 8 2 15 6 15
5 0 8 -9 7 -20z m204 -24 c-9 -11 -9 -15 1 -19 9 -4 7 -6 -4 -6 -9 -1 -24 -4
-33 -7 -13 -5 -16 -2 -13 17 2 16 9 23 20 21 9 -1 20 2 23 8 4 6 9 9 12 6 3
-3 1 -12 -6 -20z m5 -57 c4 -8 9 -7 15 2 5 9 9 -7 9 -42 0 -43 -4 -58 -16 -63
-12 -4 -15 -2 -10 9 3 8 1 15 -3 15 -5 0 -11 -7 -15 -15 -8 -23 -26 -18 -26 8
0 16 3 18 9 9 6 -11 10 -10 15 3 3 10 12 15 21 11 10 -4 15 1 15 16 0 17 -3
19 -12 10 -17 -17 -45 -15 -52 4 -12 31 33 60 50 33z m801 -23 c24 -22 25 -69
4 -103 -22 -35 -36 -40 -63 -20 -21 17 -27 109 -8 131 14 17 45 14 67 -8z
m-2100 -33 c-3 -10 -5 -2 -5 17 0 19 2 27 5 18 2 -10 2 -26 0 -35z m1307 -69
c21 -8 21 -34 0 -34 -8 0 -12 5 -9 11 4 6 -2 5 -13 -2 -24 -15 -37 -7 -29 16
7 16 25 19 51 9z m-654 -118 c-4 -37 -14 -73 -20 -80 -9 -8 -11 -2 -6 29 3 22
8 62 12 88 4 27 10 45 15 40 4 -4 4 -39 -1 -77z m678 -6 c1 -56 -2 -70 -14
-70 -8 0 -12 5 -9 10 3 6 1 10 -4 10 -6 0 -11 -4 -11 -10 0 -5 -7 -10 -15 -10
-8 0 -15 9 -15 20 0 16 6 19 30 16 24 -3 30 0 30 15 0 17 -3 18 -21 7 -17 -11
-22 -10 -35 7 -15 21 -14 37 3 42 7 3 9 -4 6 -17 -5 -18 -2 -21 13 -18 12 2
18 11 16 23 -2 17 -1 17 7 5 9 -12 11 -11 11 6 0 19 -5 21 -35 18 -19 -1 -35
1 -35 7 0 5 17 9 39 9 l39 0 0 -70z m255 -90 c8 -31 -6 -24 -31 16 l-23 35 25
-16 c13 -9 26 -25 29 -35z m27 30 c0 -5 -2 -10 -4 -10 -3 0 -8 5 -11 10 -3 6
-1 10 4 10 6 0 11 -4 11 -10z m947 -115 c-6 -70 -5 -78 19 -115 15 -22 31 -40
35 -40 5 0 9 -5 9 -11 0 -7 -11 -5 -27 6 -54 33 -60 48 -62 144 -2 80 0 91 15
91 15 0 16 -9 11 -75z m-1329 46 c-7 -11 -15 -18 -18 -16 -9 5 -25 -7 -38 -30
-8 -14 -11 -15 -11 -5 -1 18 29 56 49 63 27 10 30 7 18 -12z m1492 -3 c19 -30
23 -108 5 -102 -27 11 -24 -16 4 -45 35 -36 26 -47 -23 -27 -39 16 -79 67 -58
74 16 5 16 23 0 20 -32 -7 -18 78 15 92 34 13 41 12 57 -12z m-2090 -3 c0 -8
-2 -15 -4 -15 -2 0 -6 7 -10 15 -3 8 -1 15 4 15 6 0 10 -7 10 -15z m590 -40
c0 -2 -9 -9 -20 -15 -16 -9 -20 -8 -20 5 0 8 9 15 20 15 11 0 20 -2 20 -5z
m-32 -38 c11 5 13 3 7 -6 -6 -10 0 -12 24 -6 20 4 31 3 31 -5 0 -6 -4 -9 -9
-6 -4 3 -6 -5 -4 -17 3 -13 -2 -29 -11 -36 -12 -10 -13 -18 -5 -32 14 -26 -10
-25 -45 2 -22 17 -26 28 -26 72 0 38 3 48 11 40 6 -6 18 -9 27 -6z m1696 -29
c-1 -24 -4 -43 -7 -43 -3 0 -13 -7 -23 -16 -11 -9 -30 -22 -44 -28 l-25 -12
23 18 c32 26 62 74 62 101 0 12 4 22 8 22 4 0 7 -19 6 -42z m-3088 -4 c-4 -9
-9 -15 -11 -12 -3 3 -3 13 1 22 4 9 9 15 11 12 3 -3 3 -13 -1 -22z m2041 -96
c-2 -13 -4 -3 -4 22 0 25 2 35 4 23 2 -13 2 -33 0 -45z m-495 9 c-12 -13 -19
-27 -15 -30 3 -4 -9 -7 -28 -6 -30 0 -32 1 -15 12 10 7 31 22 45 34 33 27 41
20 13 -10z m195 -169 c-2 -35 -3 -7 -3 62 0 69 1 97 3 63 2 -35 2 -91 0 -125z
m-920 150 c-3 -8 -6 -5 -6 6 -1 11 2 17 5 13 3 -3 4 -12 1 -19z m2103 -28 c12
-8 11 -10 -7 -10 -13 0 -23 5 -23 10 0 13 11 13 30 0z m186 -39 c27 -16 33
-27 38 -68 14 -118 15 -176 7 -288 l-8 -120 -2 167 c-1 136 -4 174 -18 205
-25 52 -32 58 -80 61 -48 3 -49 1 -29 -31 8 -12 17 -32 21 -44 6 -22 4 -23
-69 -23 -81 0 -106 13 -106 54 0 37 27 51 93 51 39 0 62 4 64 13 3 6 14 12 25
12 14 0 18 5 14 15 -7 20 13 19 50 -4z m-18 -77 c30 -20 28 -31 -5 -29 -21 1
-29 7 -31 23 -4 26 5 28 36 6z m-42 -173 c-4 -26 -1 -59 6 -78 10 -27 10 -38
0 -53 -15 -24 -16 -99 -2 -136 7 -18 7 -29 1 -34 -6 -3 -13 -32 -17 -64 -5
-44 -4 -57 4 -52 14 9 15 -4 2 -24 -8 -13 -10 -13 -10 1 0 21 -20 29 -76 29
-50 0 -84 25 -84 64 0 38 20 46 92 39 72 -6 84 1 74 43 -6 22 -11 24 -66 24
-71 0 -103 24 -98 75 l3 30 83 3 82 3 0 28 c0 24 -5 30 -31 35 -17 3 -50 6
-74 6 -55 0 -83 28 -69 68 8 23 17 28 54 32 25 3 65 5 88 5 l44 0 -6 -44z
m-2582 -131 c25 -12 46 -23 46 -26 0 -3 -29 -4 -65 -3 -66 2 -91 19 -57 38 23
14 23 14 76 -9z m92 -78 c-3 -5 8 -6 25 -4 24 4 29 1 29 -17 0 -29 -26 -37
-50 -16 -21 19 -27 45 -9 45 5 0 8 -4 5 -8z m1181 -29 c-3 -10 -5 -4 -5 12 0
17 2 24 5 18 2 -7 2 -21 0 -30z m1379 -20 c-8 -57 -26 -82 -26 -35 0 18 5 32
10 32 7 0 7 6 0 19 -14 27 -13 31 6 31 14 0 16 -8 10 -47z m-1379 -65 c-3 -7
-5 -2 -5 12 0 14 2 19 5 13 2 -7 2 -19 0 -25z m-1143 -39 c10 -52 7 -86 -10
-100 -14 -11 -18 -11 -29 4 -12 16 -11 76 1 115 7 24 32 12 38 -19z m2436
-163 c0 -24 2 -59 5 -77 5 -29 4 -30 -4 -11 -8 17 -18 22 -50 22 -80 0 -127
41 -102 89 10 18 21 21 81 21 l70 0 0 -44z m97 -13 c-3 -10 -5 -4 -5 12 0 17
2 24 5 18 2 -7 2 -21 0 -30z m-100 -179 l-2 -56 -55 6 c-30 4 -62 14 -72 23
-18 16 -25 63 -11 76 3 4 37 7 74 7 l67 0 -1 -56z m-607 1 c0 -8 -6 -15 -14
-15 -8 0 -16 7 -20 15 -4 10 1 15 14 15 11 0 20 -7 20 -15z m-10 -110 c0 -8
-6 -15 -14 -15 -8 0 -16 7 -20 15 -4 10 1 15 14 15 11 0 20 -7 20 -15z m606
-19 c1 0 4 -30 7 -65 3 -36 2 -60 -1 -54 -4 6 -29 14 -57 18 -27 4 -55 14 -62
23 -13 18 -17 74 -6 86 6 5 114 -2 119 -8z m51 -38 c-3 -8 -6 -5 -6 6 -1 11 2
17 5 13 3 -3 4 -12 1 -19z m-649 -47 c-4 -19 -27 -25 -47 -12 -12 8 -12 12 -2
24 15 19 53 10 49 -12z m649 7 c-3 -8 -6 -5 -6 6 -1 11 2 17 5 13 3 -3 4 -12
1 -19z m-656 -94 c20 -18 15 -44 -10 -44 -27 0 -55 25 -48 44 8 20 35 21 58 0z
m597 -2 c7 -2 12 -22 12 -48 0 -24 5 -44 10 -44 6 0 10 -18 10 -41 0 -25 -4
-38 -11 -34 -5 4 -8 12 -6 18 8 21 -14 48 -36 47 -40 -4 -55 0 -71 16 -16 16
-22 75 -9 88 8 7 77 6 101 -2z m-586 -108 c10 -22 10 -28 -6 -39 -15 -12 -23
-11 -52 3 -38 18 -41 24 -18 46 25 25 63 20 76 -10z m581 -1094 c-7 -8 -23 24
-22 45 0 15 3 13 13 -10 7 -16 11 -32 9 -35z"/>
<path d="M2656 3834 c-5 -14 -4 -15 9 -4 17 14 19 20 6 20 -5 0 -12 -7 -15
-16z"/>
<path d="M2673 3813 c-13 -5 -19 -33 -7 -33 15 0 44 22 39 31 -7 10 -13 10
-32 2z"/>
<path d="M2666 3661 c-8 -12 20 -22 39 -15 19 8 9 24 -15 24 -10 0 -21 -4 -24
-9z"/>
<path d="M2682 3575 c-11 -13 -9 -15 14 -15 22 0 25 2 14 15 -15 18 -12 18
-28 0z"/>
<path d="M2745 3771 c-8 -15 3 -31 21 -31 9 0 14 7 12 17 -4 20 -24 28 -33 14z"/>
<path d="M2 7513 c3 -144 4 -148 25 -151 12 -2 25 -12 28 -23 4 -10 10 -19 15
-19 4 0 18 -21 31 -47 12 -27 40 -76 62 -111 33 -53 38 -68 33 -98 l-7 -35 40
21 c48 24 64 25 81 5 22 -27 -1 -62 -41 -62 -18 0 -35 -5 -37 -11 -2 -7 -12
-12 -21 -12 -27 0 -150 -110 -150 -135 -1 -5 21 13 47 41 45 48 86 73 99 60 8
-8 -34 -44 -72 -63 -16 -8 -45 -31 -63 -51 -22 -26 -31 -31 -27 -17 3 11 -5 0
-17 -25 -23 -44 -23 -52 -26 -447 -2 -357 -1 -403 13 -403 9 0 20 11 25 25 5
14 15 26 22 27 7 0 18 2 23 2 6 1 17 5 25 10 12 7 13 6 3 -5 -15 -15 -17 -39
-4 -39 5 0 11 8 14 18 4 16 4 16 12 -2 5 -11 3 -21 -4 -25 -7 -5 0 -17 21 -37
l32 -29 -18 28 c-22 36 -15 47 8 12 10 -16 15 -35 11 -48 -5 -17 -4 -19 4 -7
9 13 12 12 25 -5 9 -11 13 -26 11 -33 -3 -7 -1 -11 4 -8 5 3 24 -18 42 -47 18
-28 41 -60 52 -71 10 -10 16 -24 13 -31 -3 -8 -1 -29 4 -47 9 -31 9 -32 -7
-13 -15 19 -15 19 -9 -7 6 -25 3 -28 -18 -28 -22 0 -25 -5 -30 -42 -13 -102
-13 -148 -1 -158 8 -7 13 -43 14 -98 2 -111 8 -132 35 -133 48 -3 122 3 130
11 5 5 31 6 57 3 52 -6 55 -4 38 29 -11 20 -9 20 22 -3 50 -35 79 -49 104 -49
27 0 58 27 52 44 -3 6 -22 49 -42 96 -79 180 -90 224 -90 360 0 86 3 101 31
160 39 83 137 235 142 221 2 -6 8 -9 13 -6 5 4 6 -1 3 -9 -3 -9 -10 -13 -16
-10 -5 3 -8 -2 -6 -12 2 -11 -2 -18 -9 -17 -28 6 -102 -130 -128 -233 -17 -70
-20 -182 -5 -228 5 -17 16 -56 25 -86 20 -68 105 -250 117 -250 5 0 6 6 2 13
-6 9 -4 9 7 1 8 -7 28 -10 44 -8 48 6 63 -4 67 -39 3 -31 4 -32 56 -35 55 -3
56 -2 52 49 -1 26 24 57 34 41 3 -5 29 -10 57 -11 l51 -1 -7 38 c-15 81 -16
191 -4 272 7 47 15 87 19 90 3 3 14 25 25 50 11 25 27 52 36 61 15 15 20 14
59 -25 43 -41 85 -116 72 -126 -4 -3 -22 -24 -39 -47 -39 -49 -52 -102 -53
-202 l0 -73 28 8 c40 13 123 9 132 -6 11 -18 18 -2 28 66 11 64 3 140 -21 195
-8 19 -39 71 -70 117 -31 45 -54 82 -51 82 12 0 51 -24 77 -49 34 -31 97 -132
97 -155 0 -9 7 -16 16 -16 10 0 14 6 11 15 -7 18 4 26 21 16 10 -6 8 -18 -7
-53 -11 -26 -16 -50 -11 -58 5 -7 7 -18 5 -24 -2 -6 -6 -42 -10 -79 l-6 -68
43 4 c46 4 46 5 83 91 26 61 47 72 25 14 -17 -47 -23 -88 -13 -88 5 0 18 7 29
15 29 22 60 18 131 -15 48 -23 77 -30 122 -30 33 0 63 5 66 10 3 6 14 10 24
10 10 0 32 18 50 41 24 29 37 38 50 33 26 -12 101 -14 101 -2 0 5 7 8 15 4 10
-4 15 1 15 14 0 11 4 20 9 20 5 0 16 7 25 15 24 24 27 1 5 -39 -11 -21 -19
-39 -17 -41 9 -8 109 -11 114 -3 3 4 9 6 14 3 4 -3 13 2 20 10 47 57 37 404
-15 505 -8 16 -15 32 -15 35 0 13 22 -8 41 -39 10 -17 19 -28 19 -23 0 4 9 -2
20 -13 12 -12 18 -25 15 -30 -3 -5 0 -8 7 -5 7 3 30 -13 52 -35 21 -22 43 -40
48 -40 6 0 8 -9 5 -19 -3 -13 0 -18 8 -15 6 3 34 -15 61 -39 l50 -45 -2 -60
c-1 -34 -7 -84 -14 -112 -7 -27 -9 -57 -6 -66 5 -13 10 -12 35 8 17 13 30 31
30 41 1 9 5 17 11 17 5 0 14 15 19 33 l9 32 2 -30 c1 -16 6 -39 11 -50 7 -15
8 -12 4 15 l-5 35 13 -32 c22 -59 37 -61 22 -3 -8 29 -12 57 -9 61 10 17 -19
97 -47 130 -16 19 -29 36 -29 39 0 3 -20 18 -45 33 -47 30 -62 47 -23 26 12
-7 39 -11 59 -11 21 1 61 -3 90 -8 48 -9 55 -8 74 10 l20 21 -33 -12 c-27 -9
-40 -8 -70 4 -20 9 -48 19 -61 23 -53 14 -191 142 -227 209 -63 117 -63 119
-17 242 8 23 12 46 9 52 -9 14 12 53 24 46 5 -3 18 7 28 24 16 26 33 47 119
150 22 25 30 51 17 51 -3 0 -25 -14 -48 -32 -26 -20 -13 -3 39 50 44 45 84 82
90 82 17 0 65 46 57 55 -4 4 8 5 27 3 31 -4 32 -4 16 9 -18 12 -18 13 3 13 22
0 30 14 13 24 -15 10 -144 -61 -211 -117 -102 -84 -204 -212 -274 -342 -15
-27 -36 -64 -47 -82 -11 -17 -26 -60 -34 -95 -7 -35 -14 -51 -14 -36 -1 27
-21 51 -21 26 -1 -7 -16 4 -35 25 -18 22 -31 45 -29 52 3 7 1 16 -5 20 -6 3
-11 11 -11 16 0 5 18 -9 40 -32 22 -23 37 -46 33 -52 -3 -6 -1 -7 6 -3 7 5 9
16 5 29 -6 19 -5 20 9 8 15 -12 15 -10 1 18 -9 17 -20 31 -25 31 -6 0 -7 5 -4
10 9 15 25 12 25 -5 0 -8 5 -15 10 -15 6 0 10 6 10 13 0 8 4 7 10 -3 6 -9 10
-10 10 -3 0 7 -10 17 -21 24 -17 9 -19 13 -8 19 8 5 18 2 26 -8 8 -10 7 -2 -3
18 -16 34 -16 34 1 20 17 -14 17 -14 2 17 -10 18 -16 47 -16 65 1 30 2 29 8
-10 9 -53 29 -77 23 -27 -2 19 1 42 8 50 10 12 9 15 -4 15 -21 0 -22 56 -1 64
20 7 19 36 -1 36 -8 0 -13 -4 -10 -9 3 -5 -1 -14 -9 -21 -8 -7 -15 -21 -15
-31 0 -12 -7 -19 -20 -19 -11 0 -20 -4 -20 -10 0 -5 -9 -10 -19 -10 -11 0 -21
-4 -23 -9 -1 -5 -28 -11 -58 -12 l-55 -3 -3 62 c-3 54 -6 62 -22 62 -13 0 -20
7 -20 20 0 11 -4 20 -10 20 -5 0 -14 -9 -20 -20 -17 -32 -26 -24 -39 36 -7 30
-15 53 -18 51 -2 -3 -8 -27 -12 -54 l-7 -48 -12 65 c-6 36 -18 70 -26 75 -8 6
-16 22 -18 35 -1 13 -9 25 -17 28 -9 3 -11 -1 -7 -14 3 -11 13 -59 21 -109 23
-130 8 -328 -28 -370 -5 -6 -5 -3 -1 8 5 13 2 16 -10 11 -11 -4 -16 -1 -16 10
0 11 7 16 18 14 15 -3 17 7 19 87 2 109 -23 278 -48 322 -12 22 -16 43 -12 67
7 44 -11 98 -53 157 -61 87 -111 127 -224 178 -40 18 -128 39 -135 33 -4 -4
-31 -12 -61 -19 -128 -30 -160 -39 -180 -51 -18 -9 -24 -9 -34 3 -9 10 -29 14
-64 13 -50 -1 -50 -2 -8 -5 23 -2 42 -9 42 -15 0 -7 -19 -9 -52 -6 -49 5 -55
3 -86 -28 -34 -34 -52 -42 -52 -24 0 6 7 10 15 10 8 0 15 4 15 9 0 13 -94 19
-102 7 -4 -6 -2 -13 5 -15 6 -2 18 -10 26 -18 12 -12 6 -14 -41 -11 -31 2 -61
9 -67 16 -9 9 -8 12 4 12 8 0 15 5 15 10 0 6 -7 10 -15 10 -8 0 -15 5 -15 10
0 6 7 10 15 10 8 0 15 6 15 13 0 18 -61 9 -75 -10 -9 -12 -15 -10 -34 11 -14
15 -19 26 -13 26 7 0 12 5 12 12 0 6 -3 9 -6 5 -8 -8 -64 13 -64 24 0 5 -9 9
-20 9 -11 0 -20 4 -20 9 0 12 -125 67 -193 84 -36 10 -65 24 -76 39 -10 12
-36 44 -57 70 -45 54 -125 210 -144 281 -7 26 -17 50 -21 53 -5 3 -9 29 -9 59
0 44 -4 57 -22 69 -12 9 -31 16 -41 16 -17 0 -18 -10 -15 -147z m1373 -623
c25 -1 -25 -20 -72 -26 -34 -4 -62 -15 -80 -30 -16 -13 -32 -24 -36 -24 -5 0
-36 -26 -69 -57 -46 -44 -71 -80 -103 -145 -24 -48 -45 -84 -48 -81 -3 3 -3
12 0 21 4 10 3 14 -1 11 -4 -4 -18 -37 -30 -73 -22 -62 -24 -64 -29 -36 -11
53 13 141 56 205 44 64 174 195 194 195 7 0 13 4 13 9 0 6 21 13 48 16 26 3
54 10 62 14 8 4 30 6 50 5 19 -2 40 -3 45 -4z m197 -22 c24 -12 34 -56 17 -74
-15 -15 -10 -16 -108 41 -28 17 -51 33 -51 37 0 18 106 15 142 -4z m-1192 -28
c11 -5 29 -14 40 -20 11 -5 28 -10 39 -10 20 0 101 -86 101 -107 0 -6 -6 -13
-12 -16 -10 -4 -10 -7 0 -18 10 -11 12 -11 13 2 0 7 4 4 10 -9 5 -13 14 -20
20 -16 6 3 15 0 20 -7 13 -22 11 -33 -5 -20 -12 10 -16 6 -25 -22 -7 -19 -9
-41 -5 -50 3 -10 1 -17 -5 -17 -6 0 -11 17 -11 40 0 30 -4 40 -16 40 -14 0
-14 -3 -4 -15 10 -12 10 -19 2 -27 -9 -9 -16 -7 -27 8 -14 18 -16 18 -19 -8
-1 -7 -7 -12 -13 -11 -6 1 -14 -4 -17 -12 -3 -8 -1 -15 4 -15 15 0 11 -32 -5
-54 -8 -10 -12 -23 -9 -28 3 -4 -5 -22 -17 -39 -12 -17 -23 -41 -24 -53 -3
-30 -4 -32 -13 -20 -4 5 -24 18 -44 27 -22 10 -38 25 -38 35 -1 16 -1 16 -11
-1 -5 -9 -7 -22 -4 -27 4 -7 -3 -8 -21 -4 -19 5 -25 4 -20 -5 4 -6 1 -11 -8
-11 -8 0 -17 -6 -19 -12 -3 -8 -6 -6 -6 4 -1 9 7 21 17 27 13 7 14 13 5 22 -9
9 -16 2 -33 -27 l-21 -39 5 40 c4 29 3 34 -4 20 -7 -16 -9 -11 -9 23 -1 23 -5
42 -9 42 -4 0 -2 -48 6 -107 17 -126 45 -194 106 -255 24 -24 32 -36 19 -29
-25 13 -91 97 -117 148 -9 18 -30 74 -48 125 -24 72 -32 111 -32 173 -1 75 18
164 44 205 14 22 23 5 10 -19 -8 -16 -8 -21 2 -21 7 0 34 30 59 67 38 56 80
93 127 112 1 1 11 -3 22 -9z m1044 -106 c9 -23 6 -24 -59 -31 -35 -4 -59 -11
-62 -20 -3 -7 -21 -20 -39 -28 -19 -8 -37 -22 -41 -32 -4 -10 -9 -20 -13 -23
-3 -3 -15 -18 -27 -35 -73 -107 -87 -280 -34 -423 38 -101 73 -170 87 -165 5
2 11 -8 12 -22 3 -42 -20 -29 -80 46 -49 61 -98 180 -98 237 0 10 -7 32 -15
49 -17 34 -21 153 -6 202 12 41 92 161 107 161 5 0 30 20 54 44 31 31 48 42
56 35 8 -7 14 -6 19 1 9 14 52 13 57 -2 4 -10 11 -8 29 4 31 22 45 22 53 2z
m91 -34 c3 -5 -1 -10 -10 -10 -14 0 -16 -7 -11 -42 7 -51 0 -41 -13 20 -8 37
-7 42 9 42 11 0 22 -4 25 -10z m166 -91 c4 -19 10 -43 14 -54 5 -11 5 -17 0
-13 -4 4 -14 3 -21 -3 -20 -16 -34 -1 -34 37 0 19 -4 34 -9 34 -7 0 -8 16 -2
54 3 21 47 -25 52 -55z m-821 -20 c12 -38 19 -80 17 -92 -5 -28 -10 -15 -31
79 -17 78 -18 84 -11 84 2 0 14 -32 25 -71z m705 50 c6 -19 0 -38 -9 -28 -10
12 -16 49 -7 49 5 0 13 -9 16 -21z m180 -42 c0 -26 -18 -25 -20 1 -1 12 3 21
9 19 6 -2 11 -11 11 -20z m-1129 -41 c3 -19 0 -26 -11 -26 -15 0 -22 40 -8 53
9 10 13 4 19 -27z m721 -148 c-2 -24 -4 -5 -4 42 0 47 2 66 4 43 2 -24 2 -62
0 -85z m-599 -90 c-2 -64 -6 -114 -10 -112 -3 2 -6 -12 -5 -32 1 -19 -5 -39
-12 -43 -6 -4 -11 -12 -9 -17 5 -18 -27 -74 -40 -69 -7 3 -10 0 -7 -5 10 -16
-14 -50 -35 -50 -10 0 -30 -11 -44 -25 -33 -33 -132 -60 -182 -50 l-39 7 40
13 c51 16 105 45 84 45 -9 0 -24 10 -35 21 -19 22 -19 22 5 9 13 -7 37 -9 55
-6 22 4 27 3 16 -4 -20 -13 -4 -13 21 1 11 5 16 15 13 21 -4 6 -3 9 2 5 14 -8
38 14 59 56 11 22 28 55 39 75 22 44 35 112 46 247 4 55 9 102 10 105 1 3 8
-13 16 -35 11 -29 14 -72 12 -157z m869 160 c-3 -7 -5 -2 -5 12 0 14 2 19 5
13 2 -7 2 -19 0 -25z m-800 0 c-3 -8 -6 -5 -6 6 -1 11 2 17 5 13 3 -3 4 -12 1
-19z m632 -58 c2 -39 -1 -50 -14 -50 -11 0 -15 12 -15 50 0 35 4 50 13 50 9 0
14 -16 16 -50z m168 -32 c-2 -13 -4 -3 -4 22 0 25 2 35 4 23 2 -13 2 -33 0
-45z m-791 5 c-11 -11 -19 6 -11 24 8 17 8 17 12 0 3 -10 2 -21 -1 -24z m704
-63 c0 -36 -2 -40 -25 -40 -22 0 -25 4 -25 40 0 36 3 40 25 40 23 0 25 -4 25
-40z m90 -75 l-7 -50 -1 65 c-1 39 2 59 7 50 4 -8 5 -37 1 -65z m-250 20 c0
-8 -4 -15 -10 -15 -5 0 -7 7 -4 15 4 8 8 15 10 15 2 0 4 -7 4 -15z m160 -5 c0
-5 -18 -10 -40 -10 -22 0 -40 5 -40 10 0 6 18 10 40 10 22 0 40 -4 40 -10z
m-649 -76 c-13 -56 -28 -75 -41 -53 -5 7 -3 21 6 33 8 11 14 32 14 46 0 29 22
59 29 39 2 -6 -2 -36 -8 -65z m1229 1 c14 -8 21 -14 15 -14 -5 0 -21 6 -35 14
-14 8 -20 14 -15 14 6 0 21 -6 35 -14z m360 -25 c-6 -12 -8 -29 -5 -40 3 -11
1 -28 -5 -37 -8 -15 -9 -12 -5 12 3 17 -6 3 -21 -32 -15 -35 -29 -61 -32 -59
-8 9 61 176 74 176 2 0 0 -9 -6 -20z m-303 -37 c-3 -10 -5 -2 -5 17 0 19 2 27
5 18 2 -10 2 -26 0 -35z m-37 27 c0 -13 -11 -13 -30 0 -12 8 -11 10 8 10 12 0
22 -4 22 -10z m-1820 -30 c0 -5 -2 -10 -4 -10 -3 0 -8 5 -11 10 -3 6 -1 10 4
10 6 0 11 -4 11 -10z m50 -50 c0 -5 -2 -10 -4 -10 -3 0 -8 5 -11 10 -3 6 -1
10 4 10 6 0 11 -4 11 -10z m474 -14 c-3 -9 -10 -16 -15 -16 -5 0 -4 9 3 20 14
22 21 20 12 -4z m794 -18 l8 -33 18 30 c11 19 26 31 42 31 29 2 29 2 1 -68
-24 -59 -133 -200 -169 -219 -11 -6 -18 -13 -15 -15 5 -5 65 14 99 32 63 34
64 8 1 -39 -56 -41 -89 -51 -85 -25 3 22 -28 31 -62 18 -38 -14 -89 -13 -111
4 -17 12 -15 15 28 34 28 13 47 27 47 37 0 10 7 15 18 14 32 -5 70 24 155 120
26 30 35 47 20 38 -5 -3 -9 13 -10 34 -1 47 4 50 15 7z m448 -6 c22 -11 50
-32 64 -47 l25 -27 -38 25 c-44 30 -76 42 -85 32 -4 -3 0 -10 8 -15 17 -11 9
-13 -14 -4 -9 3 -16 12 -16 19 0 15 -43 25 -87 19 -19 -2 -33 1 -33 7 0 6 4 8
9 4 5 -3 13 0 17 6 10 17 104 5 150 -19z m-119 -48 c-3 -3 -12 -4 -19 -1 -8 3
-5 6 6 6 11 1 17 -2 13 -5z m190 -60 c-3 -3 -15 10 -27 28 l-23 33 28 -28 c15
-16 25 -31 22 -33z m-204 39 c-7 -3 -13 -12 -14 -21 0 -14 -2 -14 -6 -2 -3 8
-10 18 -16 21 -5 4 4 6 19 6 16 0 23 -2 17 -4z m267 -58 c0 -11 -14 7 -31 40
-7 13 -3 12 10 -5 11 -14 21 -29 21 -35z m-327 -18 c-8 -12 -66 -176 -85 -238
-10 -32 -8 -42 24 -105 22 -43 41 -70 52 -71 16 -1 17 6 12 73 -3 46 -2 74 4
74 6 0 10 -7 10 -16 0 -9 7 -14 18 -12 9 2 16 11 16 21 -1 9 1 15 5 12 8 -4
51 86 51 105 0 6 5 10 10 10 6 0 10 7 10 16 0 8 3 13 8 11 10 -7 32 19 24 27
-3 4 1 4 11 0 11 -4 17 -1 17 9 0 8 10 17 23 21 12 3 37 19 55 37 17 17 32 26
32 19 0 -8 3 -10 7 -7 8 9 29 -18 52 -69 18 -40 18 -104 0 -104 -5 0 -9 -6 -9
-14 0 -8 -7 -16 -15 -20 -8 -3 -15 -12 -15 -20 0 -8 -9 -30 -19 -48 -11 -18
-23 -50 -26 -70 -5 -23 -13 -38 -22 -38 -8 0 -11 -4 -8 -10 3 -5 2 -10 -4 -10
-14 0 -49 53 -44 68 3 6 -2 12 -10 12 -20 0 -77 -66 -77 -90 0 -10 -4 -22 -10
-25 -5 -3 -10 -20 -10 -36 0 -27 -3 -30 -27 -27 -16 2 -28 9 -29 18 0 8 -6 28
-12 43 -13 32 -36 27 -26 -5 3 -11 3 -54 -1 -95 -6 -68 -9 -75 -33 -84 -23 -9
-30 -7 -49 16 -13 14 -23 35 -23 45 0 10 -11 31 -25 46 -14 15 -25 33 -25 41
0 8 -4 11 -10 8 -6 -4 -7 1 -3 11 5 13 3 15 -7 9 -7 -5 -11 -4 -7 1 3 5 8 30
12 54 7 52 34 130 69 198 13 26 32 75 42 107 9 33 20 67 25 75 4 8 14 30 21
47 12 30 13 31 20 12 5 -12 5 -26 1 -32z m-1150 -2 c-3 -9 -8 -14 -10 -11 -3
3 -2 9 2 15 9 16 15 13 8 -4z m1531 -11 c10 -25 -1 -29 -14 -5 -6 12 -7 21 -1
21 5 0 12 -7 15 -16z m96 -17 c-1 -21 -1 -21 -15 -3 -8 10 -12 23 -9 28 9 14
24 -2 24 -25z m-1834 8 c-37 -28 -165 -31 -181 -4 -4 6 13 7 47 3 29 -3 71 -1
93 4 56 14 63 13 41 -3z m1900 -52 c23 -31 24 -34 5 -18 -22 19 -46 55 -38 55
3 0 17 -17 33 -37z m-2017 -155 c13 -29 27 -61 32 -70 5 -10 9 -23 9 -30 -1
-12 -90 156 -90 169 0 17 29 -24 49 -69z m1566 63 c3 -5 1 -12 -5 -16 -5 -3
-10 1 -10 9 0 18 6 21 15 7z m575 -48 c0 -7 -58 36 -66 49 -4 7 9 -1 29 -16
20 -16 37 -30 37 -33z m-1150 13 c0 -8 -4 -18 -10 -21 -5 -3 -10 3 -10 14 0
12 5 21 10 21 6 0 10 -6 10 -14z m-1010 -96 c6 -11 8 -20 6 -20 -3 0 -10 9
-16 20 -6 11 -8 20 -6 20 3 0 10 -9 16 -20z m220 -110 c0 -13 -1 -13 -10 0 -5
8 -10 22 -10 30 0 13 1 13 10 0 5 -8 10 -22 10 -30z m746 21 c-4 -5 -1 -11 5
-13 7 -2 10 -9 8 -15 -3 -7 -12 -7 -29 -1 -24 9 -24 10 -6 24 23 16 30 18 22
5z m-1039 -243 c-2 -13 -4 -3 -4 22 0 25 2 35 4 23 2 -13 2 -33 0 -45z"/>
<path d="M270 6390 c0 -5 5 -10 10 -10 6 0 10 5 10 10 0 6 -4 10 -10 10 -5 0
-10 -4 -10 -10z"/>
<path d="M1723 5494 c-9 -16 -9 -30 -1 -57 21 -69 36 -30 19 48 -7 29 -7 29
-18 9z"/>
<path d="M3042 7343 c-5 -10 -10 -40 -11 -68 -2 -27 -8 -101 -15 -162 -6 -62
-11 -113 -9 -113 15 0 89 332 78 350 -10 16 -34 12 -43 -7z"/>
<path d="M3686 7231 c-4 -5 -1 -11 6 -13 6 -2 -15 -5 -48 -5 -89 -2 -94 -2
-94 -12 0 -4 23 -11 50 -14 68 -8 160 -51 211 -98 23 -22 46 -39 51 -39 18 0
-27 66 -79 117 -60 59 -89 78 -97 64z"/>
<path d="M3368 7202 c-21 -14 -38 -34 -38 -44 0 -10 2 -18 4 -18 2 0 41 14 85
31 94 36 108 60 34 58 -34 -1 -59 -9 -85 -27z"/>
<path d="M3875 7018 c4 -13 11 -27 16 -33 5 -5 4 5 -2 23 -12 36 -24 44 -14
10z"/>
<path d="M1135 6930 c3 -5 18 -10 32 -10 32 0 28 5 -10 14 -19 4 -26 3 -22 -4z"/>
<path d="M2862 6533 c-11 -16 -21 -32 -23 -38 -2 -5 -8 -9 -12 -7 -15 5 -47
-19 -47 -34 0 -8 5 -12 10 -9 14 9 13 3 -10 -50 -14 -34 -28 -50 -50 -58 -25
-10 -31 -19 -41 -67 -6 -30 -20 -91 -30 -134 -19 -81 -18 -112 1 -60 9 23 13
25 20 14 8 -12 10 -10 10 8 0 12 3 22 8 22 4 0 8 16 8 35 1 19 2 43 3 53 0 10
15 40 32 66 28 42 35 46 59 41 24 -5 31 -1 47 27 20 33 23 68 8 101 -8 19 14
47 48 60 20 7 22 28 5 45 -17 17 -24 15 -46 -15z"/>
<path d="M2240 6404 c0 -8 5 -12 10 -9 6 3 10 10 10 16 0 5 -4 9 -10 9 -5 0
-10 -7 -10 -16z"/>
<path d="M2240 6355 c0 -8 5 -15 10 -15 6 0 10 7 10 15 0 8 -4 15 -10 15 -5 0
-10 -7 -10 -15z"/>
<path d="M2300 6355 c0 -8 5 -15 10 -15 6 0 10 7 10 15 0 8 -4 15 -10 15 -5 0
-10 -7 -10 -15z"/>
<path d="M2365 6230 c-3 -5 -2 -10 4 -10 5 0 13 5 16 10 3 6 2 10 -4 10 -5 0
-13 -4 -16 -10z"/>
<path d="M2360 6200 c0 -5 5 -10 11 -10 5 0 7 5 4 10 -3 6 -8 10 -11 10 -2 0
-4 -4 -4 -10z"/>
<path d="M2572 5958 c-7 -7 -12 -21 -12 -32 0 -11 -5 -34 -12 -53 -11 -29 -10
-35 12 -58 13 -14 27 -22 31 -18 11 12 39 135 33 144 -11 19 -41 28 -52 17z"/>
<path d="M271 5714 c0 -11 3 -14 6 -6 3 7 2 16 -1 19 -3 4 -6 -2 -5 -13z"/>
<path d="M310 5670 c-13 -8 -12 -10 3 -10 9 0 17 5 17 10 0 12 -1 12 -20 0z"/>
<path d="M2447 5463 c-4 -3 -7 -18 -6 -32 1 -26 1 -25 10 3 9 31 7 41 -4 29z"/>
<path d="M4515 5381 c3 -30 11 -62 16 -70 7 -11 8 0 4 38 -3 30 -11 62 -16 70
-7 11 -8 0 -4 -38z"/>
<path d="M2431 5344 c0 -11 3 -14 6 -6 3 7 2 16 -1 19 -3 4 -6 -2 -5 -13z"/>
<path d="M2451 5344 c0 -11 3 -14 6 -6 3 7 2 16 -1 19 -3 4 -6 -2 -5 -13z"/>
<path d="M2730 5247 c-13 -23 -23 -45 -22 -49 3 -13 -47 -41 -62 -35 -19 8
-59 -54 -50 -77 5 -12 16 -16 43 -14 33 3 36 0 39 -25 2 -15 12 -32 23 -37 15
-8 19 -8 17 2 -2 8 7 13 22 13 15 0 26 7 28 18 4 20 -9 22 -26 5 -10 -10 -17
-7 -34 10 l-22 22 22 22 c21 22 22 22 36 3 8 -11 17 -17 21 -14 10 10 9 130
-1 166 l-9 32 -25 -42z"/>
<path d="M2693 4937 c-13 -5 -25 -19 -29 -31 -3 -12 -14 -30 -23 -41 -9 -11
-22 -30 -29 -42 -10 -19 -10 -23 2 -23 8 0 17 4 21 10 3 5 12 7 19 4 8 -3 20
9 30 33 10 21 22 48 28 60 15 30 7 42 -19 30z"/>
<path d="M2270 4918 c-20 -6 -25 -14 -24 -40 3 -76 58 -118 114 -88 20 11 22
17 17 62 -4 28 -11 56 -17 63 -12 15 -52 16 -90 3z"/>
<path d="M1425 4888 c-14 -21 -21 -58 -10 -58 3 0 13 4 23 9 9 4 32 13 50 19
26 8 32 8 32 -4 0 -8 10 -14 26 -14 14 0 23 4 20 9 -3 4 8 7 24 5 25 -3 30 0
30 17 0 24 -5 26 -102 33 -71 5 -78 4 -93 -16z"/>
<path d="M2835 4813 c4 -38 11 -76 16 -85 5 -9 9 -21 9 -27 0 -18 -18 -12 -22
7 -3 15 -5 14 -16 -4 -11 -20 -9 -22 23 -28 20 -4 36 -14 38 -24 9 -32 -5 103
-14 141 -6 20 -7 42 -4 47 3 6 1 10 -4 10 -6 0 -11 7 -11 15 0 8 -5 15 -11 15
-7 0 -8 -22 -4 -67z"/>
<path d="M265 4865 c-5 -2 -23 -6 -40 -10 l-30 -7 25 -13 c31 -18 46 -19 32
-2 -8 9 10 13 85 14 130 4 159 23 33 22 -52 0 -99 -2 -105 -4z"/>
<path d="M2881 4828 c1 -13 5 -36 9 -53 7 -27 8 -25 9 17 0 26 -3 50 -9 53 -6
3 -9 -4 -9 -17z"/>
<path d="M1846 4823 c-4 -4 -25 -6 -46 -4 -34 2 -40 0 -40 -18 0 -26 12 -32
71 -35 l50 -3 -3 30 c-3 30 -18 44 -32 30z"/>
<path d="M1963 4812 c-24 -2 -44 -9 -47 -18 -4 -11 6 -14 47 -15 29 0 46 -3
40 -6 -7 -2 -13 -9 -13 -14 0 -6 5 -7 10 -4 6 3 13 -1 16 -9 7 -17 39 -22 48
-7 3 5 -1 12 -10 15 -8 3 -13 10 -10 14 12 20 -39 47 -81 44z"/>
<path d="M318 4803 c7 -3 16 -2 19 1 4 3 -2 6 -13 5 -11 0 -14 -3 -6 -6z"/>
<path d="M621 4778 c-13 -4 -32 -6 -42 -3 -11 4 -19 2 -19 -4 0 -6 -8 -11 -17
-12 -10 0 2 -9 25 -20 42 -18 69 -18 57 1 -3 5 -1 11 5 15 6 4 10 -4 10 -19 0
-26 15 -43 24 -27 3 5 15 7 26 4 20 -5 20 -5 -2 30 -27 43 -36 47 -67 35z m49
-38 c0 -5 -4 -10 -10 -10 -5 0 -10 5 -10 10 0 6 5 10 10 10 6 0 10 -4 10 -10z"/>
<path d="M1900 4766 c0 -2 7 -6 15 -10 8 -3 15 -1 15 4 0 6 -7 10 -15 10 -8 0
-15 -2 -15 -4z"/>
<path d="M2131 4651 c-11 -7 -5 -13 24 -25 53 -22 62 -20 35 9 -25 27 -37 30
-59 16z"/>
<path d="M1401 4589 c1 -24 4 -35 6 -24 2 12 16 28 31 38 19 11 22 17 10 17
-9 0 -23 3 -32 6 -13 5 -16 -2 -15 -37z"/>
<path d="M4393 4613 c-18 -7 -16 -20 2 -20 8 0 15 6 15 14 0 7 -1 13 -2 12 -2
0 -9 -3 -15 -6z"/>
<path d="M1420 4565 c0 -9 6 -12 15 -9 8 4 12 10 9 15 -8 14 -24 10 -24 -6z"/>
<path d="M4338 4573 c6 -2 18 -2 25 0 6 3 1 5 -13 5 -14 0 -19 -2 -12 -5z"/>
<path d="M2810 4510 c0 -11 2 -20 4 -20 2 0 6 9 9 20 3 11 1 20 -4 20 -5 0 -9
-9 -9 -20z"/>
<path d="M190 4471 c0 -12 5 -21 10 -21 6 0 10 6 10 14 0 8 -4 18 -10 21 -5 3
-10 -3 -10 -14z"/>
<path d="M1146 4207 c3 -10 9 -15 12 -12 3 3 0 11 -7 18 -10 9 -11 8 -5 -6z"/>
<path d="M2514 3885 c-3 -8 -4 -20 -2 -27 3 -7 7 -1 10 15 6 29 1 36 -8 12z"/>
<path d="M1066 3791 c-27 -30 -14 -101 19 -101 12 0 12 4 -1 28 -19 37 -18 70
4 74 11 2 13 6 6 10 -6 4 -19 -1 -28 -11z"/>
<path d="M1120 3783 c0 -13 -4 -23 -10 -23 -13 0 0 -32 23 -54 16 -15 21 -16
28 -5 15 24 10 47 -16 76 -24 27 -24 27 -25 6z"/>
<path d="M1330 3465 c13 -14 26 -22 29 -19 3 4 0 9 -6 11 -7 3 -13 11 -13 19
0 8 -8 14 -17 14 -14 0 -12 -4 7 -25z"/>
<path d="M3112 3240 c0 -14 2 -19 5 -12 2 6 2 18 0 25 -3 6 -5 1 -5 -13z"/>
<path d="M3271 3044 c0 -11 3 -14 6 -6 3 7 2 16 -1 19 -3 4 -6 -2 -5 -13z"/>
<path d="M2698 2963 c6 -2 18 -2 25 0 6 3 1 5 -13 5 -14 0 -19 -2 -12 -5z"/>
<path d="M3022 2310 c0 -14 2 -19 5 -12 2 6 2 18 0 25 -3 6 -5 1 -5 -13z"/>
<path d="M2400 2160 c0 -13 11 -13 30 0 12 8 11 10 -7 10 -13 0 -23 -4 -23
-10z"/>
<path d="M4332 1245 c0 -16 2 -22 5 -12 2 9 2 23 0 30 -3 6 -5 -1 -5 -18z"/>
<path d="M4331 1104 c0 -11 3 -14 6 -6 3 7 2 16 -1 19 -3 4 -6 -2 -5 -13z"/>
<path d="M4341 914 c0 -11 3 -14 6 -6 3 7 2 16 -1 19 -3 4 -6 -2 -5 -13z"/>
<path d="M4362 720 c0 -14 2 -19 5 -12 2 6 2 18 0 25 -3 6 -5 1 -5 -13z"/>
</g>
</svg>
