<?xml version="1.0" standalone="no"?>
<!DOCTYPE svg PUBLIC "-//W3C//DTD SVG 20010904//EN"
 "http://www.w3.org/TR/2001/REC-SVG-20010904/DTD/svg10.dtd">
<svg version="1.0" xmlns="http://www.w3.org/2000/svg"
 width="564.000000pt" height="851.000000pt" viewBox="0 0 564.000000 851.000000"
 preserveAspectRatio="xMidYMid meet">

<g transform="translate(0.000000,851.000000) scale(0.100000,-0.100000)"
fill="#000000" stroke="none">
<path d="M3440 8504 c0 -3 14 -36 31 -72 17 -37 36 -78 42 -92 6 -14 11 -90
12 -170 2 -125 6 -157 29 -233 14 -49 33 -102 41 -117 10 -20 15 -59 15 -121
0 -95 13 -202 32 -254 16 -45 61 -135 68 -135 3 0 6 -51 6 -112 1 -138 18
-208 80 -329 25 -49 47 -106 49 -126 16 -168 32 -257 58 -328 40 -109 46 -148
46 -307 l1 -137 -25 24 c-24 24 -52 35 -40 15 14 -22 -36 -8 -81 23 -27 19
-110 70 -184 115 -75 44 -143 89 -152 99 -9 10 -34 54 -56 99 -52 104 -79 135
-145 169 -101 51 -148 95 -210 195 -31 52 -65 102 -75 112 -9 10 -64 41 -122
70 l-105 53 -42 75 c-74 133 -76 134 -198 197 l-114 58 -102 127 c-56 71 -106
128 -111 128 -5 0 -44 22 -87 50 -70 45 -86 61 -152 157 -127 186 -282 385
-323 415 -63 46 -132 56 -217 32 -22 -6 -39 -47 -39 -92 0 -33 22 -159 36
-206 9 -28 70 -91 128 -133 49 -35 102 -77 258 -200 146 -116 594 -495 618
-523 3 -3 50 -46 105 -94 55 -49 107 -96 115 -105 9 -9 43 -40 75 -70 215
-196 514 -504 891 -916 50 -55 108 -120 130 -145 21 -24 49 -56 62 -70 13 -14
35 -47 49 -75 33 -66 51 -85 79 -85 24 0 54 33 54 60 0 9 6 25 14 35 13 18 15
17 57 -18 57 -49 89 -49 139 1 23 23 42 53 48 77 5 22 14 61 20 88 19 76 15
107 -34 248 -163 475 -370 1254 -478 1804 -25 129 -116 709 -116 742 0 2 -12
3 -26 3 -24 0 -25 -2 -19 -47 l6 -48 -22 48 c-21 47 -22 47 -70 47 -27 0 -49
-3 -49 -6z m182 -413 c13 -34 41 -181 35 -187 -7 -7 -69 149 -72 182 -4 39 22
42 37 5z m-2019 -79 c35 -24 216 -240 217 -260 1 -4 14 -23 30 -42 17 -19 30
-41 30 -50 0 -10 -3 -11 -8 -4 -4 6 -26 23 -49 38 -24 14 -43 31 -43 38 0 6
-3 8 -7 5 -3 -4 -12 1 -20 11 -9 10 -11 11 -7 2 5 -8 -25 13 -65 48 -39 34
-75 62 -79 62 -4 0 -19 10 -34 23 -15 12 -44 35 -64 52 -21 16 -45 43 -55 59
l-18 30 27 13 c38 17 98 7 145 -25z m2078 -371 c5 9 11 10 17 4 12 -14 55
-180 50 -195 -7 -22 -88 146 -87 181 1 20 3 26 6 15 4 -15 7 -16 14 -5z
m-1691 -86 c13 -14 21 -25 18 -25 -2 0 -15 11 -28 25 -13 14 -21 25 -18 25 2
0 15 -11 28 -25z m111 -92 c13 -16 12 -17 -3 -4 -17 13 -22 21 -14 21 2 0 10
-8 17 -17z m1729 -373 c12 -41 26 -88 31 -104 5 -16 9 -34 9 -40 0 -17 -80
124 -84 149 -2 13 -9 32 -15 43 -15 28 -14 30 13 28 21 -1 27 -11 46 -76z
m143 -540 c25 -80 57 -192 71 -249 31 -123 85 -299 134 -433 l35 -98 -17 -45
c-22 -57 -40 -75 -75 -75 -31 0 -84 49 -100 93 -13 35 -33 444 -25 517 8 75
-10 167 -51 252 -29 60 -35 84 -35 137 0 38 4 61 9 56 5 -6 29 -75 54 -155z
m-43 -580 c0 -5 -4 -10 -10 -10 -5 0 -10 5 -10 10 0 6 5 10 10 10 6 0 10 -4
10 -10z m-145 -77 c22 -21 47 -49 56 -62 12 -20 24 -25 60 -25 48 -1 59 -14
74 -86 l8 -34 -35 30 c-19 16 -51 40 -71 53 -21 13 -44 36 -52 52 -9 16 -21
29 -28 29 -7 0 -31 18 -52 40 -32 33 -36 40 -20 40 11 0 38 -17 60 -37z m162
15 c-3 -8 -6 -5 -6 6 -1 11 2 17 5 13 3 -3 4 -12 1 -19z m-47 -189 c0 -6 -4
-7 -10 -4 -5 3 -10 11 -10 16 0 6 5 7 10 4 6 -3 10 -11 10 -16z m55 -59 c3 -5
1 -10 -4 -10 -6 0 -11 5 -11 10 0 6 2 10 4 10 3 0 8 -4 11 -10z m42 -52 c-3
-8 -6 -5 -6 6 -1 11 2 17 5 13 3 -3 4 -12 1 -19z"/>
<path d="M1188 8016 c-10 -7 -18 -18 -18 -25 0 -6 -4 -11 -8 -11 -5 0 -26 -39
-48 -87 -31 -71 -225 -383 -238 -383 -18 0 43 162 73 194 25 28 44 91 37 121
-3 13 -1 35 6 49 17 39 -3 79 -37 70 -17 -4 -25 -2 -25 7 -1 9 -8 5 -20 -10
-14 -16 -20 -38 -20 -70 0 -48 -62 -293 -100 -393 -17 -46 -35 -70 -87 -115
-92 -82 -115 -118 -159 -251 -38 -114 -41 -119 -115 -197 -91 -95 -109 -129
-138 -258 -23 -99 -23 -99 -94 -173 -96 -100 -103 -112 -132 -239 -15 -60 -35
-125 -46 -143 -17 -30 -19 -54 -19 -225 l0 -192 158 315 c87 173 171 340 188
370 17 30 52 96 79 145 26 50 64 118 84 152 20 34 59 101 87 150 28 48 95 158
149 243 54 85 105 169 115 185 9 17 39 64 65 105 27 41 61 97 77 123 15 26 33
53 38 60 6 7 31 44 57 82 25 39 70 96 98 127 59 64 71 92 79 191 5 63 4 68
-17 76 -15 6 -24 4 -30 -5 -12 -21 -29 -17 -22 6 7 23 6 24 -17 6z m-443 -716
c-16 -16 -33 -30 -39 -30 -5 0 3 14 19 30 16 17 33 30 39 30 5 0 -3 -13 -19
-30z m-55 -43 c0 -2 -10 -12 -22 -23 l-23 -19 19 23 c18 21 26 27 26 19z
m-554 -1054 l-26 -48 6 40 c4 22 14 48 23 58 26 30 24 2 -3 -50z"/>
<path d="M2287 5940 c-26 -10 -96 -54 -155 -97 -314 -232 -484 -348 -792 -543
-107 -67 -217 -137 -245 -155 -265 -169 -533 -320 -952 -536 l-143 -73 0 -133
c0 -73 1 -133 3 -133 2 0 22 9 45 20 23 11 71 27 108 36 37 8 88 26 113 38 40
21 148 101 176 132 24 26 80 57 117 66 22 5 75 22 117 38 63 25 88 41 146 100
85 86 125 111 235 145 96 31 127 51 208 137 65 67 127 107 257 164 99 43 136
66 217 136 47 41 97 67 218 113 285 109 464 186 493 213 11 9 25 29 33 44 16
31 44 167 44 213 0 33 -26 79 -40 70 -4 -3 -24 2 -44 10 -47 20 -100 18 -159
-5z m142 -131 c36 -13 38 -21 11 -59 -23 -32 -69 -53 -370 -165 -113 -42 -232
-87 -265 -101 l-60 -25 30 25 c17 14 70 39 118 56 49 18 94 39 100 47 24 29
87 93 90 91 1 -2 9 3 17 10 28 24 145 102 175 117 36 17 110 19 154 4z m-809
-463 c-19 -18 -260 -117 -260 -106 0 7 245 118 265 119 5 1 3 -5 -5 -13z
m-486 -314 c-12 -10 -59 -26 -105 -36 -46 -10 -92 -22 -101 -27 -11 -6 -18 -6
-18 0 0 12 63 36 135 51 33 7 67 16 75 21 26 15 36 9 14 -9z m-419 -248 c-11
-8 -31 -17 -45 -20 -14 -3 -63 -16 -110 -29 -46 -13 -86 -22 -88 -20 -8 8 48
29 143 55 120 33 126 34 100 14z m-460 -246 c-20 -12 -227 -59 -233 -53 -12
12 166 60 233 63 l20 1 -20 -11z"/>
<path d="M5579 5657 c-86 -41 -158 -105 -151 -135 2 -8 -1 -11 -7 -8 -5 4 -12
-3 -16 -14 -4 -11 -11 -17 -17 -14 -6 4 -8 3 -5 -3 12 -19 -38 -50 -113 -72
-71 -21 -171 -70 -194 -95 -23 -24 -93 -112 -108 -136 -9 -15 -66 -51 -144
-92 -71 -36 -142 -73 -158 -81 -16 -9 -50 -42 -76 -74 -33 -41 -62 -65 -96
-79 -482 -209 -568 -252 -590 -288 -37 -63 -19 -223 31 -275 33 -34 107 -40
166 -14 24 11 100 68 169 127 110 95 252 210 440 356 125 98 233 177 541 401
95 68 362 251 377 256 8 4 12 30 12 84 l0 79 -97 -67 c-162 -110 -430 -303
-619 -445 -196 -146 -234 -173 -189 -133 79 70 685 518 843 624 59 39 62 44
62 81 0 22 -3 40 -7 39 -5 0 -29 -10 -54 -22z m-879 -750 c0 -2 -10 -12 -22
-23 l-23 -19 19 23 c18 21 26 27 26 19z m-50 -41 c0 -2 -8 -10 -17 -17 -16
-13 -17 -12 -4 4 13 16 21 21 21 13z m-40 -30 c0 -2 -8 -10 -17 -17 -16 -13
-17 -12 -4 4 13 16 21 21 21 13z m-50 -40 c0 -2 -24 -23 -52 -46 l-53 -42 50
46 c50 46 55 49 55 42z m-110 -90 c0 -2 -8 -10 -17 -17 -16 -13 -17 -12 -4 4
13 16 21 21 21 13z m-95 -59 c-8 -13 -62 -65 -120 -116 -58 -51 -105 -96 -105
-101 0 -4 -16 -15 -36 -25 -45 -21 -97 -13 -131 21 l-26 26 46 42 c25 24 58
46 74 49 15 3 77 29 137 57 60 29 120 53 133 54 13 2 26 6 30 9 14 14 13 6 -2
-16z"/>
<path d="M2302 5345 c-11 -14 -26 -49 -32 -78 -7 -28 -17 -61 -22 -72 -22 -46
-94 -145 -105 -145 -7 0 -34 -13 -60 -30 -26 -16 -52 -30 -58 -30 -6 0 -22
-11 -35 -25 -25 -26 -40 -32 -40 -15 0 6 10 14 23 19 37 14 53 42 76 134 22
84 22 89 6 108 -21 22 -35 25 -35 5 0 -7 -9 -16 -21 -19 -20 -5 -20 -5 -3 14
11 12 13 19 5 19 -19 0 -59 -49 -66 -82 -7 -30 -214 -297 -276 -356 -31 -29
-114 -63 -184 -76 -39 -7 -71 -34 -163 -139 l-90 -102 -101 -39 c-110 -43
-128 -58 -222 -184 -45 -61 -64 -78 -115 -103 -34 -16 -71 -29 -81 -29 -36 0
-101 -58 -175 -156 -71 -94 -77 -99 -193 -166 -100 -58 -135 -85 -210 -162
-50 -52 -98 -98 -108 -103 -16 -8 -17 -24 -15 -165 l3 -155 140 125 c182 162
398 350 443 385 20 15 39 31 42 35 3 4 27 26 55 47 66 52 227 185 241 199 6 6
29 25 50 41 35 27 112 92 124 105 15 16 89 70 96 70 4 0 28 17 53 38 25 21 69
54 96 73 28 19 88 63 134 99 45 36 108 80 140 99 31 19 59 38 62 43 12 18 59
38 59 25 -1 -33 -62 -96 -139 -143 -45 -28 -93 -62 -106 -75 -14 -13 -51 -73
-83 -134 l-58 -110 -74 -42 c-101 -58 -130 -90 -198 -218 -56 -107 -62 -113
-171 -206 -92 -77 -123 -111 -162 -173 -63 -102 -65 -104 -199 -205 -63 -47
-162 -124 -220 -170 -231 -185 -240 -204 -197 -400 20 -90 49 -115 127 -109
76 5 120 38 210 161 41 54 83 108 94 121 12 13 48 58 80 100 32 42 68 87 80
100 12 12 44 51 71 86 28 34 68 83 91 109 59 66 131 148 194 221 30 35 63 72
73 84 10 12 37 43 60 71 23 27 53 61 67 76 14 15 61 67 105 115 103 114 305
322 374 388 30 28 122 117 205 199 82 81 151 147 152 147 13 0 -96 -286 -224
-586 -255 -596 -471 -1026 -819 -1627 -249 -431 -283 -486 -318 -512 -18 -14
-45 -43 -60 -65 -24 -35 -26 -43 -16 -71 6 -18 11 -46 11 -63 0 -17 7 -42 16
-54 14 -21 17 -21 44 -7 18 9 33 28 41 52 20 63 51 126 81 164 15 20 28 40 28
44 0 3 28 56 62 117 35 60 72 126 83 145 27 49 31 22 10 -72 -11 -49 -26 -86
-46 -111 -28 -35 -29 -42 -23 -93 4 -31 10 -66 15 -77 9 -26 -17 -53 -136
-139 -183 -134 -387 -311 -412 -359 -34 -66 -6 -282 45 -345 34 -43 58 -48
109 -26 70 31 78 34 124 43 39 8 57 5 128 -21 67 -24 81 -33 74 -46 -12 -25
-3 -171 13 -202 11 -23 23 -29 61 -34 113 -14 416 -87 463 -111 14 -7 64 -48
112 -91 85 -77 91 -80 205 -117 133 -43 162 -59 242 -129 74 -64 107 -81 232
-112 68 -17 118 -36 146 -56 41 -29 43 -29 175 -28 123 0 130 1 88 13 -25 6
-54 17 -65 24 -19 12 -18 12 5 8 14 -3 52 -10 85 -16 33 -6 72 -16 86 -21 14
-5 59 -9 100 -7 65 3 71 5 49 15 -207 94 -557 262 -680 326 -383 199 -1028
577 -1129 662 l-41 33 33 7 c17 4 37 11 42 16 6 4 20 8 30 7 18 0 130 16 385
56 52 9 113 20 135 26 22 5 105 20 185 31 80 12 170 25 200 30 30 5 80 12 110
15 30 2 85 9 122 14 37 6 71 9 75 8 5 -1 28 1 53 5 25 4 90 9 145 13 55 3 118
9 140 14 39 8 163 14 315 15 41 0 77 3 80 7 3 3 48 9 100 13 130 8 133 6 120
-111 -24 -217 -97 -612 -116 -635 -8 -8 -14 -22 -14 -30 0 -8 -14 -50 -30 -92
-29 -76 -30 -81 -20 -165 8 -70 14 -90 31 -105 27 -22 39 -18 61 19 18 31 22
58 37 249 5 66 17 154 25 195 9 41 18 93 22 115 3 22 12 46 19 54 20 21 49
-89 40 -149 -15 -88 1 -203 29 -222 24 -16 45 -7 55 24 15 48 16 137 2 183 -6
22 -18 107 -25 189 l-14 150 33 85 c33 87 43 124 50 180 5 35 38 75 63 77 9 1
77 4 150 9 74 4 147 11 164 16 42 12 91 64 83 89 -5 15 -2 20 11 20 10 0 15 3
11 6 -3 3 -30 -1 -61 -10 -68 -20 -112 -15 -226 27 -47 17 -87 32 -89 34 -2 1
2 9 8 17 10 11 10 20 1 36 -7 12 -8 26 -3 31 4 4 73 9 153 10 90 0 156 6 175
13 43 18 102 83 121 132 15 39 15 45 -1 77 -27 57 -56 70 -144 65 -79 -5 -318
-74 -555 -159 -110 -40 -112 -41 -216 -35 -101 5 -110 4 -248 -36 l-143 -42
-119 13 c-175 19 -293 -1 -357 -61 -21 -19 -28 -20 -105 -12 -199 21 -298 8
-388 -53 -33 -22 -43 -23 -208 -23 -193 0 -205 -3 -303 -71 l-59 -42 -203 17
c-293 24 -307 26 -307 43 0 12 11 13 57 7 53 -6 57 -6 44 10 -12 14 -11 16 3
16 9 0 16 4 16 9 0 5 8 11 17 15 10 3 28 10 40 15 21 10 21 9 -3 -26 -13 -20
-24 -40 -24 -44 0 -5 33 -9 73 -8 l72 0 80 109 c75 102 107 131 121 109 3 -5
13 -9 23 -9 10 0 23 -10 30 -23 7 -13 25 -31 41 -40 28 -17 29 -17 52 14 46
62 89 98 160 134 40 20 82 46 94 56 11 10 24 19 27 19 7 0 122 81 212 149 158
120 265 195 351 246 54 32 128 78 164 101 36 24 117 74 180 113 63 39 148 91
189 116 40 25 75 45 77 45 2 0 40 25 85 55 45 31 83 54 85 52 2 -2 -1 -18 -6
-37 -18 -63 13 -123 84 -165 53 -31 110 -32 286 -6 69 10 128 17 132 14 9 -5
7 -19 -11 -82 -14 -48 -31 -71 -55 -71 -8 0 -21 -6 -28 -13 -7 -7 -34 -21 -60
-31 -27 -10 -48 -22 -48 -27 0 -5 -8 -9 -18 -9 -10 0 -22 -4 -27 -9 -9 -9 -32
-6 -117 15 -23 5 -28 3 -34 -21 -5 -21 -1 -33 22 -56 l28 -29 115 7 c64 4 134
7 156 7 l40 1 3 -100 c2 -55 -2 -136 -8 -179 -5 -44 -7 -83 -3 -87 6 -6 145
34 161 47 2 1 -1 42 -7 91 -11 85 -10 92 17 178 38 120 59 135 181 134 47 0
111 -4 141 -9 38 -5 102 -2 205 10 166 20 202 19 290 -4 86 -23 142 -20 247
14 99 32 131 35 193 19 81 -21 167 -28 220 -17 17 3 65 18 109 32 81 27 102
28 254 10 33 -3 86 -3 116 0 l56 7 0 94 0 93 -33 0 c-18 0 -78 10 -132 22
-114 25 -153 22 -286 -16 l-87 -25 -113 34 c-127 39 -160 38 -289 -2 -83 -26
-91 -26 -186 4 -131 43 -155 45 -316 27 -127 -14 -157 -14 -206 -3 -112 26
-205 25 -382 -7 -230 -42 -413 -66 -442 -59 -38 10 -117 75 -124 103 -8 30 27
84 69 109 36 21 84 21 252 0 178 -22 168 -17 160 -75 -4 -27 -4 -53 -1 -58 4
-6 26 -5 58 2 48 10 53 14 56 41 6 50 18 57 86 51 330 -31 806 -62 1186 -77
322 -12 730 -4 730 15 0 8 -104 11 -397 12 -384 0 -611 10 -1153 49 -245 18
-626 52 -730 65 -101 13 -153 14 -225 6 -67 -8 -68 -11 15 54 44 34 243 156
307 188 74 37 78 30 78 -124 l0 -124 25 0 c14 0 41 -3 61 -6 l37 -6 21 90 c13
54 21 123 21 175 0 47 5 98 11 114 9 26 51 73 64 73 3 0 38 22 78 48 87 59
306 191 364 221 52 26 59 38 68 124 7 67 -2 97 -27 97 -6 0 -6 -5 1 -14 16
-19 -12 -40 -44 -32 -28 7 -82 -17 -210 -95 -99 -60 -152 -82 -160 -69 -7 12
39 95 93 165 20 28 67 72 102 98 113 83 121 93 109 121 -11 23 -12 23 -30 5
-20 -20 -59 -26 -59 -9 0 17 -143 -98 -184 -148 -37 -45 -39 -46 -33 -17 4 17
9 57 13 90 5 51 2 67 -18 105 -13 25 -35 51 -49 59 -23 13 -33 12 -97 -8 -74
-24 -103 -47 -121 -94 -7 -17 -11 -117 -11 -248 0 -197 -2 -219 -17 -219 -14
0 -14 -2 2 -20 10 -11 16 -21 14 -23 -53 -31 -89 -36 -89 -12 0 26 -19 17 -73
-33 -29 -27 -63 -58 -77 -71 -20 -17 -22 -24 -11 -30 26 -17 2 -41 -88 -86
-101 -50 -139 -58 -121 -25 6 11 7 20 2 20 -11 0 -88 -55 -97 -70 -3 -6 -33
-33 -66 -60 -33 -28 -56 -50 -52 -50 5 0 14 5 21 12 9 9 15 9 24 0 18 -18 -6
-38 -105 -87 -90 -45 -113 -48 -104 -14 10 37 -26 15 -122 -74 -36 -33 -90
-71 -120 -85 -31 -14 -50 -27 -44 -29 7 -3 35 8 62 23 50 28 69 28 58 0 -7
-18 -180 -106 -208 -106 -32 0 -21 30 17 46 20 8 34 17 31 20 -12 12 -103 -42
-180 -108 -60 -51 -154 -112 -314 -205 -252 -145 -331 -188 -338 -182 -2 3 8
18 23 34 24 27 120 137 179 205 12 14 41 48 64 75 146 176 1030 1066 1091
1099 47 25 64 57 71 132 5 49 3 65 -9 75 -11 9 -18 9 -26 1 -17 -17 -31 -15
-24 3 3 8 1 15 -3 15 -13 0 -63 -61 -56 -69 4 -3 13 3 21 13 7 11 16 17 19 14
3 -2 -6 -18 -20 -34 -14 -16 -25 -25 -25 -20 0 5 -31 -20 -68 -55 -70 -66
-140 -129 -182 -164 l-24 -20 19 30 c10 17 31 42 47 57 18 16 26 32 22 42 -7
19 -34 22 -34 4 0 -9 -3 -8 -9 2 -11 16 -4 33 10 24 5 -3 8 -2 7 3 -1 4 10 21
25 37 27 29 45 86 32 105 -3 6 -15 11 -26 11 -10 0 -19 6 -19 13 -1 20 -50
-43 -50 -64 0 -30 -190 -367 -230 -408 -20 -20 -66 -51 -103 -69 -85 -41 -127
-84 -201 -204 -56 -92 -63 -99 -155 -158 -113 -74 -119 -80 -172 -185 -59
-115 -79 -137 -169 -189 -90 -52 -120 -87 -175 -202 -40 -85 -80 -131 -198
-229 -47 -38 -93 -82 -103 -97 -30 -44 -36 -10 -15 73 69 268 70 270 165 369
73 78 105 136 137 250 26 95 58 153 119 220 68 73 88 115 111 227 23 113 31
131 103 211 75 84 94 122 112 227 17 103 37 149 113 264 44 66 82 128 84 138
51 179 53 183 178 348 132 175 243 337 257 375 5 14 15 64 22 112 12 82 12 91
-8 144 -20 54 -20 58 -4 80 9 13 26 26 37 30 44 14 105 69 115 104 21 74 -31
64 -84 -16 -41 -61 -39 -60 -115 -68 l-53 -5 7 37 c9 51 120 164 195 200 61
28 89 56 90 88 0 26 -25 50 -35 34 -3 -5 -16 -10 -28 -10 -20 0 -20 0 -1 15
17 13 17 14 2 15 -23 0 -61 -38 -52 -52 4 -6 3 -8 -2 -5 -6 3 -28 -19 -49 -50
-82 -115 -105 -135 -105 -91 0 12 -10 32 -22 45 -19 21 -20 25 -6 40 24 29 28
49 11 72 -10 16 -21 20 -35 15 -17 -5 -20 -3 -15 10 10 25 -19 19 -41 -9z
m147 -421 c9 -9 -5 -11 -36 -7 -18 3 -30 10 -27 15 6 9 53 3 63 -8z m-279
-120 c0 -8 -4 -13 -8 -10 -4 2 -7 -7 -7 -22 3 -50 -44 -104 -125 -144 -25 -12
-47 -22 -50 -23 -3 0 -20 -9 -37 -18 -18 -10 -33 -14 -33 -9 0 13 236 242 249
242 6 0 11 -7 11 -16z m-270 -159 c-91 -91 -166 -165 -168 -165 -2 0 8 15 21
33 13 17 41 60 61 95 33 55 122 147 143 147 5 0 19 8 33 17 31 19 64 37 69 38
3 0 -69 -74 -159 -165z m515 121 c19 -8 35 -19 35 -24 0 -28 -256 -375 -373
-507 -22 -25 9 97 43 170 20 44 56 128 79 186 43 107 69 144 126 173 37 20 47
20 90 2z m-530 -226 c-3 -5 -16 -15 -28 -21 -21 -10 -21 -9 2 10 25 23 36 27
26 11z m-61 -62 c-11 -13 -26 -34 -33 -48 -6 -14 -20 -34 -29 -45 -20 -25
-112 -89 -118 -83 -6 6 179 198 190 198 5 0 1 -10 -10 -22z m-200 -120 c-61
-62 -131 -138 -157 -168 l-48 -55 41 90 c23 50 54 102 68 117 23 23 188 128
201 128 3 0 -45 -51 -105 -112z m407 -269 c-12 -56 -53 -139 -81 -164 -34 -30
-27 0 15 77 24 42 49 93 55 113 17 52 24 36 11 -26z m-698 -56 c-26 -31 -70
-74 -97 -95 -48 -38 -106 -103 -106 -119 0 -22 -127 -174 -181 -216 -35 -26
-80 -64 -101 -84 -21 -20 -38 -35 -38 -32 0 24 50 79 147 161 118 99 118 99
177 216 33 64 66 122 74 129 21 17 155 96 165 97 5 0 -13 -25 -40 -57z m2439
-185 c10 -11 23 -37 29 -57 10 -33 8 -45 -10 -87 -13 -29 -25 -44 -29 -37 -10
16 -61 4 -72 -17 -8 -15 -4 -20 19 -28 16 -6 32 -8 35 -5 18 18 -9 -152 -28
-176 -13 -17 -82 -61 -96 -61 -6 0 -10 70 -10 198 0 220 6 241 72 282 37 22
64 19 90 -12z m-1982 -325 c-10 -41 -35 -79 -68 -101 -21 -14 -22 -13 -22 12
0 14 5 26 10 26 6 0 26 23 46 50 20 28 37 50 39 50 2 0 -1 -17 -5 -37z m2325
-43 c8 -13 -15 -13 -35 0 -12 8 -11 10 7 10 12 0 25 -4 28 -10z m-119 -68 c19
-11 19 -11 -1 -12 -29 0 -65 11 -65 20 0 11 42 6 66 -8z m-87 -23 c37 -13 42
-31 6 -25 -53 10 -69 18 -54 27 8 5 14 9 15 9 1 0 15 -5 33 -11z m-215 -23
c-4 -11 -65 -46 -79 -46 -14 0 -2 27 18 40 45 30 71 33 61 6z m189 -25 c5 -5
0 -14 -13 -21 -15 -8 -20 -8 -16 -1 4 6 1 11 -7 11 -8 0 -21 8 -28 17 -13 15
-11 16 21 9 19 -3 38 -10 43 -15z m-3163 5 c0 -3 -27 -26 -60 -51 -33 -25 -60
-43 -60 -38 0 4 26 27 58 50 62 45 62 45 62 39z m3100 -46 c12 -8 11 -10 -7
-10 -13 0 -23 5 -23 10 0 13 11 13 30 0z m-163 -66 c-9 -9 -28 6 -21 18 4 6
10 6 17 -1 6 -6 8 -13 4 -17z m-117 -74 c0 -5 -2 -10 -4 -10 -3 0 -8 5 -11 10
-3 6 -1 10 4 10 6 0 11 -4 11 -10z m-24 -35 c19 -14 19 -14 -3 -15 -12 0 -29
3 -38 6 -13 5 -14 8 -3 15 18 12 21 11 44 -6z m-3002 -97 c-170 -244 -203
-278 -273 -278 -35 0 -43 4 -51 26 -6 14 -10 31 -10 38 0 19 48 67 110 109 30
20 75 55 100 78 77 69 129 102 173 108 5 0 -17 -36 -49 -81z m2946 57 c10 -12
10 -15 -4 -15 -9 0 -16 4 -16 9 0 4 -11 6 -25 3 -15 -2 -25 0 -25 7 0 16 56
13 70 -4z m-1904 -44 c-9 -17 -26 -36 -38 -42 -22 -12 -22 -12 -5 12 10 13 25
36 35 51 22 36 28 19 8 -21z m1837 15 c10 -8 14 -17 9 -20 -14 -8 -73 14 -66
25 8 13 36 10 57 -5z m-62 -36 c5 0 9 -7 9 -15 0 -8 -6 -12 -15 -10 -8 3 -22
7 -31 10 -8 3 -12 10 -9 16 4 6 14 8 22 5 8 -3 19 -6 24 -6z m-51 -40 c8 -5
12 -12 8 -15 -10 -10 -49 5 -43 16 8 11 16 11 35 -1z m-59 -43 c-1 -12 -15 -9
-19 4 -3 6 1 10 8 8 6 -3 11 -8 11 -12z m379 -189 c-8 -27 -9 -18 -5 46 3 43
6 97 7 120 1 23 4 2 5 -46 2 -48 -1 -102 -7 -120z m-440 152 c0 -5 -4 -10 -10
-10 -5 0 -10 5 -10 10 0 6 5 10 10 10 6 0 10 -4 10 -10z m-60 -40 c0 -5 -4
-10 -10 -10 -5 0 -10 5 -10 10 0 6 5 10 10 10 6 0 10 -4 10 -10z m-50 -40 c0
-13 -11 -13 -30 0 -12 8 -11 10 8 10 12 0 22 -4 22 -10z m-65 -30 c3 -5 -1
-10 -9 -10 -9 0 -16 5 -16 10 0 6 4 10 9 10 6 0 13 -4 16 -10z m-55 -40 c0 -5
-4 -10 -10 -10 -5 0 -10 5 -10 10 0 6 5 10 10 10 6 0 10 -4 10 -10z m-1620
-153 c0 -2 -10 -12 -22 -23 l-23 -19 19 23 c18 21 26 27 26 19z m2643 -81 c73
-16 86 -17 200 -2 163 21 169 21 282 -14 122 -38 184 -38 292 -4 79 26 83 27
140 11 143 -38 187 -54 170 -60 -41 -16 -668 -50 -1121 -62 -174 -5 -181 -4
-213 18 -31 21 -65 89 -50 103 3 3 27 12 54 19 59 17 144 14 246 -9z m1449
-25 c20 -7 -92 -25 -229 -36 -59 -5 -51 1 38 30 74 24 138 26 191 6z m-315
-47 c-3 -3 -12 -4 -19 -1 -8 3 -5 6 6 6 11 1 17 -2 13 -5z m-2968 -100 c-16
-19 -78 -62 -139 -96 -25 -14 -137 -79 -250 -145 -339 -198 -340 -199 -340
-169 0 16 -2 15 245 155 99 57 187 107 195 112 8 5 73 43 144 84 129 74 173
92 145 59z m-409 -324 c0 -5 -2 -10 -4 -10 -3 0 -8 5 -11 10 -3 6 -1 10 4 10
6 0 11 -4 11 -10z m-63 -36 c-3 -3 -12 -4 -19 -1 -8 3 -5 6 6 6 11 1 17 -2 13
-5z m-57 -40 c0 -2 -7 -4 -15 -4 -8 0 -15 4 -15 10 0 5 7 7 15 4 8 -4 15 -8
15 -10z m-70 -34 c0 -5 -4 -10 -10 -10 -5 0 -10 5 -10 10 0 6 5 10 10 10 6 0
10 -4 10 -10z m-51 -41 c-14 -8 -29 -3 -29 11 0 4 9 6 21 3 15 -4 17 -8 8 -14z
m2538 -9 c65 -39 66 -77 7 -153 -26 -33 -47 -50 -73 -56 -20 -5 -137 -12 -261
-15 -276 -7 -678 -39 -1075 -86 -424 -50 -921 -124 -1015 -151 -19 -5 -105
-23 -190 -39 -85 -16 -229 -45 -320 -64 -91 -20 -208 -45 -260 -56 -52 -11
-126 -25 -165 -30 -38 -6 -85 -13 -102 -16 -26 -5 -33 -3 -33 9 0 16 45 27
105 27 17 -1 46 3 65 9 33 9 32 9 -22 10 -42 1 -56 4 -52 14 7 16 71 57 90 57
8 0 14 7 12 16 -2 13 7 16 50 18 28 0 52 -2 52 -5 0 -3 -20 -28 -44 -54 l-44
-47 44 7 c24 3 75 14 112 24 58 15 67 20 68 41 3 50 32 56 191 41 112 -11 137
-5 258 57 l90 47 155 0 155 0 109 49 108 49 118 -16 c135 -18 156 -15 260 38
84 43 112 46 300 31 103 -8 107 -8 234 29 119 34 138 37 250 36 98 -1 132 2
180 19 76 26 79 26 71 -10 l-7 -30 69 0 c37 0 73 4 79 8 6 4 13 29 16 55 3 26
9 51 13 55 15 15 293 100 330 101 23 1 53 -7 72 -19z m-2603 -16 c21 -8 2 -44
-23 -44 -23 0 -34 23 -18 39 13 13 19 13 41 5z m2009 -251 c2 -5 -2 -29 -10
-55 -13 -44 -16 -47 -61 -57 -26 -6 -105 -13 -177 -15 -93 -3 -153 -11 -210
-27 -69 -19 -108 -22 -280 -23 -198 -2 -201 -2 -295 -35 l-95 -33 -115 11
c-124 13 -160 8 -305 -41 -49 -16 -85 -20 -200 -19 -146 1 -159 -1 -320 -60
-54 -19 -71 -21 -175 -14 -63 4 -125 8 -137 9 -12 0 -19 4 -15 8 22 21 686
158 1002 207 323 50 728 96 1275 144 79 7 114 7 118 0z m-2743 -442 c0 -8 -60
-41 -75 -41 -21 0 31 36 73 49 1 1 2 -3 2 -8z m331 -304 c-5 -5 -18 -7 -28 -3
-14 6 -15 9 -4 16 19 11 46 1 32 -13z m26 -23 c-3 -3 -12 -4 -19 -1 -8 3 -5 6
6 6 11 1 17 -2 13 -5z m236 -50 c100 -25 186 -50 192 -55 13 -13 13 -13 -164
31 -88 22 -166 40 -173 40 -7 1 -26 7 -43 15 -56 25 2 16 188 -31z m622 -310
l30 -14 -30 5 c-51 10 -165 46 -170 55 -6 10 127 -26 170 -46z m355 -205 c88
-20 120 -30 120 -38 0 -10 -173 24 -198 39 -14 8 -13 9 8 9 14 0 45 -4 70 -10z"/>
<path d="M2790 2830 c-8 -5 -10 -10 -5 -10 6 0 17 5 25 10 8 5 11 10 5 10 -5
0 -17 -5 -25 -10z"/>
</g>
</svg>
