<?xml version="1.0" standalone="no"?>
<!DOCTYPE svg PUBLIC "-//W3C//DTD SVG 20010904//EN"
 "http://www.w3.org/TR/2001/REC-SVG-20010904/DTD/svg10.dtd">
<svg version="1.0" xmlns="http://www.w3.org/2000/svg"
 width="406.000000pt" height="563.000000pt" viewBox="0 0 406.000000 563.000000"
 preserveAspectRatio="xMidYMid meet">

<g transform="translate(0.000000,563.000000) scale(0.100000,-0.100000)"
fill="#000000" stroke="none">
<path d="M60 5616 c0 -24 15 -26 28 -5 11 16 9 19 -8 19 -11 0 -20 -6 -20 -14z"/>
<path d="M3068 5623 c-10 -2 -18 -11 -18 -19 0 -12 4 -12 20 -4 11 6 20 15 20
20 0 6 -1 9 -2 9 -2 -1 -11 -3 -20 -6z"/>
<path d="M564 5604 c3 -9 6 -18 6 -20 0 -2 4 -4 9 -4 5 0 7 9 4 20 -3 11 -10
20 -15 20 -6 0 -7 -7 -4 -16z"/>
<path d="M210 5591 c0 -12 53 -41 72 -40 7 0 4 4 -7 8 -11 5 -20 14 -20 22 0
8 -10 15 -22 17 -13 2 -23 -1 -23 -7z"/>
<path d="M2899 5584 c-12 -14 -11 -16 5 -13 11 2 21 10 24 17 5 17 -13 15 -29
-4z"/>
<path d="M1885 5550 c-3 -5 3 -10 14 -10 12 0 21 5 21 10 0 6 -6 10 -14 10 -8
0 -18 -4 -21 -10z"/>
<path d="M410 5540 c0 -5 5 -10 11 -10 5 0 7 5 4 10 -3 6 -8 10 -11 10 -2 0
-4 -4 -4 -10z"/>
<path d="M2313 5543 c-7 -3 -13 -9 -13 -15 0 -6 -8 -17 -17 -24 -10 -7 -13
-14 -7 -14 6 0 17 7 24 15 9 11 22 14 42 10 15 -4 28 -2 28 3 0 12 -42 30 -57
25z"/>
<path d="M110 5530 c0 -5 5 -10 10 -10 6 0 10 5 10 10 0 6 -4 10 -10 10 -5 0
-10 -4 -10 -10z"/>
<path d="M713 5496 c-13 -15 -7 -26 13 -26 6 0 14 9 17 20 6 23 -12 26 -30 6z"/>
<path d="M923 5469 c-10 -10 -9 -15 5 -25 14 -10 15 -15 5 -25 -12 -12 -18
-49 -9 -49 7 0 66 54 66 61 0 4 -11 10 -24 13 -14 3 -26 13 -28 22 -2 12 -6
13 -15 3z"/>
<path d="M2947 5444 c-4 -4 -4 -10 -1 -15 6 -10 34 0 34 12 0 10 -24 12 -33 3z"/>
<path d="M3175 5420 c-10 -12 -25 -18 -32 -16 -16 7 -16 -4 0 -26 16 -20 29
-13 50 30 18 36 9 42 -18 12z"/>
<path d="M2426 5390 c3 -14 10 -32 15 -40 7 -13 8 -13 8 0 0 8 -6 26 -15 40
l-15 25 7 -25z"/>
<path d="M1648 5375 c2 -14 6 -25 8 -25 2 0 4 11 4 25 0 14 -4 25 -9 25 -4 0
-6 -11 -3 -25z"/>
<path d="M3313 5393 c-18 -2 -33 -8 -33 -14 0 -15 46 -10 60 6 7 8 11 14 9 13
-2 0 -19 -3 -36 -5z"/>
<path d="M2580 5381 c0 -5 7 -11 15 -15 8 -3 15 -1 15 3 0 5 -7 11 -15 15 -8
3 -15 1 -15 -3z"/>
<path d="M1390 5373 c1 -15 39 -58 46 -51 4 4 2 13 -4 20 -6 7 -10 18 -11 23
0 6 -7 11 -15 13 -9 2 -16 0 -16 -5z"/>
<path d="M2320 5370 c-13 -8 -13 -10 2 -10 9 0 18 -5 20 -10 2 -6 9 -1 16 10
10 17 10 20 -5 20 -10 0 -25 -5 -33 -10z"/>
<path d="M3210 5370 c-12 -8 -9 -10 13 -10 15 0 27 5 27 10 0 13 -20 13 -40 0z"/>
<path d="M1645 5327 c-4 -10 -5 -21 -1 -24 10 -10 18 4 13 24 -4 17 -4 17 -12
0z"/>
<path d="M2012 5320 c-12 -12 -22 -29 -22 -38 0 -23 36 -45 61 -37 22 7 52
-12 43 -27 -3 -5 -11 -5 -19 2 -15 12 -47 2 -42 -14 2 -6 12 -10 22 -8 33 6
53 -26 60 -100 7 -67 6 -72 -16 -89 l-24 -19 22 0 c18 0 26 10 40 50 10 28 23
50 30 50 7 0 13 -5 13 -11 0 -7 11 -9 28 -5 15 3 21 3 14 0 -10 -5 -9 -9 5
-19 12 -9 17 -25 16 -54 -2 -40 10 -61 22 -41 4 6 11 7 17 4 6 -4 33 -8 60 -9
45 -2 48 -1 42 19 -3 11 -13 27 -23 34 -9 7 -15 20 -13 28 2 8 -5 14 -15 14
-15 0 -16 2 -3 11 11 7 12 12 3 15 -7 3 -10 11 -7 17 2 7 -6 17 -18 22 -13 6
-24 19 -26 30 -2 11 -11 27 -19 36 -10 12 -11 18 -2 21 6 2 -1 9 -16 16 -14 7
-24 8 -20 3 3 -5 1 -12 -4 -16 -6 -3 -7 -13 -4 -23 6 -15 5 -16 -12 -2 -10 8
-16 10 -13 5 4 -6 0 -18 -7 -28 -10 -14 -18 -16 -39 -7 -42 16 -34 47 14 55
49 8 54 29 5 23 -36 -4 -42 1 -25 18 8 8 6 15 -5 24 -12 10 -19 10 -27 2 -7
-7 -29 -12 -50 -12 -37 0 -38 1 -32 28 3 15 7 33 10 40 5 16 1 15 -24 -8z"/>
<path d="M2360 5331 c0 -10 19 -25 25 -20 1 2 -3 10 -11 17 -8 7 -14 8 -14 3z"/>
<path d="M2620 5329 c0 -7 -30 -9 -92 -6 -103 5 -85 -7 25 -18 51 -5 75 -13
97 -32 29 -24 40 -53 20 -53 -19 0 -10 -15 20 -32 33 -19 38 -10 15 25 -15 23
-10 41 15 49 10 3 2 13 -27 31 -23 14 -44 31 -48 37 -8 13 -25 13 -25 -1z"/>
<path d="M20 5301 c12 -23 30 -36 30 -22 0 10 -27 41 -36 41 -3 0 0 -9 6 -19z"/>
<path d="M1376 5304 c-3 -8 1 -14 9 -14 20 0 28 17 11 23 -8 3 -17 -1 -20 -9z"/>
<path d="M2856 5278 c-19 -26 -21 -48 -5 -48 8 0 7 -5 -2 -16 -10 -13 -10 -17
1 -24 22 -14 137 -22 157 -12 10 6 32 8 48 6 17 -2 22 -1 13 2 -24 7 -23 25 3
58 27 34 15 33 -26 -2 -32 -29 -32 -29 -105 -18 -75 12 -92 24 -70 52 7 8 10
17 7 20 -3 3 -12 -5 -21 -18z"/>
<path d="M368 5269 c-3 -8 -2 -23 2 -33 5 -15 8 -16 12 -5 3 8 2 23 -2 33 -5
15 -8 16 -12 5z"/>
<path d="M1006 5266 c3 -9 11 -16 16 -16 13 0 5 23 -10 28 -7 2 -10 -2 -6 -12z"/>
<path d="M1533 5264 c-18 -8 -33 -19 -33 -25 0 -14 38 -70 58 -86 11 -9 16
-31 16 -73 0 -33 3 -60 8 -60 4 0 8 5 8 10 0 6 9 10 20 10 24 0 26 22 4 55
-25 38 10 83 54 68 13 -4 13 -2 -3 10 -11 8 -29 16 -40 18 -12 3 -21 15 -26
35 -7 35 -17 54 -27 53 -4 0 -22 -7 -39 -15z"/>
<path d="M2759 5240 c23 -20 41 -26 41 -14 0 11 -34 33 -50 33 -10 0 -8 -6 9
-19z"/>
<path d="M910 5225 c7 -8 19 -15 27 -15 12 0 12 2 -1 15 -8 8 -20 15 -27 15
-9 0 -8 -4 1 -15z"/>
<path d="M1105 5211 c-3 -5 -1 -12 5 -16 12 -7 30 2 30 16 0 12 -27 12 -35 0z"/>
<path d="M788 5202 c-35 -4 -36 -19 -3 -32 29 -11 55 -4 55 15 0 16 -17 22
-52 17z"/>
<path d="M122 5174 c9 -9 21 -13 28 -9 14 9 -5 25 -30 25 -12 0 -12 -3 2 -16z"/>
<path d="M3095 5180 c-3 -5 -1 -10 4 -10 6 0 11 5 11 10 0 6 -2 10 -4 10 -3 0
-8 -4 -11 -10z"/>
<path d="M790 5139 c0 -5 5 -7 10 -4 6 3 10 8 10 11 0 2 -4 4 -10 4 -5 0 -10
-5 -10 -11z"/>
<path d="M2390 5119 c0 -10 4 -19 10 -19 5 0 7 -7 3 -15 -3 -9 -1 -15 3 -13
20 6 56 -42 103 -138 56 -113 78 -189 88 -298 5 -61 9 -77 24 -81 11 -4 19
-16 19 -29 0 -33 28 -85 70 -132 21 -23 41 -52 45 -65 4 -13 15 -29 24 -36 9
-6 25 -28 36 -49 19 -36 60 -84 71 -84 8 0 40 -38 85 -102 22 -32 43 -58 48
-58 4 0 15 -16 24 -35 9 -20 28 -41 42 -47 14 -6 25 -16 25 -22 0 -6 21 -33
46 -61 56 -62 59 -66 74 -94 16 -31 95 -134 114 -150 9 -8 30 -38 47 -67 17
-30 34 -54 38 -54 3 0 15 -14 25 -31 l19 -32 -26 7 c-14 3 -29 2 -32 -4 -3 -6
-18 -7 -32 -4 -18 5 -24 3 -19 -5 4 -6 13 -11 20 -11 8 0 16 -9 19 -20 8 -30
-42 -26 -72 5 -13 14 -27 25 -33 25 -5 0 -24 11 -41 24 -18 13 -54 36 -82 51
-221 120 -314 177 -309 188 6 16 -42 40 -58 31 -6 -4 -8 -3 -5 3 8 13 -41 36
-55 27 -6 -4 -8 -2 -5 3 4 6 -8 17 -26 24 -17 7 -54 28 -81 46 -54 37 -74 41
-83 16 -8 -20 38 -59 79 -68 15 -4 44 -17 63 -31 20 -13 130 -73 243 -133 280
-147 322 -170 360 -203 37 -32 151 -92 159 -84 3 3 -6 11 -21 17 -33 15 -31
45 3 41 12 -1 29 -9 37 -17 20 -19 40 -19 48 0 3 8 1 15 -5 15 -6 0 -7 4 -4
10 3 6 -1 7 -9 4 -9 -3 -16 -10 -16 -15 0 -5 -9 0 -21 12 -24 24 -11 52 14 31
7 -7 37 -10 67 -8 42 2 56 -1 69 -16 8 -10 21 -18 28 -18 7 0 27 -9 45 -20 42
-26 51 -25 42 2 -6 20 -5 21 9 10 9 -8 27 -12 41 -10 21 2 35 -9 82 -67 30
-38 60 -79 66 -90 6 -11 24 -33 40 -48 15 -16 28 -34 29 -40 0 -7 13 -22 30
-35 29 -23 29 -23 29 -2 0 11 -15 37 -32 56 -18 20 -37 43 -43 53 -27 46 -105
141 -152 188 -31 29 -49 54 -43 58 5 3 14 4 19 1 4 -3 19 3 31 14 13 11 32 20
42 20 11 0 16 5 13 10 -3 6 -24 10 -45 10 -32 0 -43 6 -68 36 -22 26 -31 32
-35 21 -3 -9 4 -23 18 -33 18 -13 21 -21 12 -27 -7 -5 -3 -6 11 -2 13 4 22 2
22 -4 0 -6 -4 -11 -10 -11 -5 0 -10 -6 -10 -14 0 -31 -30 -25 -54 10 -25 37
-71 68 -87 58 -5 -3 -6 -10 -3 -16 5 -8 1 -9 -10 -5 -10 4 -21 7 -25 7 -5 0
-21 19 -37 42 -16 24 -38 52 -49 64 -30 32 -55 64 -55 69 0 3 -16 19 -35 36
-19 17 -35 35 -35 41 0 5 -6 16 -12 23 -30 33 -38 45 -38 53 0 6 -9 12 -21 15
-12 3 -18 10 -14 16 3 6 -1 14 -9 17 -9 3 -16 10 -16 16 0 5 -11 21 -24 35
-14 15 -22 31 -19 35 3 5 -4 12 -16 15 -12 3 -21 11 -21 18 0 7 -11 23 -25 36
-13 13 -25 28 -25 33 0 5 -11 19 -25 32 -26 24 -34 64 -12 64 7 0 18 9 25 20
11 17 10 26 -5 53 -10 18 -22 35 -28 39 -19 15 -54 8 -69 -13 l-14 -21 -19 22
c-10 12 -24 28 -30 35 -7 8 -13 18 -13 24 0 6 -7 11 -16 11 -8 0 -12 4 -9 10
3 5 -5 21 -19 34 -31 28 -32 33 -8 39 10 3 6 5 -10 6 -16 0 -28 5 -28 9 0 5
12 13 28 19 25 10 24 10 -12 5 -28 -4 -37 -2 -32 7 4 6 0 14 -9 17 -12 5 -13
9 -4 20 9 11 8 14 -7 14 -17 0 -17 1 2 15 18 14 18 14 -11 15 l-30 1 25 11 25
11 -35 7 -35 7 33 2 c21 1 31 5 27 12 -4 6 -12 8 -19 6 -6 -2 -20 -1 -31 4
-19 7 -19 8 3 8 29 1 19 21 -11 22 -12 0 -17 3 -11 5 15 6 5 44 -11 44 -8 0
-11 8 -8 20 4 14 -1 22 -15 27 -28 11 -75 71 -68 88 5 15 -64 115 -104 150
-12 11 -41 45 -63 75 -23 30 -49 61 -59 68 -10 7 -16 17 -14 20 2 4 -7 12 -20
19 -21 10 -24 9 -24 -8z m455 -1449 c3 -6 -1 -7 -9 -4 -18 7 -21 14 -7 14 6 0
13 -4 16 -10z m602 -96 c-3 -3 -12 -4 -19 -1 -8 3 -5 6 6 6 11 1 17 -2 13 -5z
m38 -34 c19 -8 19 -9 -2 -9 -12 -1 -25 4 -28 9 -7 12 2 12 30 0z m48 -77 c-7
-2 -19 -2 -25 0 -7 3 -2 5 12 5 14 0 19 -2 13 -5z"/>
<path d="M1035 5079 c-10 -14 41 -59 67 -59 9 0 35 -16 58 -35 33 -28 47 -33
71 -28 25 5 31 2 36 -16 3 -12 24 -32 46 -44 22 -12 49 -28 61 -34 11 -7 34
-13 50 -13 16 0 62 -17 103 -37 55 -28 80 -47 99 -77 15 -23 46 -53 71 -68 63
-40 80 -36 47 10 -8 12 -12 27 -9 32 9 15 47 12 69 -5 11 -8 29 -15 41 -15 12
0 30 -7 41 -15 10 -8 35 -15 55 -15 19 0 53 -9 75 -19 21 -11 40 -19 41 -18 1
1 -1 14 -4 28 -4 23 -11 27 -52 31 -27 3 -81 21 -122 41 -41 19 -90 38 -109
41 -20 3 -52 15 -73 26 -20 11 -44 20 -52 20 -8 0 -15 4 -15 10 0 5 -15 8 -32
5 -29 -4 -37 0 -63 35 -20 26 -43 43 -70 52 -53 15 -61 23 -69 59 -5 25 -9 29
-20 20 -10 -9 -16 -8 -26 4 -8 9 -30 15 -60 15 -50 0 -105 18 -149 50 -34 25
-96 36 -106 19z"/>
<path d="M2962 5044 c11 -11 23 -14 35 -9 17 7 17 8 -2 15 -11 5 -27 9 -35 9
-12 1 -11 -2 2 -15z"/>
<path d="M828 5033 c-24 -6 -23 -23 1 -23 11 0 22 -8 24 -17 3 -12 5 -8 6 9 1
30 -6 36 -31 31z"/>
<path d="M2125 4967 c-25 -19 -11 -37 29 -37 40 0 68 26 45 41 -20 13 -52 11
-74 -4z"/>
<path d="M453 4929 c-33 -10 -45 -29 -19 -29 23 0 77 26 69 33 -7 8 -8 8 -50
-4z"/>
<path d="M832 4921 c-11 -6 -8 -14 11 -35 28 -30 33 -31 41 -11 3 9 -3 24 -14
35 -23 23 -21 22 -38 11z"/>
<path d="M2990 4919 c0 -5 5 -7 10 -4 6 3 10 8 10 11 0 2 -4 4 -10 4 -5 0 -10
-5 -10 -11z"/>
<path d="M3028 4867 c-5 -42 4 -79 20 -85 18 -6 16 92 -2 107 -11 9 -14 5 -18
-22z"/>
<path d="M993 4863 c-5 -10 -8 -36 -7 -57 1 -30 6 -41 21 -47 17 -6 20 -4 16
12 -4 13 0 19 11 19 26 0 31 -4 29 -22 -2 -10 3 -19 10 -19 6 -1 21 -3 32 -5
11 -2 30 -4 43 -6 16 -2 21 -7 16 -18 -18 -39 2 -100 33 -100 10 0 12 6 8 23
-4 12 -8 27 -9 32 -1 13 84 9 98 -5 15 -15 26 -12 26 8 0 24 -19 42 -45 42
-11 0 -33 9 -50 20 -16 11 -38 20 -47 20 -10 0 -18 5 -18 10 0 6 -6 10 -13 10
-7 0 -28 14 -47 32 -19 17 -44 33 -54 33 -10 1 -25 10 -32 19 -12 17 -13 17
-21 -1z"/>
<path d="M2320 4866 c0 -8 10 -27 23 -43 13 -15 36 -46 51 -68 35 -51 27 -12
-12 55 -37 65 -62 87 -62 56z"/>
<path d="M2268 4863 c0 -5 -2 -12 -3 -18 -2 -5 -3 -20 -4 -32 -1 -13 -7 -23
-16 -23 -8 0 -15 -4 -15 -10 0 -5 10 -10 23 -10 21 0 57 -30 57 -48 0 -9 56
-62 65 -62 3 0 5 7 5 15 0 8 -4 15 -10 15 -5 0 -10 11 -10 25 0 13 -8 39 -19
57 -48 85 -57 98 -63 98 -5 0 -9 -3 -10 -7z"/>
<path d="M2873 4821 c-47 -40 -14 -57 38 -20 16 11 34 17 40 13 7 -4 10 -1 7
7 -7 22 -60 21 -85 0z"/>
<path d="M842 4801 c-21 -13 12 -34 39 -26 22 7 22 8 4 21 -22 16 -25 17 -43
5z"/>
<path d="M3097 4786 c-15 -23 -15 -25 8 -40 31 -20 41 -20 49 0 6 14 -21 63
-35 64 -4 0 -14 -11 -22 -24z"/>
<path d="M627 4761 c-16 -6 -16 -9 -5 -18 14 -12 51 -2 63 16 7 12 -30 14 -58
2z"/>
<path d="M3907 4764 c-15 -15 -7 -45 11 -42 9 2 17 12 17 22 0 20 -16 31 -28
20z"/>
<path d="M593 4675 c-18 -20 -17 -22 16 -33 37 -13 49 7 20 32 -23 19 -21 19
-36 1z"/>
<path d="M1374 4654 c3 -9 6 -22 6 -29 0 -7 18 -22 40 -32 31 -16 40 -17 44
-7 3 9 -8 19 -30 29 -20 8 -38 24 -41 35 -3 11 -10 20 -15 20 -6 0 -7 -7 -4
-16z"/>
<path d="M1060 4620 c0 -5 4 -10 9 -10 6 0 13 5 16 10 3 6 -1 10 -9 10 -9 0
-16 -4 -16 -10z"/>
<path d="M1118 4603 c6 -2 18 -2 25 0 6 3 1 5 -13 5 -14 0 -19 -2 -12 -5z"/>
<path d="M544 4585 c21 -16 32 -13 21 4 -3 6 -14 11 -23 11 -15 -1 -15 -2 2
-15z"/>
<path d="M1830 4575 c0 -8 5 -15 10 -15 6 0 10 7 10 15 0 8 -4 15 -10 15 -5 0
-10 -7 -10 -15z"/>
<path d="M2200 4554 c0 -15 149 -86 167 -80 14 6 14 9 -5 26 -12 11 -30 20
-42 20 -11 0 -20 4 -20 9 0 5 -15 11 -32 13 -18 3 -41 8 -50 13 -10 4 -18 3
-18 -1z"/>
<path d="M550 4535 c0 -8 7 -15 16 -15 14 0 14 3 4 15 -7 8 -14 15 -16 15 -2
0 -4 -7 -4 -15z"/>
<path d="M1283 4540 c-46 -19 1 -57 58 -48 31 4 41 48 11 48 -11 0 -26 2 -34
4 -7 3 -23 1 -35 -4z"/>
<path d="M3055 4520 c3 -5 8 -10 11 -10 2 0 4 5 4 10 0 6 -5 10 -11 10 -5 0
-7 -4 -4 -10z"/>
<path d="M2585 4474 c-3 -22 -14 -79 -25 -129 -39 -187 -49 -242 -55 -310 -3
-38 -4 -67 -1 -64 8 7 72 236 81 284 7 43 22 68 35 60 5 -3 11 -1 15 5 3 5 -5
14 -19 20 -29 11 -33 42 -16 115 5 23 5 44 0 49 -5 5 -11 -8 -15 -30z"/>
<path d="M2385 4470 c-8 -26 12 -62 33 -58 23 4 27 42 7 62 -22 21 -32 20 -40
-4z"/>
<path d="M490 4451 c0 -25 19 -38 31 -20 12 19 6 33 -14 37 -11 2 -17 -3 -17
-17z"/>
<path d="M1680 4388 c0 -33 27 -58 36 -33 4 10 -1 25 -15 38 l-21 21 0 -26z"/>
<path d="M3681 4378 c-10 -27 -6 -38 14 -38 10 0 13 10 12 30 -2 36 -14 39
-26 8z"/>
<path d="M658 4336 c-4 -19 -1 -22 14 -18 10 2 25 -1 33 -8 8 -7 25 -10 40 -6
15 4 25 2 25 -5 0 -16 36 -59 44 -52 3 3 6 16 6 27 0 16 -17 29 -68 54 -80 38
-88 39 -94 8z"/>
<path d="M2998 4333 c6 -2 18 -2 25 0 6 3 1 5 -13 5 -14 0 -19 -2 -12 -5z"/>
<path d="M3830 4296 c-6 -18 -19 -27 -43 -31 -49 -9 -76 -59 -57 -104 7 -17
18 -31 24 -31 16 0 46 33 82 90 16 25 32 47 37 48 14 7 7 31 -13 42 -17 9 -22
7 -30 -14z"/>
<path d="M3950 4276 c0 -9 5 -16 10 -16 6 0 10 4 10 9 0 6 -4 13 -10 16 -5 3
-10 -1 -10 -9z"/>
<path d="M1024 4206 c11 -9 24 -16 30 -16 12 0 7 5 -24 19 -24 11 -24 11 -6
-3z"/>
<path d="M817 4173 c-6 -5 10 -18 51 -39 24 -12 27 8 3 27 -24 20 -43 24 -54
12z"/>
<path d="M1066 4171 c-3 -5 20 -32 52 -61 31 -29 95 -89 142 -134 47 -46 106
-95 132 -110 45 -26 62 -49 56 -77 -2 -7 6 -15 16 -17 14 -3 17 0 12 13 -11
30 4 35 42 16 20 -10 80 -33 132 -51 460 -158 513 -179 504 -204 -5 -13 67
-86 85 -86 6 0 11 -6 11 -12 0 -7 13 -22 30 -33 16 -11 34 -29 40 -40 6 -12
19 -26 29 -32 16 -10 18 -7 16 33 -2 25 -1 44 0 42 9 -9 65 -124 65 -133 0 -6
9 -21 20 -33 23 -24 46 -77 30 -67 -14 9 -13 5 20 -69 17 -36 35 -66 41 -66 6
0 9 -7 6 -15 -7 -17 11 -31 24 -18 5 5 1 32 -12 67 -11 33 -16 63 -12 67 5 5
23 9 41 11 19 1 36 6 38 10 3 5 17 5 31 2 20 -5 10 8 -45 64 -39 38 -83 94
-98 123 -14 30 -32 57 -38 61 -6 5 -7 8 -1 8 6 0 3 5 -5 10 -12 7 -8 10 15 10
52 0 75 -11 81 -39 12 -47 64 -85 64 -47 0 8 5 18 11 22 9 5 10 -3 5 -28 -7
-39 39 -181 73 -224 11 -14 17 -33 14 -45 -4 -14 0 -22 14 -25 12 -3 31 -27
44 -54 13 -27 27 -49 30 -50 3 0 4 26 2 58 -5 70 -47 200 -84 264 -30 51 -28
54 31 37 26 -8 43 -21 54 -43 l17 -31 -6 35 c-7 45 -48 147 -53 132 -5 -17
-27 -15 -43 4 -8 9 -32 28 -54 43 -34 22 -50 26 -113 24 l-72 -1 -147 155
c-122 127 -151 153 -168 147 -38 -12 -70 -5 -170 39 -108 48 -377 151 -490
187 -38 13 -76 30 -83 39 -11 14 -36 18 -139 21 -31 1 -65 16 -133 56 -99 59
-96 58 -104 45z m501 -241 c37 -16 60 -30 50 -30 -20 0 -177 59 -177 67 0 9
58 -8 127 -37z m243 -90 c18 -12 2 -12 -25 0 -13 6 -15 9 -5 9 8 0 22 -4 30
-9z m290 -90 c40 -21 79 -68 43 -52 -55 25 -133 64 -133 68 0 11 55 2 90 -16z
m318 -307 c12 -18 22 -39 22 -45 0 -6 7 -5 17 3 9 8 14 9 10 2 -4 -6 -2 -13 4
-15 5 -2 12 -23 13 -46 2 -24 12 -52 21 -62 10 -11 13 -20 7 -20 -6 0 -19 11
-30 25 -27 34 -112 200 -111 217 0 8 4 6 12 -6 7 -10 22 -34 35 -53z"/>
<path d="M3160 4150 c-12 -8 -10 -10 8 -10 13 0 20 4 17 10 -7 12 -6 12 -25 0z"/>
<path d="M1434 4135 c-9 -22 1 -29 15 -11 8 10 9 16 1 21 -5 3 -13 -1 -16 -10z"/>
<path d="M3185 4120 c-4 -6 3 -10 14 -10 25 0 27 6 6 13 -8 4 -17 2 -20 -3z"/>
<path d="M1665 4106 c56 -26 256 -96 276 -96 26 0 329 -67 364 -80 28 -10 45
-6 45 11 0 18 -73 41 -255 79 -99 21 -232 50 -295 64 -175 40 -170 39 -135 22z"/>
<path d="M2656 4105 c-3 -8 -1 -15 4 -15 6 0 10 7 10 15 0 8 -2 15 -4 15 -2 0
-6 -7 -10 -15z"/>
<path d="M2160 4086 c0 -8 5 -18 10 -21 6 -3 10 3 10 14 0 12 -4 21 -10 21 -5
0 -10 -6 -10 -14z"/>
<path d="M2234 4079 c-3 -6 -1 -16 5 -22 8 -8 11 -5 11 11 0 24 -5 28 -16 11z"/>
<path d="M2274 4034 c-15 -22 -15 -27 -3 -35 25 -16 47 -10 51 14 10 51 -20
64 -48 21z"/>
<path d="M3248 4053 c7 -3 16 -2 19 1 4 3 -2 6 -13 5 -11 0 -14 -3 -6 -6z"/>
<path d="M602 4041 c4 -13 18 -16 19 -4 0 4 -5 9 -11 12 -7 2 -11 -2 -8 -8z"/>
<path d="M3746 3998 c-10 -5 -28 -7 -40 -4 -13 3 -26 3 -29 0 -9 -9 4 -34 18
-34 7 0 15 -7 19 -15 3 -8 10 -15 17 -15 14 0 71 61 64 68 -10 10 -31 10 -49
0z"/>
<path d="M58 3983 l-58 -4 0 -64 0 -64 33 -5 c55 -9 361 -25 366 -20 3 3 -1 9
-9 14 -11 7 -8 9 13 8 25 -2 40 -28 15 -28 -18 0 23 -39 56 -55 152 -68 183
-84 195 -99 17 -21 9 -31 -16 -17 -81 44 -183 76 -168 52 8 -13 -56 -20 -230
-25 -82 -3 -174 -8 -202 -12 l-53 -7 0 -38 c0 -50 11 -53 180 -50 174 2 476
-18 515 -34 22 -8 35 -9 47 -1 13 8 66 -14 260 -108 134 -65 310 -150 391
-189 118 -58 147 -76 143 -89 -6 -26 12 -33 35 -12 26 23 25 61 -2 69 -15 5
-18 10 -10 18 6 6 11 22 11 35 0 23 4 21 53 -24 28 -27 111 -108 184 -182 72
-73 134 -129 137 -123 3 5 3 11 -1 13 -5 1 -42 41 -83 88 -41 47 -112 123
-157 170 -57 59 -77 86 -66 88 8 2 30 -10 47 -27 21 -21 38 -29 49 -25 15 5
15 8 2 27 -8 12 -15 31 -15 42 0 22 -48 75 -68 75 -7 0 -11 3 -11 8 3 18 -2
32 -11 32 -5 0 -10 -7 -10 -16 0 -13 -6 -12 -37 7 -21 13 -57 41 -79 62 -23
21 -56 48 -74 59 -18 11 -40 27 -49 35 -21 21 -108 77 -174 111 -28 15 -76 46
-105 70 -53 41 -97 61 -51 22 13 -10 21 -19 17 -20 -14 0 -58 23 -58 32 0 17
-3 23 -19 35 -21 16 -34 16 -26 1 4 -7 1 -6 -7 3 -43 51 -251 101 -363 87 -36
-5 -63 -4 -69 2 -16 16 -95 12 -112 -5 -9 -8 -23 -14 -32 -14 -15 1 -15 2 1 6
24 6 22 43 -2 43 -11 0 -26 7 -35 15 -8 8 -45 19 -83 25 -67 9 -91 10 -205 3z
m149 -9 c-3 -3 -12 -4 -19 -1 -8 3 -5 6 6 6 11 1 17 -2 13 -5z m70 -10 c-3 -3
-12 -4 -19 -1 -8 3 -5 6 6 6 11 1 17 -2 13 -5z m374 -83 c-8 -5 -20 -7 -28 -4
-21 8 -15 13 15 13 20 0 23 -3 13 -9z m146 -7 c-3 -3 -12 -4 -19 -1 -8 3 -5 6
6 6 11 1 17 -2 13 -5z m-350 -10 c-3 -3 -12 -4 -19 -1 -8 3 -5 6 6 6 11 1 17
-2 13 -5z m-100 -10 c-3 -3 -12 -4 -19 -1 -8 3 -5 6 6 6 11 1 17 -2 13 -5z
m373 -110 c121 -33 280 -88 280 -97 0 -5 -12 -6 -27 -2 -56 14 -259 55 -276
55 -16 0 -75 23 -134 52 -60 30 39 25 157 -8z m200 -109 c186 -41 357 -121
525 -247 59 -44 104 -82 102 -85 -3 -2 -45 15 -93 38 -91 43 -164 76 -198 91
-15 7 -17 6 -7 -6 6 -7 33 -21 59 -31 26 -10 53 -22 60 -28 7 -5 43 -25 80
-43 37 -19 61 -34 53 -34 -11 0 -10 -4 3 -19 42 -46 2 -37 -144 33 -201 95
-611 293 -629 304 -20 11 -26 32 -9 32 7 0 76 -31 153 -68 196 -96 264 -126
272 -118 3 3 -1 6 -10 6 -10 0 -17 4 -17 8 0 4 -16 14 -36 21 -19 7 -33 15
-31 18 3 2 42 -12 87 -31 92 -41 111 -45 60 -15 -19 12 -46 31 -60 44 -34 30
-157 93 -200 102 -19 3 -57 17 -85 30 -27 13 -39 21 -25 18 14 -3 54 -12 90
-20z m-276 -36 c27 -13 51 -29 53 -36 7 -19 -102 27 -139 58 l-33 29 35 -13
c19 -8 57 -25 84 -38z m745 -73 c8 -10 9 -16 1 -21 -5 -3 -10 0 -10 9 0 8 -6
17 -12 19 -8 4 -9 6 -2 6 6 1 17 -5 23 -13z m70 -69 c15 1 19 -2 12 -6 -9 -6
-5 -13 13 -24 14 -10 30 -17 36 -17 5 0 10 -4 10 -10 0 -5 7 -10 16 -10 8 0
12 -4 9 -10 -3 -5 -2 -10 2 -10 15 0 63 -51 57 -61 -3 -5 -22 6 -42 26 -20 20
-67 56 -104 81 -66 44 -87 65 -50 48 9 -4 28 -7 41 -7z"/>
<path d="M1270 3385 c47 -24 90 -44 95 -44 6 0 -28 20 -75 44 -47 24 -89 44
-95 44 -5 0 28 -20 75 -44z"/>
<path d="M1424 3311 c3 -5 16 -11 28 -14 22 -6 22 -5 4 8 -22 17 -40 20 -32 6z"/>
<path d="M368 3953 c6 -2 18 -2 25 0 6 3 1 5 -13 5 -14 0 -19 -2 -12 -5z"/>
<path d="M2351 3904 c0 -11 3 -14 6 -6 3 7 2 16 -1 19 -3 4 -6 -2 -5 -13z"/>
<path d="M3368 3913 c7 -3 16 -2 19 1 4 3 -2 6 -13 5 -11 0 -14 -3 -6 -6z"/>
<path d="M2380 3854 c-14 -16 -1 -24 39 -24 25 0 40 -6 49 -20 19 -30 34 -24
30 13 -3 31 -5 32 -56 37 -33 4 -57 1 -62 -6z"/>
<path d="M3710 3844 c0 -8 5 -12 10 -9 6 3 10 10 10 16 0 5 -4 9 -10 9 -5 0
-10 -7 -10 -16z"/>
<path d="M3438 3843 c7 -3 16 -2 19 1 4 3 -2 6 -13 5 -11 0 -14 -3 -6 -6z"/>
<path d="M3776 3814 c-4 -9 -4 -19 -1 -22 6 -6 35 18 35 29 0 16 -28 10 -34
-7z"/>
<path d="M3453 3808 c21 -7 26 -15 22 -29 -4 -11 -2 -19 4 -19 6 0 11 5 11 11
0 5 5 7 10 4 8 -5 7 -12 -1 -22 -10 -12 -10 -16 2 -24 8 -5 20 -7 27 -4 7 3
12 -4 12 -16 0 -15 5 -19 15 -15 9 3 15 0 15 -9 0 -8 -8 -15 -17 -16 -14 0
-15 -2 -3 -6 18 -7 44 -33 34 -33 -4 0 1 -6 11 -14 11 -8 23 -12 27 -10 4 3 5
-3 1 -12 -5 -13 -2 -16 8 -12 8 3 23 0 33 -8 18 -13 18 -14 -5 -23 -13 -5 -18
-10 -10 -10 7 -1 11 -7 7 -16 -3 -8 -1 -15 4 -15 6 0 10 5 10 10 0 5 3 9 8 8
4 -2 32 12 62 29 30 18 48 32 40 32 -8 0 -26 -6 -40 -14 -31 -18 -40 -18 -40
-2 -1 6 -14 23 -30 37 -17 13 -30 30 -30 38 0 9 -7 13 -20 9 -11 -3 -18 -1
-14 4 3 5 -2 9 -10 9 -19 0 -22 20 -3 21 6 0 0 5 -15 11 -16 5 -28 16 -28 23
0 7 -7 16 -16 19 -9 4 -14 9 -11 13 4 3 -3 14 -15 24 -11 11 -17 19 -12 20 17
1 -31 18 -51 18 -15 -1 -13 -3 8 -11z"/>
<path d="M2346 3725 c22 -30 54 -47 54 -30 0 17 -47 65 -62 65 -17 0 -16 -4 8
-35z"/>
<path d="M2406 3745 c-4 -12 -1 -16 14 -13 24 3 28 22 7 26 -8 2 -17 -4 -21
-13z"/>
<path d="M2560 3735 c-11 -13 -8 -21 16 -46 16 -17 58 -47 94 -67 36 -20 97
-56 135 -80 128 -82 145 -92 149 -92 7 0 168 -100 201 -124 17 -13 39 -26 50
-29 42 -14 160 -105 157 -121 -2 -13 2 -15 22 -10 19 4 28 0 41 -19 9 -14 30
-29 46 -32 18 -4 35 -17 41 -30 8 -19 16 -23 37 -19 19 4 34 -2 54 -22 37 -34
88 -38 93 -7 3 15 -6 31 -24 48 -39 38 -173 125 -192 125 -8 0 -35 14 -60 30
-25 16 -51 30 -58 30 -7 0 -25 8 -40 19 -15 10 -61 40 -102 65 -89 56 -68 43
-260 157 -85 51 -205 125 -267 166 -62 40 -115 73 -117 73 -2 0 -9 -7 -16 -15z
m1075 -655 c3 -5 -3 -10 -15 -10 -12 0 -18 5 -15 10 3 6 10 10 15 10 5 0 12
-4 15 -10z m40 -40 c3 -5 -1 -10 -9 -10 -8 0 -18 5 -21 10 -3 6 1 10 9 10 8 0
18 -4 21 -10z"/>
<path d="M2441 3721 c-7 -5 -9 -11 -5 -14 5 -3 15 1 22 9 14 16 5 18 -17 5z"/>
<path d="M1716 3691 c5 -5 25 -12 44 -15 l35 -6 -30 15 c-34 16 -64 20 -49 6z"/>
<path d="M2480 3690 c-12 -7 -10 -14 10 -37 14 -15 25 -28 25 -29 0 -1 12 -4
28 -8 29 -7 36 7 14 27 -57 52 -63 56 -77 47z"/>
<path d="M2400 3673 c1 -5 21 -30 45 -57 25 -28 45 -53 45 -58 0 -10 27 -10
34 0 6 11 -95 122 -111 122 -7 0 -13 -3 -13 -7z"/>
<path d="M2890 3655 c0 -9 174 -95 184 -91 6 2 5 5 -2 5 -8 1 -26 9 -40 19
-28 20 -142 74 -142 67z"/>
<path d="M3140 3526 c0 -2 7 -7 16 -10 8 -3 12 -2 9 4 -6 10 -25 14 -25 6z"/>
<path d="M3202 3489 c2 -7 10 -15 17 -17 8 -3 12 1 9 9 -2 7 -10 15 -17 17 -8
3 -12 -1 -9 -9z"/>
<path d="M3321 3424 c13 -16 29 -19 29 -5 0 5 -9 11 -21 14 -16 4 -18 3 -8 -9z"/>
<path d="M1830 3388 c0 -18 18 -34 28 -24 3 4 -2 14 -11 23 -16 16 -17 16 -17
1z"/>
<path d="M3850 3380 c6 -11 12 -20 14 -20 2 0 2 9 -1 20 -3 11 -9 20 -15 20
-5 0 -4 -9 2 -20z"/>
<path d="M2883 3364 c-3 -8 3 -24 13 -35 17 -19 18 -21 1 -30 -9 -6 -17 -17
-17 -26 0 -20 76 -121 149 -198 84 -89 225 -252 288 -333 10 -13 29 -35 41
-50 43 -49 127 -156 127 -162 1 -3 9 -20 18 -37 17 -32 37 -44 37 -23 0 7 6 7
20 0 11 -6 20 -17 20 -24 0 -8 7 -17 16 -20 13 -5 14 -9 5 -20 -10 -12 -8 -13
8 -9 22 6 30 -12 9 -19 -8 -3 -6 -7 4 -10 13 -5 15 -1 13 20 -2 15 1 32 6 38
6 8 -1 23 -21 44 -35 38 -37 46 -10 53 20 5 29 47 10 47 -5 0 -10 -4 -10 -9 0
-5 -11 -11 -24 -13 -20 -4 -39 11 -114 91 -50 53 -102 110 -116 127 -27 33
-34 50 -16 39 16 -10 11 1 -7 16 -15 12 -16 12 -8 -1 6 -12 6 -13 -6 -2 -8 7
-14 20 -14 30 0 9 -5 16 -12 15 -10 -2 -61 49 -107 108 -10 13 -33 39 -50 58
-17 19 -25 31 -18 27 18 -11 14 2 -9 27 -11 12 -25 31 -31 42 -19 34 36 -19
218 -210 94 -99 181 -189 193 -199 11 -11 21 -26 21 -35 0 -17 78 -101 94
-101 12 0 -5 44 -23 57 -15 11 -15 12 1 13 9 0 23 -7 31 -15 8 -8 17 -11 21
-8 6 7 -274 293 -287 293 -5 0 -5 -6 -1 -12 6 -10 3 -9 -8 0 -10 8 -14 20 -11
29 5 12 2 15 -9 10 -20 -7 -63 37 -52 54 5 9 2 11 -9 6 -12 -4 -14 -2 -10 10
5 12 3 14 -7 8 -10 -6 -12 -4 -7 8 3 9 1 19 -5 23 -7 4 -8 3 -4 -4 4 -7 2 -12
-3 -12 -6 0 -11 5 -11 11 0 5 -4 7 -10 4 -5 -3 -18 8 -28 24 -10 17 -22 28
-27 23 -4 -4 -5 0 -3 8 8 22 -9 48 -45 72 -18 11 -23 17 -13 14 16 -5 17 -4 6
9 -7 8 -18 15 -24 15 -6 0 -38 27 -70 60 -32 33 -63 60 -67 60 -5 0 -9 6 -9
14 0 20 -30 29 -37 10z m498 -491 c13 -16 12 -17 -3 -4 -17 13 -22 21 -14 21
2 0 10 -8 17 -17z m174 -183 c3 -5 2 -10 -4 -10 -5 0 -13 5 -16 10 -3 6 -2 10
4 10 5 0 13 -4 16 -10z"/>
<path d="M3468 3263 c7 -3 16 -2 19 1 4 3 -2 6 -13 5 -11 0 -14 -3 -6 -6z"/>
<path d="M3098 3243 c6 -2 18 -2 25 0 6 3 1 5 -13 5 -14 0 -19 -2 -12 -5z"/>
<path d="M3960 3241 c0 -5 5 -13 10 -16 6 -3 10 -2 10 4 0 5 -4 13 -10 16 -5
3 -10 2 -10 -4z"/>
<path d="M4026 3152 c16 -22 31 -38 33 -36 8 7 -20 50 -41 63 -17 10 -15 6 8
-27z"/>
<path d="M3176 3085 c4 -8 11 -15 16 -15 6 0 5 6 -2 15 -7 8 -14 15 -16 15 -2
0 -1 -7 2 -15z"/>
<path d="M3848 3022 c56 -93 96 -144 116 -152 13 -5 37 -27 52 -49 16 -22 32
-41 37 -41 4 0 7 21 7 48 0 43 -5 53 -64 123 -49 58 -73 78 -104 87 -58 18
-64 16 -44 -16z"/>
<path d="M2005 3010 c3 -5 -1 -11 -7 -13 -7 -3 -4 -6 7 -7 18 -1 19 -1 3 -11
-24 -14 -23 -33 2 -26 38 10 20 -2 -87 -56 -60 -29 -187 -96 -283 -149 -96
-53 -249 -135 -340 -182 -91 -47 -161 -86 -155 -86 5 0 73 21 150 46 86 28
209 79 320 134 99 49 188 91 198 94 13 4 17 12 12 25 -5 16 7 25 72 56 43 21
86 41 95 46 35 18 70 9 117 -30 33 -27 59 -40 91 -44 43 -6 46 -4 99 49 30 30
58 54 63 54 4 0 8 11 8 25 0 32 -3 31 -60 -5 l-46 -29 -79 30 c-44 17 -88 38
-98 47 -19 17 -90 44 -82 32z"/>
<path d="M3287 2974 c6 -15 23 -19 23 -5 0 5 -7 11 -14 14 -10 4 -13 1 -9 -9z"/>
<path d="M3260 2896 c0 -2 8 -10 18 -17 15 -13 16 -12 3 4 -13 16 -21 21 -21
13z"/>
<path d="M1770 2866 c-8 -8 -33 -21 -55 -29 -22 -9 -87 -34 -144 -56 -67 -26
-113 -38 -128 -35 -14 4 -23 2 -23 -5 0 -7 -21 -21 -47 -32 -27 -11 -68 -29
-93 -39 -25 -10 -119 -49 -210 -86 -91 -37 -183 -75 -205 -84 -22 -10 -94 -39
-160 -65 -66 -26 -122 -50 -125 -53 -10 -9 123 8 135 18 7 6 34 12 61 14 99 6
1044 420 1044 456 0 15 -34 12 -50 -4z m-785 -354 c-14 -12 -65 -32 -65 -26 0
3 15 11 33 19 37 17 45 18 32 7z"/>
<path d="M2440 2822 c0 -27 10 -33 28 -16 13 14 13 17 1 25 -21 13 -29 11 -29
-9z"/>
<path d="M2494 2813 c2 -9 8 -19 14 -21 14 -4 15 0 6 22 -8 21 -23 20 -20 -1z"/>
<path d="M2556 2814 c-4 -9 2 -14 17 -15 12 0 34 -3 50 -5 22 -4 27 -1 27 15
0 16 -7 19 -44 19 -29 0 -46 -5 -50 -14z"/>
<path d="M2667 2823 c-11 -10 -8 -43 3 -43 6 0 10 7 10 15 0 8 5 15 10 15 6 0
10 5 10 10 0 11 -23 14 -33 3z"/>
<path d="M2935 2769 c-16 -5 -48 -29 -71 -54 -23 -25 -50 -45 -60 -45 -11 0
-142 9 -292 20 -250 18 -275 18 -297 4 -21 -14 -31 -14 -75 -3 -43 11 -57 10
-102 -3 -29 -9 -100 -28 -158 -42 -58 -14 -143 -40 -190 -56 -47 -17 -139 -48
-205 -71 -66 -22 -129 -43 -140 -48 -50 -20 -94 -34 -137 -44 -40 -9 -48 -15
-50 -36 -3 -25 -4 -24 -25 14 -20 36 -22 38 -23 15 0 -25 -5 -27 -107 -49
-177 -38 -354 -60 -603 -76 -95 -6 -149 -16 -157 -28 -4 -6 -1 -7 7 -2 9 5 11
4 6 -4 -4 -6 -12 -9 -17 -6 -12 8 -42 -9 -37 -21 1 -5 -28 -16 -67 -24 -38 -8
-76 -19 -83 -23 -7 -5 -21 -5 -32 -2 -18 6 -20 2 -20 -44 0 -50 0 -50 38 -57
20 -4 44 -12 52 -18 8 -7 35 -19 60 -26 57 -17 80 -37 80 -67 0 -22 -4 -23
-72 -25 -40 -1 -93 -2 -116 -1 -24 1 -41 -1 -38 -4 9 -9 209 -35 259 -33 26 0
47 -3 47 -7 0 -10 61 -10 78 0 6 5 12 4 12 -1 0 -5 45 -7 103 -4 74 3 105 8
114 19 13 17 33 9 33 -13 0 -18 17 -18 69 1 23 8 64 17 91 21 28 4 50 11 50
16 0 6 7 7 16 4 17 -6 216 43 278 69 53 22 61 19 72 -27 l9 -43 95 -7 c228
-15 264 -17 253 -12 -19 8 -16 38 5 57 10 10 22 17 26 17 5 0 63 -23 130 -51
115 -49 126 -51 226 -55 58 -3 182 -9 275 -15 94 -6 244 -14 335 -20 91 -5
211 -12 268 -15 l102 -7 0 25 c0 14 12 35 26 49 23 21 25 30 21 69 -4 30 -1
51 9 64 33 46 6 111 -50 122 -44 8 -75 -10 -83 -47 -3 -17 -9 -26 -12 -21 -12
19 -527 36 -1103 36 -241 1 -438 4 -438 7 0 3 -7 6 -15 6 -8 0 -15 -4 -15 -9
0 -4 -9 -8 -20 -8 -11 0 -20 5 -20 11 0 6 7 9 14 6 10 -4 13 -1 9 9 -4 12 41
14 318 16 260 2 292 3 159 8 -91 3 -158 8 -150 12 8 4 80 28 160 53 80 25 175
60 212 77 37 18 70 29 74 25 3 -3 34 4 68 17 61 23 62 23 351 14 160 -5 296
-11 303 -13 6 -3 12 -13 12 -24 0 -22 8 -25 96 -46 67 -15 169 -18 284 -6 65
6 65 6 25 14 -66 14 -153 44 -205 73 -54 29 -97 70 -86 81 3 4 32 9 64 11 52
4 61 1 91 -23 32 -28 33 -28 104 -16 117 20 114 18 77 56 l-32 33 36 12 c20 6
38 15 41 20 3 4 -25 25 -62 46 -38 20 -77 43 -88 50 -18 11 -27 8 -80 -27 -64
-43 -57 -43 -178 -17 l-48 10 38 29 c21 15 43 29 49 29 6 0 32 9 58 20 62 28
189 42 267 29 34 -5 63 -8 65 -6 2 2 -40 18 -93 36 -102 33 -201 40 -268 20z
m-655 -209 c0 -5 -4 -10 -10 -10 -5 0 -10 5 -10 10 0 6 5 10 10 10 6 0 10 -4
10 -10z m-270 -80 c0 -5 -10 -10 -22 -9 -22 0 -22 1 -3 9 11 5 21 9 23 9 1 1
2 -3 2 -9z m-53 -16 c-3 -3 -12 -4 -19 -1 -8 3 -5 6 6 6 11 1 17 -2 13 -5z
m-762 -214 c-3 -5 -12 -10 -18 -10 -7 0 -6 4 3 10 19 12 23 12 15 0z m-28 -56
c-3 -3 -12 -4 -19 -1 -8 3 -5 6 6 6 11 1 17 -2 13 -5z m-150 -50 c-3 -3 -12
-4 -19 -1 -8 3 -5 6 6 6 11 1 17 -2 13 -5z m1973 2 c0 -3 -4 -8 -10 -11 -5 -3
-10 -1 -10 4 0 6 5 11 10 11 6 0 10 -2 10 -4z m-1355 -66 c165 -6 326 -12 358
-14 37 -3 55 -1 51 6 -4 6 1 8 12 4 11 -3 199 -8 419 -12 220 -3 402 -7 404
-9 2 -2 1 -11 -2 -20 -5 -12 -26 -15 -104 -16 -54 -1 -90 -3 -80 -6 9 -2 17
-9 17 -15 0 -7 -16 -8 -46 -4 -26 3 -69 6 -97 6 -44 0 -49 2 -44 20 4 17 0 20
-24 20 -20 0 -29 -5 -29 -16 0 -14 -14 -15 -117 -8 -65 5 -148 8 -185 7 -38 0
-68 2 -68 7 0 4 -51 7 -112 6 -62 -1 -178 3 -258 8 -80 5 -154 8 -164 8 -11
-1 -28 4 -39 9 -14 8 -18 8 -12 0 4 -8 -1 -10 -17 -7 -12 3 -83 8 -156 10
-114 3 -133 2 -141 -13 -15 -26 -23 -6 -10 23 12 26 15 27 78 22 36 -3 201
-10 366 -16z m-855 -10 c-8 -5 -19 -10 -25 -10 -5 0 -3 5 5 10 8 5 20 10 25
10 6 0 3 -5 -5 -10z m-80 -25 c0 -2 -19 -9 -41 -15 -27 -8 -43 -18 -46 -31 -6
-22 -28 -21 -28 2 0 7 20 21 45 31 45 17 70 22 70 13z m2093 -42 c-13 -2 -33
-2 -45 0 -13 2 -3 4 22 4 25 0 35 -2 23 -4z m-2523 -21 c0 -13 -12 -22 -22
-16 -10 6 -1 24 13 24 5 0 9 -4 9 -8z m2435 -42 c4 -6 -7 -10 -24 -10 -17 0
-31 5 -31 10 0 6 11 10 24 10 14 0 28 -4 31 -10z"/>
<path d="M2370 2761 c0 -4 21 -11 48 -14 26 -2 55 -8 65 -12 13 -5 17 -2 17
13 0 17 -7 20 -65 21 -36 1 -65 -3 -65 -8z"/>
<path d="M2520 2751 c0 -6 8 -11 18 -11 9 0 59 -5 111 -10 52 -6 95 -9 97 -7
2 1 0 8 -5 15 -10 16 -221 29 -221 13z"/>
<path d="M3646 2617 c-14 -10 -14 -15 -4 -28 12 -15 14 -15 29 1 21 22 0 45
-25 27z"/>
<path d="M1165 2535 c-39 -19 -128 -58 -191 -85 -41 -17 -44 -20 -16 -16 39 7
184 68 227 96 35 23 24 25 -20 5z"/>
<path d="M1928 2173 c7 -3 16 -2 19 1 4 3 -2 6 -13 5 -11 0 -14 -3 -6 -6z"/>
<path d="M1607 1890 c3 -13 17 -22 39 -26 19 -3 34 -11 34 -17 0 -6 3 -8 6 -4
3 3 36 -10 72 -28 122 -61 394 -188 457 -213 22 -9 59 -26 81 -39 23 -12 64
-31 90 -42 65 -25 282 -128 384 -181 27 -14 31 -18 16 -21 -11 -3 19 -20 75
-44 52 -21 122 -53 157 -71 56 -28 60 -32 37 -36 -14 -3 -25 -1 -25 4 0 6 -12
7 -27 4 -18 -4 -23 -3 -14 2 10 7 10 11 1 17 -7 4 -16 2 -20 -5 -5 -9 -19 -10
-44 -6 -20 4 -36 3 -36 -2 0 -9 52 -23 97 -27 12 -1 28 -6 35 -12 7 -6 24 -13
38 -14 14 -2 42 -14 63 -27 25 -15 51 -22 75 -21 21 2 43 -1 50 -5 7 -4 12 -2
12 6 0 9 3 10 8 2 7 -11 24 -15 117 -31 22 -3 50 -13 62 -20 12 -8 27 -12 33
-8 5 3 38 -1 72 -11 35 -9 90 -22 123 -29 33 -7 74 -17 90 -22 17 -5 37 -9 45
-9 16 1 49 81 37 92 -4 4 -48 13 -99 20 -143 21 -228 34 -283 44 -27 4 -82 14
-122 20 -69 12 -71 13 -76 44 -2 17 2 43 9 58 17 33 17 49 2 83 -9 21 -17 25
-35 20 -16 -4 -23 -1 -23 9 0 19 -35 30 -57 17 -17 -10 -17 -10 0 -11 28 0 20
-18 -10 -22 -24 -3 -28 -8 -31 -43 -5 -67 -5 -67 -82 -29 -39 18 -72 34 -74
34 -3 0 -55 24 -118 54 -62 29 -161 74 -219 99 -59 26 -147 65 -195 88 -49 23
-129 59 -179 81 -87 38 -169 76 -307 141 -42 20 -63 34 -55 39 8 5 5 7 -8 6
-35 -2 -56 2 -51 10 3 5 -14 17 -37 26 -23 10 -71 31 -106 47 -75 34 -91 36
-84 9z m1550 -637 c-21 -22 -32 -11 -15 16 8 13 16 17 22 11 7 -7 4 -16 -7
-27z m-57 -53 c0 -5 -4 -10 -10 -10 -5 0 -10 5 -10 10 0 6 5 10 10 10 6 0 10
-4 10 -10z m31 -53 c-13 -13 -26 -3 -16 12 3 6 11 8 17 5 6 -4 6 -10 -1 -17z
m-66 3 c3 -5 1 -10 -4 -10 -6 0 -11 5 -11 10 0 6 2 10 4 10 3 0 8 -4 11 -10z"/>
<path d="M1940 1865 c14 -8 30 -14 35 -14 6 0 -1 6 -15 14 -14 8 -29 14 -35
14 -5 0 1 -6 15 -14z"/>
<path d="M2310 1615 c0 -7 39 -26 73 -36 17 -5 26 -5 21 0 -12 10 -94 42 -94
36z"/>
<path d="M2440 1556 c0 -5 216 -96 227 -96 15 1 -29 22 -125 61 -99 41 -102
42 -102 35z"/>
<path d="M1433 1480 c-8 -11 -9 -21 -3 -25 5 -3 7 -12 3 -20 -3 -11 2 -15 18
-15 31 0 50 13 53 36 7 43 -48 61 -71 24z"/>
<path d="M2780 1420 c0 -10 309 -124 317 -116 3 3 0 6 -8 7 -8 0 -6 4 6 10 15
7 12 8 -15 4 -19 -3 -29 -2 -22 1 10 5 10 9 1 20 -6 8 -17 14 -23 14 -6 0 -4
-4 4 -10 27 -17 0 -24 -33 -7 -31 15 -31 16 -7 17 21 0 18 4 -19 20 -49 23
-51 23 -51 11 0 -5 10 -11 22 -14 12 -4 20 -9 17 -12 -3 -3 -47 10 -97 29 -51
19 -92 31 -92 26z"/>
<path d="M2860 1420 c0 -5 7 -10 15 -10 8 0 15 5 15 10 0 6 -7 10 -15 10 -8 0
-15 -4 -15 -10z"/>
<path d="M2724 1336 c11 -9 24 -16 30 -16 12 0 7 5 -24 19 -24 11 -24 11 -6
-3z"/>
</g>
</svg>
